Merriweather-LightHeading.ufo
<glyph name="numbersign" format="2">
  <advance width="1323.0"/>
  <unicode hex="0023"/>
  <outline>
    <contour>
      <point x="339.5" y="415.1" type="line"/>
      <point x="275.5" y="2.0999999999999996" type="line"/>
      <point x="358.5" y="2.0999999999999996" type="line"/>
      <point x="423.5" y="415.1" type="line"/>
      <point x="778.5" y="415.1" type="line"/>
      <point x="715.5" y="2.0999999999999996" type="line"/>
      <point x="798.5" y="2.0999999999999996" type="line"/>
      <point x="861.5" y="415.1" type="line"/>
      <point x="1109.5" y="415.1" type="line"/>
      <point x="1127.5" y="548.1" type="line"/>
      <point x="883.5" y="548.1" type="line"/>
      <point x="954.5" y="979.1" type="line"/>
      <point x="1187.5" y="979.1" type="line"/>
      <point x="1205.5" y="1110.1" type="line"/>
      <point x="972.5" y="1110.1" type="line"/>
      <point x="1042.5" y="1541.1" type="line"/>
      <point x="958.5" y="1541.1" type="line"/>
      <point x="888.5" y="1110.1" type="line"/>
      <point x="534.5" y="1110.1" type="line"/>
      <point x="602.5" y="1541.1" type="line"/>
      <point x="519.5" y="1541.1" type="line"/>
      <point x="451.5" y="1110.1" type="line"/>
      <point x="212.5" y="1110.1" type="line"/>
      <point x="194.5" y="979.1" type="line"/>
      <point x="430.5" y="979.1" type="line"/>
      <point x="360.5" y="548.1" type="line"/>
      <point x="135.5" y="548.1" type="line"/>
      <point x="117.5" y="415.1" type="line"/>
    </contour>
    <contour>
      <point x="800.5" y="548.1" type="line"/>
      <point x="442.5" y="548.1" type="line"/>
      <point x="514.5" y="979.1" type="line"/>
      <point x="870.5" y="979.1" type="line"/>
    </contour>
  </outline>
</glyph>
<glyph name="dollar" format="2">
  <advance width="1253.9"/>
  <unicode hex="0024"/>
  <outline>
    <contour>
      <point x="189.5" y="68.0" type="line"/>
      <point x="238.8" y="42.0"/>
      <point x="396.1" y="-8.0"/>
      <point x="562.7" y="-20.0" type="curve"/>
      <point x="560.7" y="-252.0" type="line"/>
      <point x="658.0" y="-252.0" type="line"/>
      <point x="660.0" y="-20.0" type="line"/>
      <point x="921.6" y="-2.0999999999999996"/>
      <point x="1083.7" y="150.0"/>
      <point x="1083.7" y="362.3" type="curve" smooth="yes"/>
      <point x="1083.7" y="592.4"/>
      <point x="897.0" y="693.6"/>
      <point x="682.6" y="807.9" type="curve" smooth="yes"/>
      <point x="501.0" y="903.5"/>
      <point x="332.6" y="982.7"/>
      <point x="332.6" y="1168.4" type="curve" smooth="yes"/>
      <point x="332.6" y="1337.7"/>
      <point x="469.8" y="1435.3"/>
      <point x="643.3" y="1435.3" type="curve" smooth="yes"/>
      <point x="741.2" y="1436.6"/>
      <point x="836.4" y="1410.0"/>
      <point x="883.9" y="1375.3" type="curve"/>
      <point x="920.8" y="1110.0" type="line"/>
      <point x="997.2" y="1110.0" type="line"/>
      <point x="1007.2" y="1426.0" type="line"/>
      <point x="957.2" y="1448.0"/>
      <point x="845.8" y="1494.0"/>
      <point x="691.2" y="1502.0" type="curve"/>
      <point x="691.2" y="1720.0" type="line"/>
      <point x="591.9" y="1720.0" type="line"/>
      <point x="591.9" y="1500.0" type="line"/>
      <point x="371.4" y="1473.2"/>
      <point x="208.1" y="1349.2"/>
      <point x="208.1" y="1146.5" type="curve" smooth="yes"/>
      <point x="208.1" y="917.7"/>
      <point x="387.7" y="812.8"/>
      <point x="583.1" y="707.7" type="curve" smooth="yes"/>
      <point x="770.8" y="606.6"/>
      <point x="953.9" y="533.0"/>
      <point x="953.9" y="337.1" type="curve" smooth="yes"/>
      <point x="953.9" y="155.0"/>
      <point x="814.1" y="46.7"/>
      <point x="610.8" y="46.7" type="curve" smooth="yes"/>
      <point x="493.5" y="46.7"/>
      <point x="369.9" y="80.2"/>
      <point x="314.1" y="126.7" type="curve"/>
      <point x="282.5" y="404.0" type="line"/>
      <point x="202.8" y="404.0" type="line"/>
    </contour>
  </outline>
</glyph>
<glyph name="ampersand" format="2">
  <advance width="1429.3"/>
  <unicode hex="0026"/>
  <outline>
    <contour>
      <point x="1409.3" y="810.0" type="line"/>
      <point x="1019.5" y="810.0" type="line"/>
      <point x="1019.5" y="747.0" type="line"/>
      <point x="1156.2" y="721.4" type="line"/>
      <point x="1171.7" y="587.5"/>
      <point x="1147.9" y="378.9"/>
      <point x="1036.1" y="250.9" type="curve"/>
      <point x="966.3" y="318.20000000000005"/>
      <point x="896.5" y="398.9"/>
      <point x="623.6" y="751.5" type="curve"/>
      <point x="869.9" y="904.6"/>
      <point x="981.5" y="1028.1"/>
      <point x="981.5" y="1214.3" type="curve" smooth="yes"/>
      <point x="981.5" y="1383.9"/>
      <point x="850.1" y="1504.0"/>
      <point x="662.7" y="1504.0" type="curve" smooth="yes"/>
      <point x="427.6" y="1504.0"/>
      <point x="278.9" y="1344.9"/>
      <point x="278.9" y="1153.7" type="curve" smooth="yes"/>
      <point x="278.9" y="1028.1"/>
      <point x="324.4" y="922.1"/>
      <point x="460.5" y="741.0" type="curve"/>
      <point x="274.1" y="655.8"/>
      <point x="136.0" y="526.9"/>
      <point x="136.0" y="358.1" type="curve" smooth="yes"/>
      <point x="136.0" y="117.1"/>
      <point x="334.2" y="-16.0"/>
      <point x="603.8" y="-16.0" type="curve" smooth="yes"/>
      <point x="721.3" y="-16.0"/>
      <point x="858.9" y="4.600000000000001"/>
      <point x="983.7" y="115.8" type="curve"/>
      <point x="1080.7" y="17.800000000000004"/>
      <point x="1164.4" y="-12.0"/>
      <point x="1249.4" y="-12.0" type="curve" smooth="yes"/>
      <point x="1280.2" y="-12.0"/>
      <point x="1326.5" y="-4.6"/>
      <point x="1352.5" y="6.0" type="curve"/>
      <point x="1352.5" y="58.3" type="line"/>
      <point x="1243.9" y="69.9"/>
      <point x="1188.0" y="94.0"/>
      <point x="1087.0" y="198.5" type="curve"/>
      <point x="1183.7" y="315.6"/>
      <point x="1280.3" y="514.0"/>
      <point x="1277.0" y="721.4" type="curve"/>
      <point x="1409.3" y="747.0" type="line"/>
    </contour>
    <contour>
      <point x="404.70000000000005" y="1188.1" type="curve" smooth="yes"/>
      <point x="404.7" y="1331.1999999999998"/>
      <point x="482.4" y="1445.8"/>
      <point x="647.3" y="1445.8" type="curve" smooth="yes"/>
      <point x="786.9" y="1445.8"/>
      <point x="851.5999999999999" y="1315.8"/>
      <point x="857.2" y="1201.6" type="curve" smooth="yes"/>
      <point x="864.9" y="1025.3"/>
      <point x="790.8" y="924.1"/>
      <point x="584.3" y="801.3" type="curve"/>
      <point x="503.0" y="902.4"/>
      <point x="404.70000000000005" y="1031.0"/>
    </contour>
    <contour>
      <point x="625.8" y="54.59999999999991" type="curve" smooth="yes"/>
      <point x="420.1" y="58.80000000000007"/>
      <point x="281.3" y="185.70000000000005"/>
      <point x="272.9" y="357.69999999999993" type="curve" smooth="yes"/>
      <point x="265.20000000000005" y="505.29999999999995"/>
      <point x="338.90000000000003" y="612.8"/>
      <point x="499.70000000000005" y="691.0999999999999" type="curve"/>
      <point x="627.0" y="524.1"/>
      <point x="811.7" y="289.0"/>
      <point x="934.9" y="163.60000000000002" type="curve"/>
      <point x="844.8" y="75.89999999999998"/>
      <point x="729.0" y="52.5"/>
    </contour>
  </outline>
</glyph>
<glyph name="asterisk" format="2">
  <advance width="1042.7"/>
  <unicode hex="002A"/>
  <outline>
    <contour>
      <point x="360.1" y="1155.1" type="line"/>
      <point x="122.0" y="1042.1" type="line"/>
      <point x="188.7" y="927.8000000000001" type="line"/>
      <point x="402.3" y="1082.6" type="line"/>
      <point x="509.09999999999997" y="1179.4" type="line"/>
      <point x="481.79999999999995" y="1037.5" type="line"/>
      <point x="460.59999999999997" y="774.4000000000001" type="line"/>
      <point x="592.7" y="775.0" type="line"/>
      <point x="564.3" y="1038.2" type="line"/>
      <point x="533.7" y="1179.4" type="line"/>
      <point x="643.0" y="1084.5" type="line"/>
      <point x="858.0" y="933.8" type="line"/>
      <point x="924.7" y="1049.3" type="line"/>
      <point x="683.3" y="1156.4" type="line"/>
      <point x="546.0" y="1200.8" type="line"/>
      <point x="682.5999999999999" y="1247.1" type="line"/>
      <point x="920.0999999999999" y="1359.5" type="line"/>
      <point x="854.0" y="1473.2" type="line"/>
      <point x="639.8" y="1318.4" type="line"/>
      <point x="533.0" y="1222.2" type="line"/>
      <point x="560.9" y="1364.1" type="line"/>
      <point x="582.6999999999999" y="1626.0" type="line"/>
      <point x="450.0" y="1626.0" type="line"/>
      <point x="477.8" y="1362.8" type="line"/>
      <point x="509.0" y="1221.6" type="line"/>
      <point x="399.7" y="1316.5" type="line"/>
      <point x="184.1" y="1467.2" type="line"/>
      <point x="118.6" y="1352.9" type="line"/>
      <point x="359.4" y="1244.6" type="line"/>
      <point x="496.7" y="1200.8" type="line"/>
    </contour>
  </outline>
</glyph>
<glyph name="plus" format="2">
  <advance width="1236.5"/>
  <unicode hex="002B"/>
  <outline>
    <contour>
      <point x="351.2" y="714.6" type="line"/>
      <point x="161.8" y="714.6" type="line"/>
      <point x="161.8" y="615.4" type="line"/>
      <point x="351.2" y="615.4" type="line"/>
      <point x="570.1" y="617.2" type="line"/>
      <point x="568.3" y="424.9" type="line"/>
      <point x="568.3" y="194.5" type="line"/>
      <point x="667.5" y="194.5" type="line"/>
      <point x="667.5" y="424.9" type="line"/>
      <point x="665.1" y="617.2" type="line"/>
      <point x="856.5" y="615.4" type="line"/>
      <point x="1074.7" y="615.4" type="line"/>
      <point x="1074.7" y="714.6" type="line"/>
      <point x="856.5" y="714.6" type="line"/>
      <point x="665.1" y="711.6" type="line"/>
      <point x="667.5" y="910.7" type="line"/>
      <point x="667.5" y="1130.6" type="line"/>
      <point x="568.3" y="1130.6" type="line"/>
      <point x="568.3" y="910.7" type="line"/>
      <point x="570.1" y="711.6" type="line"/>
    </contour>
  </outline>
</glyph>
<glyph name="period" format="2">
  <advance width="383.0"/>
  <unicode hex="002E"/>
  <outline>
    <contour>
      <point x="183.89999999999998" y="-22.0" type="curve" smooth="yes"/>
      <point x="240.8" y="-22.0"/>
      <point x="294.4" y="25.0"/>
      <point x="294.4" y="92.5" type="curve" smooth="yes"/>
      <point x="294.4" y="142.8"/>
      <point x="266.6" y="189.8"/>
      <point x="201.1" y="189.8" type="curve" smooth="yes"/>
      <point x="143.5" y="189.8"/>
      <point x="88.6" y="140.8"/>
      <point x="88.6" y="75.3" type="curve" smooth="yes"/>
      <point x="88.6" y="16.4"/>
      <point x="131.6" y="-22.0"/>
    </contour>
  </outline>
</glyph>
<glyph name="zero" format="2">
  <advance width="1207.0"/>
  <unicode hex="0030"/>
  <outline>
    <contour>
      <point x="595.2" y="-18.0" type="curve" smooth="yes"/>
      <point x="910.6" y="-18.0"/>
      <point x="1119.5" y="284.0"/>
      <point x="1121.5" y="748.0" type="curve" smooth="yes"/>
      <point x="1123.5" y="1188.0"/>
      <point x="996.4" y="1504.0"/>
      <point x="619.8" y="1504.0" type="curve" smooth="yes"/>
      <point x="315.7" y="1504.0"/>
      <point x="87.5" y="1230.0"/>
      <point x="85.5" y="760.0" type="curve" smooth="yes"/>
      <point x="83.5" y="332.0"/>
      <point x="223.9" y="-18.0"/>
    </contour>
    <contour>
      <point x="600.5" y="44.6" type="curve" smooth="yes"/>
      <point x="361.4" y="44.6"/>
      <point x="255.1" y="377.0"/>
      <point x="255.1" y="768.0" type="curve" smooth="yes"/>
      <point x="255.1" y="1176.0"/>
      <point x="356.8" y="1441.4"/>
      <point x="608.5" y="1441.4" type="curve" smooth="yes"/>
      <point x="851.6" y="1441.4"/>
      <point x="951.0" y="1145.0"/>
      <point x="951.0" y="740.0" type="curve" smooth="yes"/>
      <point x="951.0" y="320.0"/>
      <point x="854.2" y="44.6"/>
    </contour>
  </outline>
</glyph>
<glyph name="two" format="2">
  <advance width="1103.5"/>
  <unicode hex="0032"/>
  <outline>
    <contour>
      <point x="33.2" y="45.6" type="curve"/>
      <point x="48.800000000000004" y="0.0" type="line"/>
      <point x="976.6" y="0.0" type="line"/>
      <point x="1035.1" y="307.4" type="line"/>
      <point x="962.5" y="320.5" type="line"/>
      <point x="870.6" y="140.2" type="line"/>
      <point x="222.7" y="98.9" type="line"/>
      <point x="554.7" y="342.1"/>
      <point x="932.6" y="750.1"/>
      <point x="932.6" y="1103.0" type="curve" smooth="yes"/>
      <point x="932.6" y="1353.2"/>
      <point x="753.0" y="1502.0"/>
      <point x="514.0" y="1502.0" type="curve" smooth="yes"/>
      <point x="328.5" y="1502.0"/>
      <point x="155.4" y="1400.8"/>
      <point x="57.6" y="1232.2" type="curve"/>
      <point x="111.5" y="1188.6" type="line"/>
      <point x="202.3" y="1315.1"/>
      <point x="339.8" y="1394.4"/>
      <point x="477.8" y="1394.4" type="curve" smooth="yes"/>
      <point x="647.1" y="1394.4"/>
      <point x="766.6" y="1290.6"/>
      <point x="766.6" y="1072.9" type="curve" smooth="yes"/>
      <point x="766.6" y="712.2"/>
      <point x="391.2" y="260.8"/>
    </contour>
  </outline>
</glyph>
<glyph name="three" format="2">
  <advance width="1030.6"/>
  <unicode hex="0033"/>
  <outline>
    <contour>
      <point x="253.6" y="-26.0" type="curve" smooth="yes"/>
      <point x="631.2" y="-30.2"/>
      <point x="951.0" y="153.7"/>
      <point x="949.8" y="474.0" type="curve" smooth="yes"/>
      <point x="949.2" y="683.0"/>
      <point x="755.3" y="850.6"/>
      <point x="470.90000000000003" y="790.9" type="curve"/>
      <point x="663.3" y="861.2"/>
      <point x="872.9" y="981.0"/>
      <point x="872.9" y="1200.8" type="curve" smooth="yes"/>
      <point x="872.9" y="1412.0"/>
      <point x="684.8" y="1502.0"/>
      <point x="474.4" y="1502.0" type="curve" smooth="yes"/>
      <point x="281.9" y="1502.0"/>
      <point x="125.7" y="1406.2"/>
      <point x="55.2" y="1335.0" type="curve"/>
      <point x="86.60000000000001" y="1282.6" type="line"/>
      <point x="174.4" y="1353.7"/>
      <point x="300.0" y="1399.3"/>
      <point x="419.8" y="1400.7" type="curve" smooth="yes"/>
      <point x="571.1" y="1402.8"/>
      <point x="698.0" y="1338.8"/>
      <point x="697.4" y="1185.8" type="curve" smooth="yes"/>
      <point x="696.8" y="1029.3"/>
      <point x="577.7" y="909.5"/>
      <point x="383.7" y="835.8" type="curve" smooth="yes"/>
      <point x="338.6" y="818.6"/>
      <point x="286.0" y="804.0"/>
      <point x="241.7" y="791.2" type="curve"/>
      <point x="262.6" y="717.6" type="line"/>
      <point x="288.6" y="725.1"/>
      <point x="373.7" y="750.4"/>
      <point x="404.5" y="759.9" type="curve"/>
      <point x="677.4" y="787.4"/>
      <point x="769.4" y="634.3"/>
      <point x="770.1" y="467.6" type="curve" smooth="yes"/>
      <point x="771.5" y="221.9"/>
      <point x="571.3" y="44.1"/>
      <point x="236.7" y="47.6" type="curve" smooth="yes"/>
      <point x="183.2" y="48.3"/>
      <point x="113.60000000000001" y="58.6"/>
      <point x="68.80000000000001" y="73.4" type="curve"/>
      <point x="68.80000000000001" y="2.5" type="line"/>
      <point x="116.0" y="-13.7"/>
      <point x="200.10000000000002" y="-25.3"/>
    </contour>
  </outline>
</glyph>
<glyph name="four" format="2">
  <advance width="1126.9"/>
  <unicode hex="0034"/>
  <outline>
    <contour>
      <point x="688.0" y="0.0" type="line"/>
      <point x="834.0" y="0.0" type="line"/>
      <point x="834.0" y="322.0" type="line"/>
      <point x="1092.4" y="322.0" type="line"/>
      <point x="1091.7" y="445.2" type="line"/>
      <point x="833.3" y="429.1" type="line"/>
      <point x="834.0" y="854.0" type="line"/>
      <point x="688.0" y="842.0" type="line"/>
      <point x="687.3" y="423.1" type="line"/>
      <point x="124.1" y="389.5" type="line"/>
      <point x="301.6" y="646.1" type="line"/>
      <point x="734.1" y="1423.1" type="line"/>
      <point x="626.5" y="1486.0" type="line"/>
      <point x="552.6" y="1486.0" type="line"/>
      <point x="398.4" y="1152.0"/>
      <point x="254.1" y="768.0"/>
      <point x="37.5" y="402.0" type="curve"/>
      <point x="76.69999999999999" y="322.0" type="line"/>
      <point x="688.0" y="322.0" type="line"/>
    </contour>
  </outline>
</glyph>
<glyph name="five" format="2">
  <advance width="1073.4"/>
  <unicode hex="0035"/>
  <outline>
    <contour>
      <point x="117.5" y="55.8" type="curve"/>
      <point x="118.9" y="-12.7" type="line"/>
      <point x="164.2" y="-24.0"/>
      <point x="214.2" y="-26.0"/>
      <point x="254.7" y="-26.0" type="curve" smooth="yes"/>
      <point x="718.9" y="-26.0"/>
      <point x="969.5" y="267.2"/>
      <point x="969.5" y="539.7" type="curve" smooth="yes"/>
      <point x="969.5" y="761.2"/>
      <point x="839.7" y="930.6"/>
      <point x="565.6" y="930.6" type="curve" smooth="yes"/>
      <point x="431.2" y="930.6"/>
      <point x="278.9" y="874.3"/>
      <point x="185.59999999999997" y="792.9" type="curve"/>
      <point x="318.0" y="1346.8" type="line"/>
      <point x="913.1" y="1346.8" type="line"/>
      <point x="943.0" y="1520.5" type="line"/>
      <point x="848.0" y="1520.5" type="line"/>
      <point x="828.0" y="1485.3" type="line"/>
      <point x="206.89999999999998" y="1485.3" type="line"/>
      <point x="112.5" y="769.7" type="line"/>
      <point x="165.1" y="735.0" type="line"/>
      <point x="249.3" y="778.6"/>
      <point x="363.1" y="826.8"/>
      <point x="485.3" y="826.8" type="curve" smooth="yes"/>
      <point x="695.2" y="826.8"/>
      <point x="795.7" y="706.6"/>
      <point x="795.7" y="509.7" type="curve" smooth="yes"/>
      <point x="795.7" y="230.2"/>
      <point x="541.6" y="48.4"/>
      <point x="230.5" y="48.4" type="curve" smooth="yes"/>
      <point x="191.7" y="48.4"/>
      <point x="150.6" y="51.099999999999994"/>
    </contour>
  </outline>
</glyph>
<glyph name="six" format="2">
  <advance width="1170.8"/>
  <unicode hex="0036"/>
  <outline>
    <contour>
      <point x="581.6" y="-26.0" type="curve" smooth="yes"/>
      <point x="906.3" y="-26.7"/>
      <point x="1080.8" y="242.0"/>
      <point x="1080.8" y="514.2" type="curve" smooth="yes"/>
      <point x="1080.8" y="803.0"/>
      <point x="910.6" y="976.6"/>
      <point x="651.5" y="976.6" type="curve" smooth="yes"/>
      <point x="513.2" y="976.6"/>
      <point x="375.5" y="910.8"/>
      <point x="289.6" y="778.7" type="curve"/>
      <point x="343.2" y="1095.8"/>
      <point x="531.7" y="1390.2"/>
      <point x="900.0" y="1514.2" type="curve"/>
      <point x="871.1" y="1572.0" type="line"/>
      <point x="419.4" y="1476.0"/>
      <point x="103.0" y="1056.0"/>
      <point x="103.0" y="604.0" type="curve" smooth="yes"/>
      <point x="103.0" y="301.0"/>
      <point x="252.0" y="-25.3"/>
    </contour>
    <contour>
      <point x="622.2" y="898.5" type="curve" smooth="yes"/>
      <point x="821.2" y="897.8"/>
      <point x="908.8" y="719.4"/>
      <point x="908.8" y="485.9" type="curve" smooth="yes"/>
      <point x="908.8" y="262.3"/>
      <point x="817.6" y="32.5"/>
      <point x="593.6" y="32.5" type="curve" smooth="yes"/>
      <point x="346.1" y="32.5"/>
      <point x="276.9" y="370.6"/>
      <point x="276.9" y="555.6" type="curve" smooth="yes"/>
      <point x="276.9" y="634.6"/>
      <point x="278.2" y="693.9"/>
      <point x="280.2" y="711.9" type="curve"/>
      <point x="335.2" y="795.3"/>
      <point x="461.1" y="899.2"/>
    </contour>
  </outline>
</glyph>
<glyph name="seven" format="2">
  <advance width="1076.8"/>
  <unicode hex="0037"/>
  <outline>
    <contour>
      <point x="529.2" y="-2.0" type="line"/>
      <point x="1025.0" y="1442.0" type="line"/>
      <point x="991.0" y="1486.0" type="line"/>
      <point x="108.0" y="1486.0" type="line"/>
      <point x="68.0" y="1119.3" type="line"/>
      <point x="129.9" y="1108.3" type="line"/>
      <point x="206.9" y="1352.0" type="line"/>
      <point x="918.4" y="1358.0" type="line"/>
      <point x="734.7" y="903.8"/>
      <point x="532.3" y="436.0"/>
      <point x="338.3" y="0.0" type="curve"/>
    </contour>
  </outline>
</glyph>
<glyph name="eight" format="2">
  <advance width="1150.1"/>
  <unicode hex="0038"/>
  <outline>
    <contour>
      <point x="86.0" y="354.1" type="curve" smooth="yes"/>
      <point x="86.0" y="117.5"/>
      <point x="298.5" y="-18.0"/>
      <point x="563.8" y="-18.0" type="curve" smooth="yes"/>
      <point x="829.9" y="-18.0"/>
      <point x="1064.1" y="134.7"/>
      <point x="1064.1" y="389.0" type="curve" smooth="yes"/>
      <point x="1064.1" y="586.6"/>
      <point x="899.9" y="697.3"/>
      <point x="708.4" y="787.0" type="curve"/>
      <point x="916.9" y="883.5"/>
      <point x="1015.4" y="1035.6"/>
      <point x="1015.4" y="1183.8" type="curve" smooth="yes"/>
      <point x="1015.4" y="1362.6"/>
      <point x="863.2" y="1504.0"/>
      <point x="601.5" y="1504.0" type="curve" smooth="yes"/>
      <point x="376.5" y="1504.0"/>
      <point x="158.5" y="1378.0"/>
      <point x="158.5" y="1134.0" type="curve" smooth="yes"/>
      <point x="158.5" y="935.4"/>
      <point x="296.3" y="827.6"/>
      <point x="432.2" y="747.1" type="curve"/>
      <point x="191.7" y="666.0"/>
      <point x="86.0" y="509.5"/>
    </contour>
    <contour>
      <point x="297.0" y="1186.1" type="curve" smooth="yes"/>
      <point x="297.0" y="1349.1"/>
      <point x="416.5" y="1447.2"/>
      <point x="588.6" y="1447.2" type="curve" smooth="yes"/>
      <point x="771.3" y="1447.2"/>
      <point x="874.8" y="1311.9"/>
      <point x="874.8" y="1144.8" type="curve" smooth="yes"/>
      <point x="874.8" y="1006.4"/>
      <point x="799.4" y="879.4"/>
      <point x="651.9" y="813.3" type="curve"/>
      <point x="437.6" y="924.8"/>
      <point x="297.0" y="1013.8"/>
    </contour>
    <contour>
      <point x="907.1" y="327.1" type="curve" smooth="yes"/>
      <point x="907.1" y="155.6"/>
      <point x="758.3" y="44.099999999999994"/>
      <point x="586.7" y="44.099999999999994" type="curve" smooth="yes"/>
      <point x="382.3" y="44.099999999999994"/>
      <point x="240.5" y="189.7"/>
      <point x="240.5" y="384.6" type="curve" smooth="yes"/>
      <point x="240.5" y="522.6"/>
      <point x="323.5" y="664.4"/>
      <point x="490.4" y="721.4" type="curve"/>
      <point x="711.4" y="602.9"/>
      <point x="907.1" y="522.9"/>
    </contour>
  </outline>
</glyph>
<glyph name="nine" format="2">
  <advance width="1175.7"/>
  <unicode hex="0039"/>
  <outline>
    <contour>
      <point x="588.5" y="1504.0" type="curve" smooth="yes"/>
      <point x="286.6" y="1504.0"/>
      <point x="90.0" y="1286.1"/>
      <point x="90.0" y="968.7" type="curve" smooth="yes"/>
      <point x="90.0" y="681.5"/>
      <point x="285.3" y="500.0"/>
      <point x="525.6" y="500.0" type="curve" smooth="yes"/>
      <point x="660.3" y="500.0"/>
      <point x="797.4" y="564.6"/>
      <point x="883.3" y="697.9" type="curve"/>
      <point x="832.7" y="379.0"/>
      <point x="645.3" y="112.2"/>
      <point x="291.8" y="-8.2" type="curve"/>
      <point x="320.7" y="-66.0" type="line"/>
      <point x="751.0" y="24.599999999999998"/>
      <point x="1072.7" y="414.4"/>
      <point x="1072.7" y="894.6" type="curve" smooth="yes"/>
      <point x="1072.7" y="1186.8"/>
      <point x="938.1" y="1504.0"/>
    </contour>
    <contour>
      <point x="559.1" y="578.1" type="curve" smooth="yes"/>
      <point x="371.7" y="578.8"/>
      <point x="265.5" y="760.0"/>
      <point x="265.5" y="997.7" type="curve" smooth="yes"/>
      <point x="265.5" y="1219.5"/>
      <point x="367.5" y="1445.5"/>
      <point x="576.5" y="1445.5" type="curve" smooth="yes"/>
      <point x="848.2" y="1445.5"/>
      <point x="896.0" y="1102.4"/>
      <point x="896.0" y="905.4" type="curve" smooth="yes"/>
      <point x="896.0" y="845.0"/>
      <point x="894.7" y="784.5"/>
      <point x="892.7" y="764.7" type="curve"/>
      <point x="838.3" y="679.5"/>
      <point x="711.8" y="577.4"/>
    </contour>
  </outline>
</glyph>
<glyph name="colon" format="2">
  <advance width="523.6"/>
  <unicode hex="003A"/>
  <outline>
    <contour>
      <point x="254.2" y="778.5" type="curve" smooth="yes"/>
      <point x="311.1" y="778.5"/>
      <point x="364.7" y="825.5"/>
      <point x="364.7" y="893.0" type="curve" smooth="yes"/>
      <point x="364.7" y="943.3"/>
      <point x="336.9" y="990.3"/>
      <point x="271.4" y="990.3" type="curve" smooth="yes"/>
      <point x="213.8" y="990.3"/>
      <point x="158.9" y="941.3"/>
      <point x="158.9" y="875.8" type="curve" smooth="yes"/>
      <point x="158.9" y="816.9"/>
      <point x="201.9" y="778.5"/>
    </contour>
    <contour>
      <point x="254.2" y="-22.0" type="curve" smooth="yes"/>
      <point x="311.1" y="-22.0"/>
      <point x="364.7" y="25.0"/>
      <point x="364.7" y="92.5" type="curve" smooth="yes"/>
      <point x="364.7" y="142.8"/>
      <point x="336.9" y="189.8"/>
      <point x="271.4" y="189.8" type="curve" smooth="yes"/>
      <point x="213.8" y="189.8"/>
      <point x="158.9" y="140.8"/>
      <point x="158.9" y="75.3" type="curve" smooth="yes"/>
      <point x="158.9" y="16.4"/>
      <point x="201.9" y="-22.0"/>
    </contour>
  </outline>
</glyph>
<glyph name="less" format="2">
  <advance width="1324.0"/>
  <unicode hex="003C"/>
  <outline>
    <contour>
      <point x="1103.0" y="1157.0" type="line"/>
      <point x="157.0" y="690.4" type="line"/>
      <point x="157.0" y="608.9" type="line"/>
      <point x="1103.0" y="146.39999999999998" type="line"/>
      <point x="1103.0" y="257.1" type="line"/>
      <point x="276.4" y="650.3" type="line"/>
      <point x="1103.0" y="1048.3" type="line"/>
    </contour>
  </outline>
</glyph>
<glyph name="equal" format="2">
  <advance width="1196.6"/>
  <unicode hex="003D"/>
  <outline>
    <contour>
      <point x="1034.8" y="960.3" type="line"/>
      <point x="161.8" y="960.3" type="line"/>
      <point x="161.8" y="864.3" type="line"/>
      <point x="1034.8" y="864.3" type="line"/>
    </contour>
    <contour>
      <point x="1034.8" y="436.4" type="line"/>
      <point x="161.8" y="436.4" type="line"/>
      <point x="161.8" y="340.4" type="line"/>
      <point x="1034.8" y="340.4" type="line"/>
    </contour>
  </outline>
</glyph>
<glyph name="at" format="2">
  <advance width="2005.9"/>
  <unicode hex="0040"/>
  <outline>
    <contour>
      <point x="140.2" y="362.0" type="curve" smooth="yes"/>
      <point x="140.2" y="-187.2"/>
      <point x="429.6" y="-500.0"/>
      <point x="877.7" y="-500.0" type="curve" smooth="yes"/>
      <point x="1071.9" y="-500.0"/>
      <point x="1249.8" y="-438.7"/>
      <point x="1348.5" y="-358.0" type="curve"/>
      <point x="1325.6" y="-299.1" type="line"/>
      <point x="1232.3" y="-374.1"/>
      <point x="1054.0" y="-428.0"/>
      <point x="896.7" y="-428.0" type="curve" smooth="yes"/>
      <point x="523.0" y="-428.0"/>
      <point x="262.6" y="-118.7"/>
      <point x="262.6" y="385.0" type="curve" smooth="yes"/>
      <point x="262.6" y="1003.0"/>
      <point x="659.5" y="1432.0"/>
      <point x="1126.1" y="1432.0" type="curve" smooth="yes"/>
      <point x="1458.8" y="1432.0"/>
      <point x="1771.2" y="1223.6"/>
      <point x="1771.2" y="752.2" type="curve" smooth="yes"/>
      <point x="1771.2" y="321.0"/>
      <point x="1502.4" y="76.8"/>
      <point x="1386.3" y="76.8" type="curve" smooth="yes"/>
      <point x="1342.5" y="76.8"/>
      <point x="1315.6" y="130.6"/>
      <point x="1330.4" y="325.3" type="curve" smooth="yes"/>
      <point x="1345.1" y="517.7"/>
      <point x="1397.3" y="801.9"/>
      <point x="1431.7" y="965.0" type="curve"/>
      <point x="1367.0" y="987.4"/>
      <point x="1353.7" y="992.1"/>
      <point x="1339.9" y="995.5" type="curve" smooth="yes"/>
      <point x="1321.4" y="999.4"/>
      <point x="1312.1" y="983.4"/>
      <point x="1300.6" y="948.9" type="curve"/>
      <point x="1229.1" y="981.3"/>
      <point x="1133.8" y="999.2"/>
      <point x="1066.6" y="999.2" type="curve" smooth="yes"/>
      <point x="752.0" y="999.2"/>
      <point x="567.5" y="629.0"/>
      <point x="567.5" y="365.9" type="curve" smooth="yes"/>
      <point x="567.5" y="134.0"/>
      <point x="704.1" y="-4.9999999999999964"/>
      <point x="830.5" y="-4.9999999999999964" type="curve" smooth="yes"/>
      <point x="990.3" y="-4.9999999999999964"/>
      <point x="1127.0" y="233.3"/>
      <point x="1213.7" y="464.8" type="curve"/>
      <point x="1195.3" y="309.7"/>
      <point x="1191.4" y="192.5"/>
      <point x="1194.0" y="148.0" type="curve" smooth="yes"/>
      <point x="1199.6" y="50.0"/>
      <point x="1271.9" y="-4.9999999999999964"/>
      <point x="1342.7" y="-4.9999999999999964" type="curve" smooth="yes"/>
      <point x="1504.6" y="-4.9999999999999964"/>
      <point x="1878.9" y="254.5"/>
      <point x="1878.9" y="782.5" type="curve" smooth="yes"/>
      <point x="1878.9" y="1260.5"/>
      <point x="1582.1" y="1504.0"/>
      <point x="1174.3" y="1504.0" type="curve" smooth="yes"/>
      <point x="629.5" y="1504.0"/>
      <point x="140.2" y="1067.9"/>
    </contour>
    <contour>
      <point x="714.6" y="409.5" type="curve" smooth="yes"/>
      <point x="714.6" y="683.0"/>
      <point x="842.0" y="926.0"/>
      <point x="1020.4" y="926.0" type="curve" smooth="yes"/>
      <point x="1095.3" y="926.0"/>
      <point x="1210.1" y="881.4"/>
      <point x="1266.2" y="837.2" type="curve"/>
      <point x="1253.5" y="761.0"/>
      <point x="1230.1" y="675.4"/>
      <point x="1202.1" y="595.3" type="curve" smooth="yes"/>
      <point x="1104.1" y="311.2"/>
      <point x="959.1" y="99.0"/>
      <point x="859.0" y="99.0" type="curve" smooth="yes"/>
      <point x="770.1" y="99.0"/>
      <point x="714.6" y="233.9"/>
    </contour>
  </outline>
</glyph>
<glyph name="B" format="2">
  <advance width="1205.1"/>
  <unicode hex="0042"/>
  <anchor x="612.5" y="0.0" name="bottom"/>
  <anchor x="612.5" y="1486.0" name="top"/>
  <outline>
    <contour>
      <point x="197.1" y="78.1" type="line"/>
      <point x="40.5" y="50.99999999999999" type="line"/>
      <point x="40.5" y="0.0" type="line"/>
      <point x="271.1" y="0.0" type="line" smooth="yes"/>
      <point x="411.1" y="0.0"/>
      <point x="456.1" y="-12.0"/>
      <point x="554.1" y="-12.0" type="curve" smooth="yes"/>
      <point x="1016.1" y="-12.0"/>
      <point x="1161.0" y="205.8"/>
      <point x="1161.0" y="437.7" type="curve" smooth="yes"/>
      <point x="1161.0" y="639.2"/>
      <point x="999.7" y="783.2"/>
      <point x="759.7" y="775.2" type="curve"/>
      <point x="953.7" y="813.2"/>
      <point x="1064.8" y="983.2"/>
      <point x="1064.8" y="1163.2" type="curve" smooth="yes"/>
      <point x="1064.8" y="1376.0"/>
      <point x="881.9" y="1502.0"/>
      <point x="563.1" y="1502.0" type="curve" smooth="yes"/>
      <point x="463.1" y="1502.0"/>
      <point x="399.1" y="1486.0"/>
      <point x="279.1" y="1486.0" type="curve" smooth="yes"/>
      <point x="42.4" y="1486.0" type="line"/>
      <point x="42.4" y="1435.0" type="line"/>
      <point x="197.1" y="1407.4" type="line"/>
    </contour>
    <contour>
      <point x="356.9" y="807.1" type="curve"/>
      <point x="357.6" y="1426.0" type="line"/>
      <point x="399.0" y="1428.8"/>
      <point x="449.4" y="1440.1"/>
      <point x="551.6" y="1440.1" type="curve" smooth="yes"/>
      <point x="788.2" y="1440.1"/>
      <point x="896.0" y="1346.2"/>
      <point x="896.0" y="1146.9" type="curve" smooth="yes"/>
      <point x="896.0" y="925.0"/>
      <point x="797.2" y="805.1"/>
      <point x="605.0" y="805.1" type="curve" smooth="yes"/>
      <point x="550.9" y="805.1"/>
      <point x="421.7" y="803.1"/>
    </contour>
    <contour>
      <point x="356.2" y="74.1" type="curve"/>
      <point x="356.9" y="729.2" type="line"/>
      <point x="420.4" y="733.9"/>
      <point x="556.2" y="732.6"/>
      <point x="631.7" y="732.6" type="curve" smooth="yes"/>
      <point x="870.1" y="732.6"/>
      <point x="983.1" y="622.5"/>
      <point x="983.1" y="414.7" type="curve" smooth="yes"/>
      <point x="983.1" y="207.2"/>
      <point x="895.7" y="51.099999999999994"/>
      <point x="568.2" y="51.099999999999994" type="curve" smooth="yes"/>
      <point x="496.0" y="51.099999999999994"/>
      <point x="411.0" y="57.4"/>
    </contour>
  </outline>
</glyph>
<glyph name="E" format="2">
  <advance width="1183.0"/>
  <unicode hex="0045"/>
  <anchor x="597.4" y="0.0" name="bottom"/>
  <anchor x="999.0" y="20.0" name="ogonek"/>
  <anchor x="608.5" y="1486.0" name="top"/>
  <anchor x="22.5" y="1486.0" name="topleft"/>
  <outline>
    <contour>
      <point x="190.79999999999998" y="78.1" type="line"/>
      <point x="40.5" y="50.99999999999999" type="line"/>
      <point x="40.5" y="0.0" type="line"/>
      <point x="1088.1" y="0.0" type="line"/>
      <point x="1150.1" y="338.0" type="line"/>
      <point x="1070.9" y="363.8" type="line"/>
      <point x="954.9" y="86.5" type="line"/>
      <point x="349.2" y="64.19999999999999" type="line"/>
      <point x="349.2" y="734.1" type="line"/>
      <point x="726.3" y="719.0" type="line"/>
      <point x="759.3" y="542.0" type="line"/>
      <point x="827.1" y="542.0" type="line"/>
      <point x="827.1" y="984.0" type="line"/>
      <point x="759.3" y="984.0" type="line"/>
      <point x="726.3" y="811.0" type="line"/>
      <point x="349.2" y="793.8" type="line"/>
      <point x="349.2" y="1422.7" type="line"/>
      <point x="871.2" y="1410.6" type="line"/>
      <point x="951.1" y="1192.0" type="line"/>
      <point x="1026.1" y="1192.0" type="line"/>
      <point x="998.1" y="1486.0" type="line"/>
      <point x="42.4" y="1486.0" type="line"/>
      <point x="42.4" y="1435.0" type="line"/>
      <point x="190.79999999999998" y="1407.4" type="line"/>
    </contour>
  </outline>
</glyph>
<glyph name="H" format="2">
  <advance width="1439.9"/>
  <unicode hex="0048"/>
  <anchor x="737.8" y="0.0" name="bottom"/>
  <anchor x="1402.1" y="0.0" name="bottomright"/>
  <anchor x="720.3" y="743.0" name="center"/>
  <anchor x="721.3" y="1486.0" name="top"/>
  <anchor x="-3.8000000000000007" y="1486.0" name="topleft"/>
  <outline>
    <contour>
      <point x="189.0" y="78.1" type="line"/>
      <point x="40.5" y="50.99999999999999" type="line"/>
      <point x="40.5" y="0.0" type="line"/>
      <point x="501.7" y="0.0" type="line"/>
      <point x="501.7" y="50.99999999999999" type="line"/>
      <point x="347.4" y="78.1" type="line"/>
      <point x="347.4" y="725.4" type="line"/>
      <point x="1092.5" y="725.4" type="line"/>
      <point x="1092.5" y="78.1" type="line"/>
      <point x="940.0" y="51.0" type="line"/>
      <point x="940.0" y="0.0" type="line"/>
      <point x="1399.4" y="0.0" type="line"/>
      <point x="1399.4" y="51.0" type="line"/>
      <point x="1250.9" y="78.1" type="line"/>
      <point x="1250.9" y="1407.4" type="line"/>
      <point x="1396.3" y="1435.0" type="line"/>
      <point x="1396.3" y="1486.0" type="line"/>
      <point x="940.6" y="1486.0" type="line"/>
      <point x="940.6" y="1435.0" type="line"/>
      <point x="1092.5" y="1407.4" type="line"/>
      <point x="1092.5" y="800.6" type="line"/>
      <point x="347.4" y="800.6" type="line"/>
      <point x="347.4" y="1407.4" type="line"/>
      <point x="501.1" y="1435.0" type="line"/>
      <point x="501.1" y="1486.0" type="line"/>
      <point x="41.8" y="1486.0" type="line"/>
      <point x="41.8" y="1435.0" type="line"/>
      <point x="189.0" y="1407.4" type="line"/>
    </contour>
  </outline>
</glyph>
<glyph name="I" format="2">
  <advance width="548.6"/>
  <unicode hex="0049"/>
  <anchor x="275.1" y="0.0" name="bottom"/>
  <anchor x="303.7" y="20.0" name="ogonek"/>
  <anchor x="275.1" y="1486.0" name="top"/>
  <anchor x="6.699999999999999" y="1486.0" name="topleft"/>
  <outline>
    <contour>
      <point x="196.0" y="78.1" type="line"/>
      <point x="41.900000000000006" y="51.0" type="line"/>
      <point x="41.900000000000006" y="0.0" type="line"/>
      <point x="506.7" y="0.0" type="line"/>
      <point x="506.7" y="50.4" type="line"/>
      <point x="353.3" y="78.1" type="line"/>
      <point x="353.3" y="1407.4" type="line"/>
      <point x="506.7" y="1435.0" type="line"/>
      <point x="506.7" y="1486.0" type="line"/>
      <point x="41.900000000000006" y="1486.0" type="line"/>
      <point x="41.900000000000006" y="1435.0" type="line"/>
      <point x="196.0" y="1407.4" type="line"/>
    </contour>
  </outline>
</glyph>
<glyph name="J" format="2">
  <advance width="548.6"/>
  <unicode hex="004A"/>
  <anchor x="265.0" y="1486.0" name="top"/>
  <outline>
    <contour>
      <point x="-98.69999999999999" y="-292.9" type="curve"/>
      <point x="-54.699999999999996" y="-346.0" type="line"/>
      <point x="117.30000000000001" y="-314.0"/>
      <point x="287.0" y="-175.4"/>
      <point x="328.8" y="39.2" type="curve" smooth="yes"/>
      <point x="353.1" y="163.2"/>
      <point x="348.1" y="331.5"/>
      <point x="348.1" y="498.2" type="curve" smooth="yes"/>
      <point x="348.1" y="1406.8" type="line"/>
      <point x="498.1" y="1435.0" type="line"/>
      <point x="498.1" y="1486.0" type="line"/>
      <point x="27.600000000000005" y="1486.0" type="line"/>
      <point x="27.600000000000005" y="1435.0" type="line"/>
      <point x="189.70000000000002" y="1406.8" type="line"/>
      <point x="189.70000000000002" y="506.0" type="line" smooth="yes"/>
      <point x="189.70000000000002" y="208.0"/>
      <point x="185.70000000000002" y="96.0"/>
      <point x="153.9" y="-18.0" type="curve" smooth="yes"/>
      <point x="114.7" y="-160.4"/>
      <point x="19.300000000000004" y="-260.9"/>
    </contour>
  </outline>
</glyph>
<glyph name="L" format="2">
  <advance width="1095.5"/>
  <unicode hex="004C"/>
  <anchor x="631.7" y="0.0" name="bottom"/>
  <anchor x="623.9" y="744.0" name="center"/>
  <anchor x="353.9" y="1486.0" name="top"/>
  <anchor x="836.9" y="1110.0" name="topright"/>
  <outline>
    <contour>
      <point x="190.8" y="78.1" type="line"/>
      <point x="40.5" y="51.0" type="line"/>
      <point x="40.5" y="0.0" type="line"/>
      <point x="1008.9" y="0.0" type="line"/>
      <point x="1082.9" y="416.0" type="line"/>
      <point x="1004.4" y="432.0" type="line"/>
      <point x="876.3" y="99.7" type="line"/>
      <point x="349.2" y="75.3" type="line"/>
      <point x="349.9" y="1407.4" type="line"/>
      <point x="521.9" y="1435.0" type="line"/>
      <point x="521.9" y="1486.0" type="line"/>
      <point x="42.4" y="1486.0" type="line"/>
      <point x="42.4" y="1435.0" type="line"/>
      <point x="190.8" y="1407.4" type="line"/>
    </contour>
  </outline>
</glyph>
<glyph name="M" format="2">
  <advance width="1794.8"/>
  <unicode hex="004D"/>
  <anchor x="903.3" y="0.0" name="bottom"/>
  <anchor x="1811.4" y="0.0" name="bottomright"/>
  <anchor x="898.2" y="1486.0" name="top"/>
  <outline>
    <contour>
      <point x="141.2" y="73.2" type="line"/>
      <point x="-16.200000000000003" y="51.0" type="line"/>
      <point x="-16.200000000000003" y="0.0" type="line"/>
      <point x="438.3" y="0.0" type="line"/>
      <point x="438.3" y="51.0" type="line"/>
      <point x="256.3" y="73.2" type="line"/>
      <point x="356.2" y="1016.0" type="line"/>
      <point x="399.2" y="1418.1" type="line"/>
      <point x="517.2" y="1019.6" type="line"/>
      <point x="803.6" y="72.0" type="line"/>
      <point x="919.8" y="72.0" type="line"/>
      <point x="1242.7" y="1070.0" type="line"/>
      <point x="1340.5" y="1418.1" type="line"/>
      <point x="1378.4" y="1016.0" type="line"/>
      <point x="1477.2" y="73.2" type="line"/>
      <point x="1299.6" y="51.0" type="line"/>
      <point x="1299.6" y="0.0" type="line"/>
      <point x="1811.0" y="0.0" type="line"/>
      <point x="1811.0" y="51.0" type="line"/>
      <point x="1645.1" y="75.2" type="line"/>
      <point x="1478.7" y="1404.6" type="line"/>
      <point x="1650.6" y="1435.7" type="line"/>
      <point x="1650.6" y="1486.0" type="line"/>
      <point x="1257.3" y="1486.0" type="line"/>
      <point x="981.3" y="562.0" type="line"/>
      <point x="897.9" y="225.4" type="line"/>
      <point x="811.3" y="562.0" type="line"/>
      <point x="541.6" y="1486.0" type="line"/>
      <point x="128.8" y="1486.0" type="line"/>
      <point x="128.8" y="1435.7" type="line"/>
      <point x="314.5" y="1404.6" type="line"/>
    </contour>
  </outline>
</glyph>
<glyph name="N" format="2">
  <advance width="1421.7"/>
  <unicode hex="004E"/>
  <anchor x="722.1" y="0.0" name="bottom"/>
  <anchor x="722.3" y="1486.0" name="top"/>
  <outline>
    <contour>
      <point x="191.9" y="78.7" type="line"/>
      <point x="37.499999999999986" y="50.99999999999999" type="line"/>
      <point x="37.499999999999986" y="0.0" type="line"/>
      <point x="457.0" y="0.0" type="line"/>
      <point x="457.0" y="50.99999999999999" type="line"/>
      <point x="297.4" y="78.1" type="line"/>
      <point x="281.3" y="1335.9" type="line"/>
      <point x="413.1" y="1106.3" type="line"/>
      <point x="1108.1" y="0.0" type="line"/>
      <point x="1237.3" y="0.0" type="line"/>
      <point x="1250.6" y="1406.7" type="line"/>
      <point x="1399.2" y="1435.0" type="line"/>
      <point x="1399.2" y="1486.0" type="line"/>
      <point x="990.8" y="1486.0" type="line"/>
      <point x="990.8" y="1435.0" type="line"/>
      <point x="1145.8" y="1406.7" type="line"/>
      <point x="1159.1" y="171.1" type="line"/>
      <point x="1027.6" y="419.4" type="line"/>
      <point x="356.7" y="1486.0" type="line"/>
      <point x="50.8" y="1486.0" type="line"/>
      <point x="50.8" y="1435.0" type="line"/>
      <point x="105.2" y="1425.9"/>
      <point x="183.7" y="1397.6"/>
      <point x="202.4" y="1380.1" type="curve"/>
    </contour>
  </outline>
</glyph>
<glyph name="P" format="2">
  <advance width="1136.7"/>
  <unicode hex="0050"/>
  <anchor x="349.70000000000005" y="0.0" name="bottom"/>
  <anchor x="592.4" y="1486.0" name="top"/>
  <outline>
    <contour>
      <point x="190.1" y="78.8" type="line"/>
      <point x="40.5" y="51.0" type="line"/>
      <point x="40.5" y="0.0" type="line"/>
      <point x="572.6" y="0.0" type="line"/>
      <point x="572.6" y="51.0" type="line"/>
      <point x="348.5" y="79.4" type="line"/>
      <point x="348.5" y="620.8" type="line"/>
      <point x="380.5" y="614.7"/>
      <point x="506.3" y="607.9"/>
      <point x="556.3" y="608.6" type="curve" smooth="yes"/>
      <point x="912.1" y="615.6"/>
      <point x="1099.6" y="785.4"/>
      <point x="1099.6" y="1080.7" type="curve" smooth="yes"/>
      <point x="1099.6" y="1333.5"/>
      <point x="977.7" y="1501.4"/>
      <point x="592.7" y="1501.4" type="curve" smooth="yes"/>
      <point x="468.4" y="1501.4"/>
      <point x="395.0" y="1486.0"/>
      <point x="272.1" y="1486.0" type="curve" smooth="yes"/>
      <point x="44.800000000000004" y="1486.0" type="line"/>
      <point x="44.800000000000004" y="1435.0" type="line"/>
      <point x="190.1" y="1407.4" type="line"/>
    </contour>
    <contour>
      <point x="348.5" y="692.2" type="curve"/>
      <point x="348.5" y="1420.7" type="line"/>
      <point x="394.0" y="1420.7"/>
      <point x="496.4" y="1437.6"/>
      <point x="570.7" y="1437.6" type="curve" smooth="yes"/>
      <point x="859.9" y="1437.6"/>
      <point x="930.6" y="1313.8"/>
      <point x="930.6" y="1080.7" type="curve" smooth="yes"/>
      <point x="930.6" y="799.8"/>
      <point x="812.7" y="679.3"/>
      <point x="552.6" y="672.3" type="curve" smooth="yes"/>
      <point x="480.6" y="670.9"/>
      <point x="395.6" y="680.6"/>
    </contour>
  </outline>
</glyph>
<glyph name="R" format="2">
  <advance width="1249.5"/>
  <unicode hex="0052"/>
  <anchor x="694.5" y="0.0" name="bottom"/>
  <anchor x="634.5" y="1486.0" name="top"/>
  <outline>
    <contour>
      <point x="40.5" y="0.0" type="line"/>
      <point x="559.4" y="0.0" type="line"/>
      <point x="559.4" y="51.0" type="line"/>
      <point x="354.1" y="78.8" type="line"/>
      <point x="354.1" y="673.2" type="line"/>
      <point x="392.1" y="671.2"/>
      <point x="552.4" y="670.5"/>
      <point x="614.4" y="670.5" type="curve"/>
      <point x="774.8" y="650.4"/>
      <point x="950.6" y="0.0"/>
      <point x="1038.0" y="0.0" type="curve" smooth="yes"/>
      <point x="1256.7" y="0.0" type="line"/>
      <point x="1256.7" y="50.4" type="line"/>
      <point x="1169.9" y="86.4" type="line"/>
      <point x="1083.1" y="125.2"/>
      <point x="920.6" y="641.6"/>
      <point x="758.8" y="689.4" type="curve"/>
      <point x="959.3" y="737.7"/>
      <point x="1084.0" y="912.9"/>
      <point x="1084.0" y="1113.5" type="curve" smooth="yes"/>
      <point x="1084.0" y="1344.7"/>
      <point x="963.8" y="1502.0"/>
      <point x="580.1" y="1502.0" type="curve" smooth="yes"/>
      <point x="472.4" y="1502.0"/>
      <point x="360.7" y="1486.0"/>
      <point x="260.1" y="1486.0" type="curve" smooth="yes"/>
      <point x="44.8" y="1486.0" type="line"/>
      <point x="44.8" y="1436.2" type="line"/>
      <point x="197.1" y="1408.0" type="line"/>
      <point x="197.1" y="78.8" type="line"/>
      <point x="40.5" y="51.0" type="line"/>
    </contour>
    <contour>
      <point x="569.5" y="734.9" type="curve" smooth="yes"/>
      <point x="521.5" y="734.9"/>
      <point x="421.3" y="739.2"/>
      <point x="354.1" y="747.4" type="curve"/>
      <point x="354.1" y="1419.3" type="line"/>
      <point x="390.5" y="1422.6"/>
      <point x="456.79999999999995" y="1437.6"/>
      <point x="562.5" y="1437.6" type="curve" smooth="yes"/>
      <point x="827.3" y="1437.6"/>
      <point x="912.8" y="1319.5"/>
      <point x="912.8" y="1105.1" type="curve" smooth="yes"/>
      <point x="912.8" y="858.9"/>
      <point x="804.2" y="734.9"/>
    </contour>
  </outline>
</glyph>
<glyph name="S" format="2">
  <advance width="1059.8"/>
  <unicode hex="0053"/>
  <anchor x="509.4" y="0.0" name="bottom"/>
  <anchor x="572.4" y="1486.0" name="top"/>
  <outline>
    <contour>
      <point x="513.9" y="-22.0" type="curve" smooth="yes"/>
      <point x="859.0" y="-22.0"/>
      <point x="1003.2" y="199.0"/>
      <point x="1003.2" y="384.0" type="curve" smooth="yes"/>
      <point x="1003.2" y="653.4"/>
      <point x="766.3" y="745.8"/>
      <point x="569.6" y="837.5" type="curve" smooth="yes"/>
      <point x="359.9" y="935.2"/>
      <point x="235.9" y="1002.4"/>
      <point x="235.9" y="1174.4" type="curve" smooth="yes"/>
      <point x="235.9" y="1336.4"/>
      <point x="357.6" y="1436.0"/>
      <point x="558.8" y="1436.0" type="curve" smooth="yes"/>
      <point x="690.3" y="1436.0"/>
      <point x="766.6" y="1392.2"/>
      <point x="794.6" y="1368.2" type="curve"/>
      <point x="841.1" y="1132.8" type="line"/>
      <point x="927.8" y="1132.8" type="line"/>
      <point x="939.8" y="1430.0" type="line"/>
      <point x="894.4" y="1433.0"/>
      <point x="783.2" y="1504.1"/>
      <point x="571.6" y="1502.0" type="curve" smooth="yes"/>
      <point x="289.8" y="1499.2"/>
      <point x="103.8" y="1335.3"/>
      <point x="103.8" y="1132.3" type="curve" smooth="yes"/>
      <point x="103.8" y="867.3"/>
      <point x="332.9" y="770.3"/>
      <point x="499.2" y="699.2" type="curve" smooth="yes"/>
      <point x="700.5" y="613.4"/>
      <point x="862.1" y="532.1"/>
      <point x="862.1" y="348.4" type="curve" smooth="yes"/>
      <point x="862.1" y="178.4"/>
      <point x="756.2" y="45.199999999999996"/>
      <point x="521.1" y="45.199999999999996" type="curve" smooth="yes"/>
      <point x="381.0" y="45.199999999999996"/>
      <point x="298.0" y="89.2"/>
      <point x="224.7" y="140.2" type="curve"/>
      <point x="180.7" y="392.4" type="line"/>
      <point x="88.6" y="392.4" type="line"/>
      <point x="72.6" y="70.0" type="line"/>
      <point x="134.6" y="64.0"/>
      <point x="270.4" y="-22.0"/>
    </contour>
  </outline>
</glyph>
<glyph name="T" format="2">
  <advance width="1343.8"/>
  <unicode hex="0054"/>
  <anchor x="673.3" y="0.0" name="bottom"/>
  <anchor x="1025.9" y="0.0" name="bottomright"/>
  <anchor x="671.5" y="705.0" name="center"/>
  <anchor x="672.4" y="1486.0" name="top"/>
  <outline>
    <contour>
      <point x="591.5" y="78.8" type="line"/>
      <point x="345.7" y="51.0" type="line"/>
      <point x="345.7" y="0.0" type="line"/>
      <point x="1023.7" y="0.0" type="line"/>
      <point x="1023.7" y="51.0" type="line"/>
      <point x="752.3" y="78.8" type="line"/>
      <point x="752.3" y="1421.9" type="line"/>
      <point x="1116.7" y="1403.6" type="line"/>
      <point x="1212.2" y="978.0" type="line"/>
      <point x="1299.8" y="978.0" type="line"/>
      <point x="1258.8" y="1486.0" type="line"/>
      <point x="86.6" y="1486.0" type="line"/>
      <point x="44.0" y="978.0" type="line"/>
      <point x="131.6" y="978.0" type="line"/>
      <point x="228.7" y="1403.6" type="line"/>
      <point x="591.5" y="1421.9" type="line"/>
    </contour>
  </outline>
</glyph>
<glyph name="U" format="2">
  <advance width="1373.1"/>
  <unicode hex="0055"/>
  <anchor x="737.2" y="0.0" name="bottom"/>
  <anchor x="840.0" y="20.0" name="ogonek"/>
  <anchor x="737.1" y="1486.0" name="top"/>
  <anchor x="1412.2" y="1486.0" name="topright"/>
  <outline>
    <contour>
      <point x="734.2" y="-18.8" type="curve" smooth="yes"/>
      <point x="1030.5" y="-18.8"/>
      <point x="1206.1" y="175.3"/>
      <point x="1209.6" y="610.0" type="curve" smooth="yes"/>
      <point x="1216.6" y="1408.1" type="line"/>
      <point x="1355.3" y="1435.0" type="line"/>
      <point x="1355.3" y="1486.0" type="line"/>
      <point x="962.4" y="1486.0" type="line"/>
      <point x="962.4" y="1435.0" type="line"/>
      <point x="1117.9" y="1406.1" type="line"/>
      <point x="1121.4" y="602.0" type="line" smooth="yes"/>
      <point x="1122.8" y="231.2"/>
      <point x="977.5" y="47.0"/>
      <point x="733.4" y="47.0" type="curve" smooth="yes"/>
      <point x="499.4" y="47.0"/>
      <point x="343.3" y="148.7"/>
      <point x="343.3" y="583.0" type="curve" smooth="yes"/>
      <point x="343.3" y="1408.1" type="line"/>
      <point x="515.3" y="1435.0" type="line"/>
      <point x="515.3" y="1486.0" type="line"/>
      <point x="30.200000000000003" y="1486.0" type="line"/>
      <point x="30.200000000000003" y="1435.0" type="line"/>
      <point x="180.2" y="1408.1" type="line"/>
      <point x="180.2" y="594.7" type="line" smooth="yes"/>
      <point x="180.2" y="152.0"/>
      <point x="362.2" y="-18.8"/>
    </contour>
  </outline>
</glyph>
<glyph name="V" format="2">
  <advance width="1288.4"/>
  <unicode hex="0056"/>
  <outline>
    <contour>
      <point x="-27.1" y="1436.4" type="line"/>
      <point x="105.3" y="1405.3" type="line"/>
      <point x="592.7" y="-16.0" type="line"/>
      <point x="721.2" y="-16.0" type="line"/>
      <point x="1183.4" y="1405.3" type="line"/>
      <point x="1318.4" y="1436.4" type="line"/>
      <point x="1318.4" y="1486.0" type="line"/>
      <point x="925.1" y="1486.0" type="line"/>
      <point x="925.1" y="1436.4" type="line"/>
      <point x="1072.5" y="1405.3" type="line"/>
      <point x="731.3" y="252.8" type="line"/>
      <point x="692.4" y="79.0" type="line"/>
      <point x="649.7" y="251.60000000000002" type="line"/>
      <point x="277.0" y="1405.3" type="line"/>
      <point x="433.0" y="1436.4" type="line"/>
      <point x="433.0" y="1486.0" type="line"/>
      <point x="-27.1" y="1486.0" type="line"/>
    </contour>
  </outline>
</glyph>
<glyph name="W" format="2">
  <advance width="1883.3"/>
  <unicode hex="0057"/>
  <anchor x="961.0" y="0.0" name="bottom"/>
  <anchor x="952.5" y="1486.0" name="top"/>
  <outline>
    <contour>
      <point x="-33.0" y="1437.1" type="line"/>
      <point x="108.4" y="1405.4" type="line"/>
      <point x="522.0" y="-14.2" type="line"/>
      <point x="658.9" y="-14.2" type="line"/>
      <point x="960.1" y="1023.4" type="line"/>
      <point x="1244.9" y="-14.2" type="line"/>
      <point x="1382.8" y="-14.2" type="line"/>
      <point x="1792.8" y="1405.3" type="line"/>
      <point x="1916.3" y="1435.7" type="line"/>
      <point x="1916.3" y="1486.0" type="line"/>
      <point x="1493.4" y="1486.0" type="line"/>
      <point x="1493.4" y="1435.7" type="line"/>
      <point x="1683.8" y="1405.3" type="line"/>
      <point x="1382.8" y="274.7" type="line"/>
      <point x="1343.4" y="63.5" type="line"/>
      <point x="1305.3" y="269.8" type="line"/>
      <point x="1014.9" y="1413.7" type="line"/>
      <point x="1191.9" y="1435.7" type="line"/>
      <point x="1191.9" y="1486.0" type="line"/>
      <point x="706.9" y="1486.0" type="line"/>
      <point x="706.9" y="1435.7" type="line"/>
      <point x="852.1" y="1413.7" type="line"/>
      <point x="915.2" y="1191.1" type="line"/>
      <point x="657.7" y="274.7" type="line"/>
      <point x="617.5" y="70.69999999999999" type="line"/>
      <point x="583.0" y="270.5" type="line"/>
      <point x="272.9" y="1406.0" type="line"/>
      <point x="445.1" y="1436.4" type="line"/>
      <point x="445.1" y="1486.0" type="line"/>
      <point x="-33.0" y="1486.7" type="line"/>
    </contour>
  </outline>
</glyph>
<glyph name="X" format="2">
  <advance width="1326.7"/>
  <unicode hex="0058"/>
  <anchor x="1305.7" y="0.0" name="bottomright"/>
  <outline>
    <contour>
      <point x="172.6" y="74.6" type="line"/>
      <point x="26.6" y="51.0" type="line"/>
      <point x="28.0" y="0.0" type="line"/>
      <point x="474.2" y="0.0" type="line"/>
      <point x="472.8" y="51.0" type="line"/>
      <point x="297.6" y="76.69999999999999" type="line"/>
      <point x="632.9" y="665.8" type="line"/>
      <point x="969.9" y="74.6" type="line"/>
      <point x="797.4" y="51.0" type="line"/>
      <point x="798.8" y="0.0" type="line"/>
      <point x="1305.7" y="0.0" type="line"/>
      <point x="1304.3" y="51.0" type="line"/>
      <point x="1156.7" y="76.69999999999999" type="line"/>
      <point x="724.6" y="772.7" type="line"/>
      <point x="1135.6" y="1409.6" type="line"/>
      <point x="1281.7" y="1435.0" type="line"/>
      <point x="1281.7" y="1486.0" type="line"/>
      <point x="848.5" y="1486.0" type="line"/>
      <point x="848.5" y="1435.0" type="line"/>
      <point x="1015.9" y="1408.1" type="line"/>
      <point x="681.8" y="838.7" type="line"/>
      <point x="356.3" y="1409.6" type="line"/>
      <point x="529.5" y="1435.0" type="line"/>
      <point x="529.5" y="1486.0" type="line"/>
      <point x="31.799999999999997" y="1486.0" type="line"/>
      <point x="31.799999999999997" y="1435.0" type="line"/>
      <point x="175.5" y="1407.5" type="line"/>
      <point x="588.2" y="736.6" type="line"/>
    </contour>
  </outline>
</glyph>
<glyph name="Y" format="2">
  <advance width="1186.2"/>
  <unicode hex="0059"/>
  <anchor x="601.5" y="0.0" name="bottom"/>
  <anchor x="602.1" y="547.0" name="center"/>
  <anchor x="608.5" y="1486.0" name="top"/>
  <anchor x="-7.599999999999994" y="1486.0" name="topleft"/>
  <outline>
    <contour>
      <point x="523.8" y="79.5" type="line"/>
      <point x="307.4" y="51.0" type="line"/>
      <point x="307.4" y="0.0" type="line"/>
      <point x="896.0" y="0.0" type="line"/>
      <point x="896.0" y="51.0" type="line"/>
      <point x="679.2" y="80.1" type="line"/>
      <point x="679.2" y="583.1" type="line"/>
      <point x="1085.4" y="1415.8" type="line"/>
      <point x="1213.2" y="1435.7" type="line"/>
      <point x="1213.2" y="1486.0" type="line"/>
      <point x="811.4" y="1486.0" type="line"/>
      <point x="811.4" y="1435.7" type="line"/>
      <point x="972.4" y="1414.4" type="line"/>
      <point x="685.1" y="801.5" type="line"/>
      <point x="621.1" y="646.4" type="line"/>
      <point x="559.6" y="808.5" type="line"/>
      <point x="267.5" y="1414.4" type="line"/>
      <point x="431.3" y="1435.7" type="line"/>
      <point x="431.3" y="1486.0" type="line"/>
      <point x="-26.4" y="1485.3" type="line"/>
      <point x="-26.4" y="1435.0" type="line"/>
      <point x="93.4" y="1413.8" type="line"/>
      <point x="523.8" y="581.1" type="line"/>
    </contour>
  </outline>
</glyph>
<glyph name="Z" format="2">
  <advance width="1246.8"/>
  <unicode hex="005A"/>
  <anchor x="627.0" y="0.0" name="bottom"/>
  <anchor x="663.0" y="1486.0" name="top"/>
  <outline>
    <contour>
      <point x="847.1" y="1246.5" type="line"/>
      <point x="50.0" y="46.5" type="line"/>
      <point x="81.19999999999999" y="0.0" type="line"/>
      <point x="1128.2" y="0.0" type="line"/>
      <point x="1184.6" y="408.0" type="line"/>
      <point x="1101.2" y="428.6" type="line"/>
      <point x="986.5" y="111.9" type="line"/>
      <point x="232.9" y="69.5" type="line"/>
      <point x="369.9" y="254.0" type="line"/>
      <point x="1159.1" y="1441.8" type="line"/>
      <point x="1129.8" y="1487.8" type="line"/>
      <point x="194.1" y="1487.8" type="line"/>
      <point x="152.1" y="1125.8" type="line"/>
      <point x="230.1" y="1115.8" type="line"/>
      <point x="330.9" y="1396.8" type="line"/>
      <point x="977.9" y="1418.2" type="line"/>
    </contour>
  </outline>
</glyph>
<glyph name="bracketleft" format="2">
  <advance width="725.3"/>
  <unicode hex="005B"/>
  <outline>
    <contour>
      <point x="169.3" y="1468.2" type="curve"/>
      <point x="169.3" y="-134.2" type="line" smooth="yes"/>
      <point x="169.3" y="-250.2"/>
      <point x="209.3" y="-274.0"/>
      <point x="319.3" y="-274.0" type="curve" smooth="yes"/>
      <point x="400.1" y="-274.0"/>
      <point x="478.9" y="-258.0"/>
      <point x="557.3" y="-238.0" type="curve"/>
      <point x="557.3" y="-187.8" type="line"/>
      <point x="285.3" y="-187.8" type="line"/>
      <point x="285.3" y="1523.8" type="line"/>
      <point x="557.3" y="1523.8" type="line"/>
      <point x="557.3" y="1574.0" type="line"/>
      <point x="484.9" y="1590.0"/>
      <point x="406.1" y="1608.0"/>
      <point x="319.3" y="1608.0" type="curve" smooth="yes"/>
      <point x="209.3" y="1608.0"/>
      <point x="169.3" y="1584.2"/>
    </contour>
  </outline>
</glyph>
<glyph name="backslash" format="2">
  <advance width="775.1999999999999"/>
  <unicode hex="005C"/>
  <outline>
    <contour>
      <point x="712.1" y="-354.0" type="line"/>
      <point x="152.1" y="1562.0" type="line"/>
      <point x="46.9" y="1562.0" type="line"/>
      <point x="606.9" y="-354.0" type="line"/>
    </contour>
  </outline>
</glyph>
<glyph name="bracketright" format="2">
  <advance width="725.3"/>
  <unicode hex="005D"/>
  <outline>
    <contour>
      <point x="556.0" y="1468.2" type="line"/>
      <point x="556.0" y="1584.2"/>
      <point x="516.0" y="1608.0"/>
      <point x="406.0" y="1608.0" type="curve" smooth="yes"/>
      <point x="319.2" y="1608.0"/>
      <point x="240.4" y="1590.0"/>
      <point x="168.0" y="1574.0" type="curve"/>
      <point x="168.0" y="1523.8" type="line"/>
      <point x="440.0" y="1523.8" type="line"/>
      <point x="440.0" y="-187.8" type="line"/>
      <point x="168.0" y="-187.8" type="line"/>
      <point x="168.0" y="-238.0" type="line"/>
      <point x="246.4" y="-258.0"/>
      <point x="325.2" y="-274.0"/>
      <point x="406.0" y="-274.0" type="curve" smooth="yes"/>
      <point x="516.0" y="-274.0"/>
      <point x="556.0" y="-250.2"/>
      <point x="556.0" y="-134.2" type="curve" smooth="yes"/>
    </contour>
  </outline>
</glyph>
<glyph name="asciicircum" format="2">
  <advance width="1263.4"/>
  <unicode hex="005E"/>
  <outline>
    <contour>
      <point x="683.0" y="1496.0" type="line"/>
      <point x="575.0" y="1496.0" type="line"/>
      <point x="173.0" y="266.7" type="line"/>
      <point x="275.7" y="266.7" type="line"/>
      <point x="631.1" y="1338.6" type="line"/>
      <point x="980.1" y="266.7" type="line"/>
      <point x="1088.4" y="266.7" type="line"/>
    </contour>
  </outline>
</glyph>
<glyph name="a" format="2">
  <advance width="932.4"/>
  <unicode hex="0061"/>
  <anchor x="437.6" y="0.0" name="bottom"/>
  <anchor x="762.7" y="20.0" name="ogonek"/>
  <anchor x="449.7" y="1110.0" name="top"/>
  <outline>
    <contour>
      <point x="34.1" y="258.4" type="curve" smooth="yes"/>
      <point x="34.1" y="67.0"/>
      <point x="179.6" y="-16.4"/>
      <point x="321.2" y="-16.4" type="curve" smooth="yes"/>
      <point x="482.2" y="-16.4"/>
      <point x="607.2" y="110.0"/>
      <point x="646.7" y="161.7" type="curve"/>
      <point x="646.7" y="66.0" type="line" smooth="yes"/>
      <point x="646.7" y="2.0000000000000018"/>
      <point x="678.3" y="-16.6"/>
      <point x="737.7" y="-16.6" type="curve" smooth="yes"/>
      <point x="799.1" y="-16.6"/>
      <point x="857.3" y="0.0"/>
      <point x="899.9" y="13.4" type="curve"/>
      <point x="899.9" y="58.7" type="line"/>
      <point x="788.5" y="58.7" type="line"/>
      <point x="788.5" y="704.7" type="line" smooth="yes"/>
      <point x="788.5" y="944.1"/>
      <point x="711.3" y="1065.5"/>
      <point x="480.3" y="1065.5" type="curve" smooth="yes"/>
      <point x="305.1" y="1065.5"/>
      <point x="150.5" y="970.3"/>
      <point x="86.5" y="927.9" type="curve"/>
      <point x="118.6" y="872.8" type="line"/>
      <point x="198.7" y="920.0"/>
      <point x="310.2" y="967.6"/>
      <point x="448.0" y="967.6" type="curve" smooth="yes"/>
      <point x="608.7" y="967.6"/>
      <point x="640.4" y="854.5"/>
      <point x="640.4" y="699.9" type="curve" smooth="yes"/>
      <point x="640.4" y="608.6" type="line"/>
      <point x="374.8" y="606.8"/>
      <point x="34.1" y="512.5"/>
    </contour>
    <contour>
      <point x="371.4" y="77.8" type="curve" smooth="yes"/>
      <point x="275.3" y="77.8"/>
      <point x="192.5" y="149.2"/>
      <point x="192.5" y="277.0" type="curve" smooth="yes"/>
      <point x="192.5" y="448.6"/>
      <point x="386.8" y="544.8"/>
      <point x="640.4" y="545.4" type="curve"/>
      <point x="640.4" y="207.5" type="line"/>
      <point x="563.9" y="138.5"/>
      <point x="476.6" y="77.8"/>
    </contour>
  </outline>
</glyph>
<glyph name="b" format="2">
  <advance width="1056.6"/>
  <unicode hex="0062"/>
  <anchor x="460.5" y="0.0" name="bottom"/>
  <anchor x="644.5" y="1110.0" name="top"/>
  <outline>
    <contour>
      <point x="-14.899999999999999" y="1564.3" type="line"/>
      <point x="131.9" y="1545.6" type="line"/>
      <point x="131.9" y="54.0" type="line"/>
      <point x="164.9" y="46.199999999999996"/>
      <point x="310.7" y="-22.0"/>
      <point x="495.5" y="-22.0" type="curve" smooth="yes"/>
      <point x="789.5" y="-22.0"/>
      <point x="1004.6" y="229.5"/>
      <point x="1004.6" y="561.7" type="curve" smooth="yes"/>
      <point x="1004.6" y="893.9"/>
      <point x="841.7" y="1068.6"/>
      <point x="603.0" y="1068.6" type="curve" smooth="yes"/>
      <point x="431.6" y="1068.6"/>
      <point x="320.5" y="961.6"/>
      <point x="277.8" y="906.1" type="curve"/>
      <point x="277.8" y="1620.5" type="line"/>
      <point x="256.6" y="1638.0" type="line"/>
      <point x="226.0" y="1638.0" type="line"/>
      <point x="-14.899999999999999" y="1605.4" type="line"/>
    </contour>
    <contour>
      <point x="555.9" y="984.4" type="curve" smooth="yes"/>
      <point x="712.2" y="984.4"/>
      <point x="836.4" y="844.8"/>
      <point x="834.9" y="542.8" type="curve" smooth="yes"/>
      <point x="833.4" y="219.3"/>
      <point x="710.1" y="43.6"/>
      <point x="490.6" y="43.6" type="curve" smooth="yes"/>
      <point x="381.5" y="43.6"/>
      <point x="303.4" y="88.60000000000001"/>
      <point x="277.8" y="126.2" type="curve"/>
      <point x="277.8" y="848.0" type="line"/>
      <point x="323.1" y="898.0"/>
      <point x="424.3" y="984.4"/>
    </contour>
  </outline>
</glyph>
<glyph name="c" format="2">
  <advance width="894.0"/>
  <unicode hex="0063"/>
  <anchor x="489.7" y="0.0" name="bottom"/>
  <anchor x="561.7" y="1110.0" name="top"/>
  <outline>
    <contour>
      <point x="50.6" y="507.7" type="curve" smooth="yes"/>
      <point x="51.2" y="195.9"/>
      <point x="217.0" y="-22.0"/>
      <point x="508.1" y="-22.0" type="curve" smooth="yes"/>
      <point x="636.3" y="-22.0"/>
      <point x="770.9" y="35.5"/>
      <point x="840.0" y="104.6" type="curve"/>
      <point x="815.7" y="149.6" type="line"/>
      <point x="759.9" y="108.3"/>
      <point x="650.0" y="61.1"/>
      <point x="536.4" y="61.1" type="curve" smooth="yes"/>
      <point x="336.6" y="61.1"/>
      <point x="215.0" y="241.3"/>
      <point x="215.6" y="543.1" type="curve" smooth="yes"/>
      <point x="216.2" y="833.9"/>
      <point x="365.6" y="1006.1"/>
      <point x="531.7" y="1006.1" type="curve" smooth="yes"/>
      <point x="649.9" y="1006.1"/>
      <point x="698.1" y="958.5"/>
      <point x="703.0" y="934.9" type="curve" smooth="yes"/>
      <point x="743.6" y="743.6" type="line"/>
      <point x="826.8" y="743.6" type="line"/>
      <point x="834.1" y="1009.3" type="line"/>
      <point x="793.3" y="1022.2"/>
      <point x="679.2" y="1069.3"/>
      <point x="570.9" y="1069.3" type="curve" smooth="yes"/>
      <point x="251.6" y="1069.3"/>
      <point x="50.0" y="812.5"/>
    </contour>
  </outline>
</glyph>
<glyph name="d" format="2">
  <advance width="1058.1"/>
  <unicode hex="0064"/>
  <anchor x="538.4" y="-1.7763568394002505e-15" name="bottom"/>
  <anchor x="536.3" y="570.0" name="center"/>
  <anchor x="333.0" y="1158.0" name="top"/>
  <anchor x="1042.8" y="1110.0" name="topright"/>
  <outline>
    <contour>
      <point x="451.8" y="-22.0" type="curve" smooth="yes"/>
      <point x="625.7" y="-22.0"/>
      <point x="736.6" y="88.0"/>
      <point x="779.3" y="148.5" type="curve"/>
      <point x="779.3" y="67.3" type="line" smooth="yes"/>
      <point x="779.3" y="2.6000000000000014"/>
      <point x="810.7" y="-16.6"/>
      <point x="878.0" y="-16.6" type="curve" smooth="yes"/>
      <point x="932.3" y="-16.6"/>
      <point x="992.8" y="0.0"/>
      <point x="1037.8" y="13.4" type="curve"/>
      <point x="1037.8" y="59.9" type="line"/>
      <point x="922.8" y="59.9" type="line"/>
      <point x="922.8" y="1620.5" type="line"/>
      <point x="901.6" y="1638.0" type="line"/>
      <point x="871.0" y="1638.0" type="line"/>
      <point x="618.6" y="1605.4" type="line"/>
      <point x="618.6" y="1564.9" type="line"/>
      <point x="776.9" y="1545.6" type="line"/>
      <point x="776.9" y="1023.6" type="line"/>
      <point x="733.7" y="1044.6"/>
      <point x="654.8" y="1068.6"/>
      <point x="559.3" y="1068.6" type="curve" smooth="yes"/>
      <point x="265.4" y="1068.6"/>
      <point x="50.2" y="819.6"/>
      <point x="50.2" y="486.7" type="curve" smooth="yes"/>
      <point x="50.2" y="156.9"/>
      <point x="211.89999999999998" y="-22.0"/>
    </contour>
    <contour>
      <point x="499.59999999999997" y="63.39999999999999" type="curve" smooth="yes"/>
      <point x="343.3" y="63.39999999999999"/>
      <point x="218.7" y="201.2"/>
      <point x="219.9" y="505.6" type="curve" smooth="yes"/>
      <point x="221.1" y="837.2"/>
      <point x="349.5" y="1003.6"/>
      <point x="564.2" y="1003.6" type="curve" smooth="yes"/>
      <point x="673.9" y="1003.6"/>
      <point x="750.7" y="957.6"/>
      <point x="776.9" y="921.6" type="curve"/>
      <point x="776.9" y="201.0" type="line"/>
      <point x="732.2" y="148.6"/>
      <point x="630.5" y="63.39999999999999"/>
    </contour>
  </outline>
</glyph>
<glyph name="e" format="2">
  <advance width="931.2"/>
  <unicode hex="0065"/>
  <anchor x="479.8" y="0.0" name="bottom"/>
  <anchor x="631.8" y="20.0" name="ogonek"/>
  <anchor x="527.8" y="1110.0" name="top"/>
  <outline>
    <contour>
      <point x="506.7" y="-22.0" type="curve" smooth="yes"/>
      <point x="641.1" y="-22.0"/>
      <point x="777.2" y="36.4"/>
      <point x="850.4" y="108.8" type="curve"/>
      <point x="826.1" y="159.0" type="line"/>
      <point x="766.2" y="108.5"/>
      <point x="649.6" y="59.099999999999994"/>
      <point x="534.9" y="59.099999999999994" type="curve" smooth="yes"/>
      <point x="305.3" y="59.099999999999994"/>
      <point x="214.9" y="293.8"/>
      <point x="214.9" y="533.7" type="curve"/>
      <point x="876.5" y="533.7" type="line"/>
      <point x="883.7" y="570.0"/>
      <point x="887.8" y="612.7"/>
      <point x="887.1" y="690.8" type="curve"/>
      <point x="882.0" y="935.5"/>
      <point x="740.5" y="1069.3"/>
      <point x="513.6" y="1069.3" type="curve" smooth="yes"/>
      <point x="279.8" y="1069.3"/>
      <point x="49.2" y="859.9"/>
      <point x="49.2" y="507.5" type="curve" smooth="yes"/>
      <point x="49.2" y="185.1"/>
      <point x="217.3" y="-22.0"/>
    </contour>
    <contour>
      <point x="216.2" y="592.7" type="line"/>
      <point x="221.6" y="814.7"/>
      <point x="314.3" y="1003.7"/>
      <point x="505.1" y="1003.7" type="curve" smooth="yes"/>
      <point x="664.2" y="1003.7"/>
      <point x="731.4" y="881.1"/>
      <point x="732.0" y="691.2" type="curve" smooth="yes"/>
      <point x="732.0" y="668.6"/>
      <point x="731.4" y="634.7"/>
      <point x="726.7" y="605.3" type="curve"/>
    </contour>
  </outline>
</glyph>
<glyph name="f" format="2">
  <advance width="658.0"/>
  <unicode hex="0066"/>
  <anchor x="435.0" y="1574.0" name="top"/>
  <outline>
    <contour>
      <point x="215.7" y="77.5" type="line"/>
      <point x="47.400000000000006" y="51.0" type="line"/>
      <point x="47.400000000000006" y="0.0" type="line"/>
      <point x="548.3" y="0.0" type="line"/>
      <point x="548.3" y="51.0" type="line"/>
      <point x="362.3" y="75.5" type="line"/>
      <point x="362.3" y="957.1" type="line"/>
      <point x="606.8" y="957.1" type="line"/>
      <point x="606.8" y="1036.5" type="line"/>
      <point x="362.3" y="1036.5" type="line"/>
      <point x="362.3" y="1299.8" type="line" smooth="yes"/>
      <point x="362.3" y="1490.1"/>
      <point x="418.6" y="1538.1"/>
      <point x="563.6" y="1538.1" type="curve" smooth="yes"/>
      <point x="651.3" y="1538.1"/>
      <point x="706.8" y="1525.2"/>
      <point x="729.0" y="1512.6" type="curve"/>
      <point x="729.0" y="1640.2" type="line"/>
      <point x="711.3" y="1646.8"/>
      <point x="684.7" y="1656.2"/>
      <point x="638.0" y="1656.2" type="curve" smooth="yes"/>
      <point x="423.4" y="1656.2"/>
      <point x="215.7" y="1469.3"/>
      <point x="215.7" y="1165.9" type="curve" smooth="yes"/>
      <point x="215.7" y="1034.5" type="line"/>
      <point x="41.7" y="1007.0" type="line"/>
      <point x="41.7" y="957.1" type="line"/>
      <point x="215.7" y="957.1" type="line"/>
    </contour>
  </outline>
</glyph>
<glyph name="g" format="2">
  <advance width="1042.5"/>
  <unicode hex="0067"/>
  <anchor x="504.3" y="0.0" name="bottom"/>
  <anchor x="529.3" y="1110.0" name="top"/>
  <outline>
    <contour>
      <point x="451.40000000000003" y="-489.6" type="curve"/>
      <point x="782.2" y="-489.6"/>
      <point x="1001.0" y="-340.1"/>
      <point x="1001.0" y="-106.7" type="curve" smooth="yes"/>
      <point x="1001.0" y="15.900000000000002"/>
      <point x="909.1" y="111.3"/>
      <point x="704.9" y="111.3" type="curve" smooth="yes"/>
      <point x="431.8" y="111.3" type="line" smooth="yes"/>
      <point x="311.0" y="111.3"/>
      <point x="257.3" y="141.2"/>
      <point x="257.3" y="229.1" type="curve" smooth="yes"/>
      <point x="257.3" y="302.2"/>
      <point x="303.4" y="342.3"/>
      <point x="336.7" y="367.0" type="curve"/>
      <point x="380.6" y="358.5"/>
      <point x="434.1" y="351.8"/>
      <point x="485.3" y="351.8" type="curve" smooth="yes"/>
      <point x="697.2" y="351.8"/>
      <point x="890.8" y="494.4"/>
      <point x="890.8" y="719.6" type="curve" smooth="yes"/>
      <point x="890.8" y="822.1"/>
      <point x="859.7" y="893.7"/>
      <point x="837.0" y="921.3" type="curve"/>
      <point x="1024.4" y="922.0" type="line"/>
      <point x="1025.1" y="1054.6" type="line"/>
      <point x="978.7" y="1054.6" type="line" smooth="yes"/>
      <point x="909.9" y="1054.6"/>
      <point x="819.3" y="1008.4"/>
      <point x="802.5" y="963.5" type="curve"/>
      <point x="742.6" y="1022.3"/>
      <point x="659.0" y="1069.3"/>
      <point x="515.7" y="1069.3" type="curve" smooth="yes"/>
      <point x="310.4" y="1069.3"/>
      <point x="107.5" y="933.4"/>
      <point x="107.5" y="703.4" type="curve" smooth="yes"/>
      <point x="107.5" y="573.6"/>
      <point x="153.3" y="460.7"/>
      <point x="294.9" y="386.6" type="curve"/>
      <point x="216.5" y="352.4"/>
      <point x="133.7" y="279.3"/>
      <point x="133.7" y="178.0" type="curve" smooth="yes"/>
      <point x="133.7" y="94.5"/>
      <point x="176.8" y="46.8"/>
      <point x="237.5" y="20.400000000000002" type="curve"/>
      <point x="125.0" y="-8.0"/>
      <point x="36.1" y="-95.3"/>
      <point x="36.1" y="-218.3" type="curve" smooth="yes"/>
      <point x="36.1" y="-402.0"/>
      <point x="230.8" y="-489.6"/>
    </contour>
    <contour>
      <point x="469.1" y="-424.7" type="curve"/>
      <point x="307.8" y="-424.7"/>
      <point x="189.0" y="-347.8"/>
      <point x="189.0" y="-194.0" type="curve" smooth="yes"/>
      <point x="189.0" y="-84.6"/>
      <point x="231.6" y="-32.3"/>
      <point x="280.0" y="3.6000000000000014" type="curve"/>
      <point x="328.3" y="-3.5999999999999996"/>
      <point x="408.4" y="-7.0"/>
      <point x="475.7" y="-7.0" type="curve"/>
      <point x="669.8" y="-7.0" type="line" smooth="yes"/>
      <point x="826.3" y="-7.0"/>
      <point x="856.0" y="-68.7"/>
      <point x="856.0" y="-153.4" type="curve" smooth="yes"/>
      <point x="856.0" y="-306.3"/>
      <point x="700.0" y="-424.7"/>
    </contour>
    <contour>
      <point x="492.7" y="416.2" type="curve" smooth="yes"/>
      <point x="339.3" y="416.2"/>
      <point x="261.4" y="539.4"/>
      <point x="261.4" y="711.4" type="curve" smooth="yes"/>
      <point x="261.4" y="909.9"/>
      <point x="357.7" y="1004.9"/>
      <point x="509.3" y="1004.9" type="curve" smooth="yes"/>
      <point x="649.9" y="1004.9"/>
      <point x="739.0" y="896.9"/>
      <point x="739.0" y="712.3" type="curve" smooth="yes"/>
      <point x="739.0" y="524.0"/>
      <point x="653.4" y="416.2"/>
    </contour>
  </outline>
</glyph>
<glyph name="h" format="2">
  <advance width="1121.5"/>
  <unicode hex="0068"/>
  <anchor x="564.7" y="0.0" name="bottom"/>
  <anchor x="303.0" y="1309.0" name="center"/>
  <anchor x="200.6" y="1602.0" name="top"/>
  <outline>
    <contour>
      <point x="159.0" y="76.9" type="line"/>
      <point x="33.4" y="50.99999999999999" type="line"/>
      <point x="33.4" y="0.0" type="line"/>
      <point x="434.09999999999997" y="0.0" type="line"/>
      <point x="434.09999999999997" y="50.99999999999999" type="line"/>
      <point x="304.9" y="77.5" type="line"/>
      <point x="304.9" y="828.2" type="line"/>
      <point x="400.2" y="904.2"/>
      <point x="495.5" y="955.3"/>
      <point x="622.2" y="955.3" type="curve" smooth="yes"/>
      <point x="796.4" y="955.3"/>
      <point x="819.4" y="831.3"/>
      <point x="819.4" y="631.6" type="curve" smooth="yes"/>
      <point x="819.4" y="77.2" type="line"/>
      <point x="693.1" y="50.99999999999999" type="line"/>
      <point x="693.1" y="0.0" type="line"/>
      <point x="1092.9" y="0.0" type="line"/>
      <point x="1092.9" y="50.99999999999999" type="line"/>
      <point x="967.4" y="77.2" type="line"/>
      <point x="967.4" y="635.9" type="line" smooth="yes"/>
      <point x="967.4" y="896.6"/>
      <point x="912.6" y="1059.7"/>
      <point x="673.3" y="1059.7" type="curve" smooth="yes"/>
      <point x="519.1" y="1059.7"/>
      <point x="373.6" y="956.7"/>
      <point x="301.0" y="873.4" type="curve"/>
      <point x="304.9" y="1044.3" type="line"/>
      <point x="304.9" y="1621.1" type="line"/>
      <point x="283.1" y="1638.0" type="line"/>
      <point x="252.5" y="1638.0" type="line"/>
      <point x="10.399999999999999" y="1605.4" type="line"/>
      <point x="10.399999999999999" y="1564.3" type="line"/>
      <point x="159.0" y="1545.6" type="line"/>
    </contour>
  </outline>
</glyph>
<glyph name="k" format="2">
  <advance width="1022.2"/>
  <unicode hex="006B"/>
  <anchor x="613.7" y="0.0" name="bottom"/>
  <anchor x="562.7" y="1598.4" name="top"/>
  <outline>
    <contour>
      <point x="154.1" y="77.5" type="line"/>
      <point x="29.799999999999997" y="51.0" type="line"/>
      <point x="29.799999999999997" y="0.0" type="line"/>
      <point x="433.7" y="0.0" type="line"/>
      <point x="433.7" y="51.0" type="line"/>
      <point x="299.4" y="77.5" type="line"/>
      <point x="299.4" y="256.0" type="line"/>
      <point x="290.5" y="358.2" type="line"/>
      <point x="485.70000000000005" y="564.8" type="line"/>
      <point x="775.9" y="77.5" type="line"/>
      <point x="654.7" y="51.0" type="line"/>
      <point x="654.7" y="0.0" type="line"/>
      <point x="1072.8" y="0.0" type="line"/>
      <point x="1072.8" y="52.400000000000006" type="line"/>
      <point x="952.7" y="76.9" type="line"/>
      <point x="585.5" y="657.6" type="line"/>
      <point x="865.7" y="955.1" type="line"/>
      <point x="984.7" y="985.2" type="line"/>
      <point x="984.7" y="1036.5" type="line"/>
      <point x="600.2" y="1036.5" type="line"/>
      <point x="600.2" y="985.2" type="line"/>
      <point x="740.8" y="954.4" type="line"/>
      <point x="291.9" y="456.4" type="line"/>
      <point x="299.4" y="602.0" type="line"/>
      <point x="299.4" y="1621.1" type="line"/>
      <point x="278.2" y="1638.0" type="line"/>
      <point x="248.2" y="1638.0" type="line"/>
      <point x="10.400000000000002" y="1605.4" type="line"/>
      <point x="10.400000000000002" y="1564.3" type="line"/>
      <point x="154.1" y="1545.6" type="line"/>
    </contour>
  </outline>
</glyph>
<glyph name="l" format="2">
  <advance width="506.59999999999997"/>
  <unicode hex="006C"/>
  <anchor x="253.3" y="0.0" name="bottom"/>
  <anchor x="258.0" y="1634.0" name="top"/>
  <anchor x="501.0" y="1110.0" name="topright"/>
  <outline>
    <contour>
      <point x="183.6" y="77.5" type="line"/>
      <point x="46.1" y="50.99999999999999" type="line"/>
      <point x="46.1" y="0.0" type="line"/>
      <point x="469.2" y="0.0" type="line"/>
      <point x="469.2" y="50.99999999999999" type="line"/>
      <point x="328.9" y="76.9" type="line"/>
      <point x="328.9" y="1621.1" type="line"/>
      <point x="307.7" y="1638.0" type="line"/>
      <point x="277.7" y="1638.0" type="line"/>
      <point x="38.099999999999994" y="1605.4" type="line"/>
      <point x="38.099999999999994" y="1564.3" type="line"/>
      <point x="183.6" y="1545.6" type="line"/>
    </contour>
  </outline>
</glyph>
<glyph name="m" format="2">
  <advance width="1749.1"/>
  <unicode hex="006D"/>
  <anchor x="888.8" y="0.0" name="bottom"/>
  <anchor x="881.5" y="1110.0" name="top"/>
  <outline>
    <contour>
      <point x="36.6" y="0.0" type="line"/>
      <point x="429.4" y="0.0" type="line"/>
      <point x="429.4" y="51.0" type="line"/>
      <point x="305.6" y="77.5" type="line"/>
      <point x="305.6" y="828.2" type="line"/>
      <point x="399.5" y="904.8"/>
      <point x="494.3" y="952.5"/>
      <point x="620.3" y="952.5" type="curve" smooth="yes"/>
      <point x="793.3" y="952.5"/>
      <point x="811.6" y="827.9"/>
      <point x="811.6" y="631.6" type="curve" smooth="yes"/>
      <point x="811.6" y="77.5" type="line"/>
      <point x="682.3" y="51.0" type="line"/>
      <point x="682.3" y="0.0" type="line"/>
      <point x="1085.7" y="0.0" type="line"/>
      <point x="1085.7" y="51.0" type="line"/>
      <point x="958.9" y="77.5" type="line"/>
      <point x="959.6" y="635.9" type="line" smooth="yes"/>
      <point x="959.6" y="710.9"/>
      <point x="958.5" y="793.7"/>
      <point x="946.6" y="839.5" type="curve"/>
      <point x="1030.7" y="908.4"/>
      <point x="1120.6" y="953.1"/>
      <point x="1244.8" y="953.1" type="curve" smooth="yes"/>
      <point x="1422.2" y="953.1"/>
      <point x="1446.3" y="826.1"/>
      <point x="1446.3" y="630.4" type="curve" smooth="yes"/>
      <point x="1446.3" y="77.5" type="line"/>
      <point x="1319.4" y="51.0" type="line"/>
      <point x="1319.4" y="0.0" type="line"/>
      <point x="1720.5" y="0.0" type="line"/>
      <point x="1720.5" y="51.0" type="line"/>
      <point x="1593.7" y="77.5" type="line"/>
      <point x="1593.7" y="637.1" type="line" smooth="yes"/>
      <point x="1593.7" y="893.2"/>
      <point x="1540.3" y="1056.9"/>
      <point x="1297.5" y="1056.9" type="curve" smooth="yes"/>
      <point x="1148.6" y="1056.9"/>
      <point x="1001.7" y="959.1"/>
      <point x="933.2" y="880.9" type="curve"/>
      <point x="892.1" y="999.0"/>
      <point x="811.5" y="1056.9"/>
      <point x="669.6" y="1056.9" type="curve" smooth="yes"/>
      <point x="517.8" y="1056.9"/>
      <point x="372.9" y="956.7"/>
      <point x="299.6" y="873.7" type="curve"/>
      <point x="300.2" y="1002.8" type="line"/>
      <point x="289.7" y="1037.6" type="line"/>
      <point x="237.29999999999998" y="1047.2" type="line"/>
      <point x="23.199999999999996" y="1001.2" type="line"/>
      <point x="23.199999999999996" y="955.3" type="line"/>
      <point x="157.6" y="920.6" type="line"/>
      <point x="157.6" y="77.5" type="line"/>
      <point x="36.6" y="51.0" type="line"/>
    </contour>
  </outline>
</glyph>
<glyph name="n" format="2">
  <advance width="1120.8"/>
  <unicode hex="006E"/>
  <anchor x="600.5" y="0.0" name="bottom"/>
  <anchor x="568.5" y="1110.0" name="top"/>
  <outline>
    <contour>
      <point x="157.6" y="77.5" type="line"/>
      <point x="34.8" y="50.99999999999999" type="line"/>
      <point x="34.8" y="0.0" type="line"/>
      <point x="430.6" y="0.0" type="line"/>
      <point x="430.6" y="50.99999999999999" type="line"/>
      <point x="305.6" y="77.5" type="line"/>
      <point x="305.6" y="827.6" type="line"/>
      <point x="399.5" y="904.2"/>
      <point x="494.8" y="955.3"/>
      <point x="622.1" y="955.3" type="curve" smooth="yes"/>
      <point x="795.1" y="955.3"/>
      <point x="818.7" y="830.7"/>
      <point x="818.7" y="634.4" type="curve" smooth="yes"/>
      <point x="818.7" y="76.9" type="line"/>
      <point x="692.4" y="50.99999999999999" type="line"/>
      <point x="692.4" y="0.0" type="line"/>
      <point x="1092.2" y="0.0" type="line"/>
      <point x="1092.2" y="50.99999999999999" type="line"/>
      <point x="966.7" y="76.9" type="line"/>
      <point x="966.7" y="638.7" type="line" smooth="yes"/>
      <point x="966.7" y="894.2"/>
      <point x="913.7" y="1059.7"/>
      <point x="672.6" y="1059.7" type="curve" smooth="yes"/>
      <point x="518.4" y="1059.7"/>
      <point x="372.9" y="956.7"/>
      <point x="299.6" y="873.7" type="curve"/>
      <point x="300.2" y="946.1" type="line"/>
      <point x="300.2" y="1029.2" type="line"/>
      <point x="277.6" y="1047.2" type="line"/>
      <point x="237.29999999999998" y="1047.2" type="line"/>
      <point x="23.199999999999996" y="1001.2" type="line"/>
      <point x="23.199999999999996" y="955.3" type="line"/>
      <point x="157.6" y="920.6" type="line"/>
    </contour>
  </outline>
</glyph>
<glyph name="o" format="2">
  <advance width="1023.1"/>
  <unicode hex="006F"/>
  <anchor x="513.9" y="0.0" name="bottom"/>
  <anchor x="512.6" y="521.6" name="center"/>
  <anchor x="577.9" y="25.0" name="ogonek"/>
  <anchor x="513.9" y="1110.0" name="top"/>
  <anchor x="731.9" y="1036.5" name="topright"/>
  <outline>
    <contour>
      <point x="50.6" y="513.7" type="curve" smooth="yes"/>
      <point x="50.6" y="235.4"/>
      <point x="170.5" y="-22.0"/>
      <point x="499.1" y="-22.0" type="curve" smooth="yes"/>
      <point x="732.0" y="-22.0"/>
      <point x="972.5" y="182.2"/>
      <point x="972.5" y="535.0" type="curve" smooth="yes"/>
      <point x="972.5" y="813.3"/>
      <point x="854.7" y="1069.3"/>
      <point x="526.1" y="1069.3" type="curve" smooth="yes"/>
      <point x="293.2" y="1069.3"/>
      <point x="50.6" y="865.8"/>
    </contour>
    <contour>
      <point x="511.9" y="44.2" type="curve" smooth="yes"/>
      <point x="300.9" y="44.2"/>
      <point x="217.2" y="286.4"/>
      <point x="217.2" y="532.7" type="curve" smooth="yes"/>
      <point x="217.2" y="842.2"/>
      <point x="328.8" y="1003.1"/>
      <point x="513.9" y="1003.1" type="curve" smooth="yes"/>
      <point x="725.5" y="1003.1"/>
      <point x="805.9" y="758.3"/>
      <point x="805.9" y="516.0" type="curve" smooth="yes"/>
      <point x="805.9" y="207.8"/>
      <point x="695.0" y="44.2"/>
    </contour>
  </outline>
</glyph>
<glyph name="p" format="2">
  <advance width="1083.0"/>
  <unicode hex="0070"/>
  <anchor x="559.0" y="1110.0" name="top"/>
  <outline>
    <contour>
      <point x="1031.0" y="553.3" type="curve" smooth="yes"/>
      <point x="1031.0" y="893.2"/>
      <point x="867.5" y="1068.6"/>
      <point x="628.7" y="1068.6" type="curve" smooth="yes"/>
      <point x="455.8" y="1068.6"/>
      <point x="340.90000000000003" y="958.2"/>
      <point x="296.8" y="898.8" type="curve"/>
      <point x="296.8" y="1028.5" type="line"/>
      <point x="274.1" y="1047.2" type="line"/>
      <point x="240.0" y="1047.2" type="line"/>
      <point x="23.200000000000003" y="1001.2" type="line"/>
      <point x="23.200000000000003" y="955.3" type="line"/>
      <point x="158.9" y="920.6" type="line"/>
      <point x="158.9" y="-375.3" type="line"/>
      <point x="29.400000000000006" y="-403.0" type="line"/>
      <point x="29.400000000000006" y="-454.6" type="line"/>
      <point x="484.90000000000003" y="-454.6" type="line"/>
      <point x="484.90000000000003" y="-403.0" type="line"/>
      <point x="304.2" y="-376.0" type="line"/>
      <point x="304.2" y="-160.7" type="line"/>
      <point x="300.2" y="15.6" type="line"/>
      <point x="340.9" y="-3.0"/>
      <point x="430.7" y="-22.0"/>
      <point x="523.7" y="-22.0" type="curve" smooth="yes"/>
      <point x="814.6" y="-22.0"/>
      <point x="1031.0" y="228.2"/>
    </contour>
    <contour>
      <point x="582.3" y="984.4" type="curve" smooth="yes"/>
      <point x="740.0" y="984.4"/>
      <point x="861.9" y="846.1"/>
      <point x="861.9" y="542.1" type="curve" smooth="yes"/>
      <point x="861.9" y="210.6"/>
      <point x="731.7" y="41.2"/>
      <point x="517.0" y="41.2" type="curve" smooth="yes"/>
      <point x="404.9" y="41.2"/>
      <point x="329.8" y="89.80000000000001"/>
      <point x="304.2" y="123.2" type="curve"/>
      <point x="304.2" y="851.6" type="line"/>
      <point x="349.5" y="901.6"/>
      <point x="451.40000000000003" y="984.4"/>
    </contour>
  </outline>
</glyph>
<glyph name="q" format="2">
  <advance width="1039.4"/>
  <unicode hex="0071"/>
  <outline>
    <contour>
      <point x="588.7" y="-454.6" type="line"/>
      <point x="1056.6" y="-454.6" type="line"/>
      <point x="1056.6" y="-404.1" type="line"/>
      <point x="922.2" y="-377.1" type="line"/>
      <point x="922.2" y="1034.1" type="line"/>
      <point x="891.0" y="1056.3" type="line"/>
      <point x="881.0" y="1056.3" type="line"/>
      <point x="810.8" y="1007.3" type="line"/>
      <point x="742.1" y="1042.8"/>
      <point x="666.8" y="1068.6"/>
      <point x="559.3" y="1068.6" type="curve" smooth="yes"/>
      <point x="265.4" y="1068.6"/>
      <point x="50.2" y="813.7"/>
      <point x="50.2" y="488.5" type="curve" smooth="yes"/>
      <point x="50.2" y="156.9"/>
      <point x="213.7" y="-22.0"/>
      <point x="454.5" y="-22.0" type="curve" smooth="yes"/>
      <point x="632.1" y="-22.0"/>
      <point x="734.8" y="86.80000000000001"/>
      <point x="778.1" y="144.2" type="curve"/>
      <point x="776.3" y="-46.0" type="line"/>
      <point x="776.3" y="-377.1" type="line"/>
      <point x="588.7" y="-404.1" type="line"/>
    </contour>
    <contour>
      <point x="500.2" y="60.4" type="curve" smooth="yes"/>
      <point x="342.7" y="60.4"/>
      <point x="218.7" y="204.8"/>
      <point x="219.9" y="507.4" type="curve" smooth="yes"/>
      <point x="221.1" y="832.0"/>
      <point x="349.5" y="1007.2"/>
      <point x="563.6" y="1007.2" type="curve" smooth="yes"/>
      <point x="673.8" y="1007.2"/>
      <point x="751.2" y="960.1"/>
      <point x="776.3" y="925.3" type="curve"/>
      <point x="776.3" y="193.7" type="line"/>
      <point x="731.6" y="145.6"/>
      <point x="638.6" y="60.4"/>
    </contour>
  </outline>
</glyph>
<glyph name="r" format="2">
  <advance width="698.3"/>
  <unicode hex="0072"/>
  <anchor x="230.3" y="0.0" name="bottom"/>
  <anchor x="379.79999999999995" y="1110.0" name="top"/>
  <outline>
    <contour>
      <point x="28.799999999999997" y="0.0" type="line"/>
      <point x="483.79999999999995" y="0.0" type="line"/>
      <point x="483.79999999999995" y="49.8" type="line"/>
      <point x="307.4" y="76.3" type="line"/>
      <point x="307.4" y="760.7" type="line"/>
      <point x="369.4" y="862.0"/>
      <point x="482.3" y="909.8"/>
      <point x="608.1" y="909.8" type="curve" smooth="yes"/>
      <point x="633.2" y="909.8"/>
      <point x="653.6" y="904.1"/>
      <point x="663.7" y="898.8" type="curve"/>
      <point x="663.7" y="1044.4" type="line"/>
      <point x="651.8" y="1048.4"/>
      <point x="635.9" y="1051.7"/>
      <point x="610.7" y="1051.7" type="curve" smooth="yes"/>
      <point x="450.9" y="1051.7"/>
      <point x="319.8" y="897.0"/>
      <point x="300.0" y="809.4" type="curve"/>
      <point x="296.7" y="795.4" type="line"/>
      <point x="301.4" y="962.2" type="line"/>
      <point x="302.1" y="1029.2" type="line"/>
      <point x="280.2" y="1047.2" type="line"/>
      <point x="237.7" y="1047.2" type="line"/>
      <point x="24.999999999999996" y="1001.2" type="line"/>
      <point x="24.999999999999996" y="955.3" type="line"/>
      <point x="159.39999999999998" y="920.6" type="line"/>
      <point x="159.39999999999998" y="75.7" type="line"/>
      <point x="28.799999999999997" y="50.4" type="line"/>
    </contour>
  </outline>
</glyph>
<glyph name="s" format="2">
  <advance width="828.3"/>
  <unicode hex="0073"/>
  <anchor x="404.7" y="0.0" name="bottom"/>
  <anchor x="439.4" y="1110.0" name="top"/>
  <outline>
    <contour>
      <point x="148.1" y="295.8" type="line"/>
      <point x="66.0" y="295.8" type="line"/>
      <point x="66.0" y="57.1" type="line"/>
      <point x="127.9" y="44.099999999999994"/>
      <point x="262.1" y="-20.6"/>
      <point x="395.9" y="-20.6" type="curve" smooth="yes"/>
      <point x="621.6" y="-20.6"/>
      <point x="763.7" y="94.6"/>
      <point x="763.7" y="292.5" type="curve" smooth="yes"/>
      <point x="763.7" y="467.3"/>
      <point x="602.7" y="535.8"/>
      <point x="431.7" y="610.7" type="curve" smooth="yes"/>
      <point x="307.4" y="666.0"/>
      <point x="203.4" y="722.2"/>
      <point x="203.4" y="839.2" type="curve" smooth="yes"/>
      <point x="203.4" y="960.4"/>
      <point x="319.1" y="1009.4"/>
      <point x="418.4" y="1009.1" type="curve" smooth="yes"/>
      <point x="522.1" y="1008.8"/>
      <point x="570.2" y="966.3"/>
      <point x="587.4" y="933.1" type="curve"/>
      <point x="634.6" y="782.9" type="line"/>
      <point x="706.0" y="782.9" type="line"/>
      <point x="706.0" y="1007.6" type="line"/>
      <point x="662.6" y="1019.4"/>
      <point x="587.5" y="1067.5"/>
      <point x="428.1" y="1067.5" type="curve" smooth="yes"/>
      <point x="248.8" y="1067.5"/>
      <point x="87.0" y="968.6"/>
      <point x="87.0" y="784.2" type="curve" smooth="yes"/>
      <point x="87.0" y="642.1"/>
      <point x="175.1" y="543.3"/>
      <point x="366.9" y="465.1" type="curve" smooth="yes"/>
      <point x="554.4" y="386.9"/>
      <point x="646.6" y="323.8"/>
      <point x="646.6" y="219.1" type="curve" smooth="yes"/>
      <point x="646.6" y="97.80000000000001"/>
      <point x="556.1" y="39.800000000000004"/>
      <point x="406.8" y="39.800000000000004" type="curve" smooth="yes"/>
      <point x="310.8" y="39.800000000000004"/>
      <point x="205.4" y="103.4"/>
      <point x="192.1" y="139.8" type="curve"/>
    </contour>
  </outline>
</glyph>
<glyph name="t" format="2">
  <advance width="644.6"/>
  <unicode hex="0074"/>
  <anchor x="370.5" y="0.0" name="bottom"/>
  <anchor x="259.7" y="562.0" name="center"/>
  <anchor x="291.0" y="1353.0" name="top"/>
  <anchor x="569.4" y="1110.0" name="topright"/>
  <outline>
    <contour>
      <point x="346.4" y="-16.4" type="curve" smooth="yes"/>
      <point x="450.8" y="-16.4"/>
      <point x="581.7" y="29.0"/>
      <point x="632.0" y="70.9" type="curve"/>
      <point x="612.3" y="121.0" type="line"/>
      <point x="575.3" y="99.0"/>
      <point x="471.7" y="76.6"/>
      <point x="408.6" y="76.6" type="curve" smooth="yes"/>
      <point x="349.7" y="76.6"/>
      <point x="325.3" y="96.79999999999998"/>
      <point x="325.3" y="221.5" type="curve" smooth="yes"/>
      <point x="325.3" y="957.1" type="line"/>
      <point x="584.7" y="957.1" type="line"/>
      <point x="584.7" y="1036.5" type="line"/>
      <point x="326.0" y="1036.5" type="line"/>
      <point x="326.0" y="1334.5" type="line"/>
      <point x="253.5" y="1334.5" type="line"/>
      <point x="238.5" y="1258.6"/>
      <point x="204.6" y="1142.3"/>
      <point x="188.3" y="1096.4" type="curve" smooth="yes"/>
      <point x="176.0" y="1062.8"/>
      <point x="165.3" y="1046.7"/>
      <point x="139.1" y="1034.1" type="curve" smooth="yes"/>
      <point x="121.0" y="1025.5"/>
      <point x="59.8" y="1012.9"/>
      <point x="37.8" y="1007.0" type="curve"/>
      <point x="37.8" y="957.1" type="line"/>
      <point x="177.9" y="957.1" type="line"/>
      <point x="177.9" y="171.2" type="line" smooth="yes"/>
      <point x="177.9" y="23.200000000000003"/>
      <point x="248.7" y="-16.4"/>
    </contour>
  </outline>
</glyph>
<glyph name="u" format="2">
  <advance width="1079.2"/>
  <unicode hex="0075"/>
  <anchor x="561.7" y="0.0" name="bottom"/>
  <anchor x="898.7" y="20.0" name="ogonek"/>
  <anchor x="526.1" y="1110.0" name="top"/>
  <anchor x="899.6" y="1040.0" name="topright"/>
  <outline>
    <contour>
      <point x="873.8" y="-16.6" type="curve" smooth="yes"/>
      <point x="938.2" y="-16.6"/>
      <point x="987.4" y="0.0"/>
      <point x="1030.0" y="13.4" type="curve"/>
      <point x="1030.6" y="59.3" type="line"/>
      <point x="917.8" y="59.3" type="line"/>
      <point x="917.8" y="1031.6" type="line"/>
      <point x="892.8" y="1047.2" type="line"/>
      <point x="866.3" y="1047.2" type="line"/>
      <point x="639.5" y="1003.0" type="line"/>
      <point x="639.5" y="961.9" type="line"/>
      <point x="772.6" y="927.2" type="line"/>
      <point x="772.6" y="203.5" type="line"/>
      <point x="707.1" y="141.1"/>
      <point x="591.6999999999999" y="76.19999999999999"/>
      <point x="467.4" y="76.19999999999999" type="curve" smooth="yes"/>
      <point x="321.3" y="76.19999999999999"/>
      <point x="289.6" y="180.5"/>
      <point x="289.6" y="363.2" type="curve" smooth="yes"/>
      <point x="289.6" y="1031.6" type="line"/>
      <point x="267.6" y="1047.2" type="line"/>
      <point x="239.7" y="1047.2" type="line"/>
      <point x="21.499999999999996" y="1003.0" type="line"/>
      <point x="21.499999999999996" y="961.9" type="line"/>
      <point x="144.4" y="927.2" type="line"/>
      <point x="145.1" y="351.8" type="line" smooth="yes"/>
      <point x="145.1" y="110.1"/>
      <point x="212.7" y="-20.6"/>
      <point x="434.2" y="-20.6" type="curve" smooth="yes"/>
      <point x="599.6" y="-20.6"/>
      <point x="713.4" y="80.4"/>
      <point x="778.7" y="153.8" type="curve"/>
      <point x="778.7" y="66.0" type="line" smooth="yes"/>
      <point x="778.7" y="5.000000000000001"/>
      <point x="814.7" y="-16.6"/>
    </contour>
  </outline>
</glyph>
<glyph name="v" format="2">
  <advance width="971.5"/>
  <unicode hex="0076"/>
  <outline>
    <contour>
      <point x="-11.100000000000001" y="987.4" type="line"/>
      <point x="75.2" y="960.7" type="line"/>
      <point x="415.5" y="-4.799999999999999" type="line"/>
      <point x="547.4" y="-4.799999999999999" type="line"/>
      <point x="909.1999999999999" y="960.7" type="line"/>
      <point x="997.1999999999999" y="987.4" type="line"/>
      <point x="997.1999999999999" y="1036.5" type="line"/>
      <point x="681.0" y="1036.5" type="line"/>
      <point x="681.0" y="987.4" type="line"/>
      <point x="795.1" y="960.7" type="line"/>
      <point x="563.6" y="248.2" type="line"/>
      <point x="516.0" y="75.69999999999999" type="line"/>
      <point x="461.4" y="250.5" type="line"/>
      <point x="232.0" y="960.7" type="line"/>
      <point x="356.9" y="987.4" type="line"/>
      <point x="356.9" y="1036.5" type="line"/>
      <point x="-11.100000000000001" y="1036.5" type="line"/>
    </contour>
  </outline>
</glyph>
<glyph name="w" format="2">
  <advance width="1533.0"/>
  <unicode hex="0077"/>
  <anchor x="765.7" y="0.0" name="bottom"/>
  <anchor x="782.9" y="1110.0" name="top"/>
  <outline>
    <contour>
      <point x="-19.6" y="987.4" type="line"/>
      <point x="69.1" y="961.3" type="line"/>
      <point x="371.6" y="-4.799999999999999" type="line"/>
      <point x="505.1" y="-4.799999999999999" type="line"/>
      <point x="702.8" y="669.2" type="line"/>
      <point x="758.9" y="926.2" type="line"/>
      <point x="818.6" y="669.2" type="line"/>
      <point x="1016.4" y="-4.799999999999999" type="line"/>
      <point x="1152.0" y="-4.799999999999999" type="line"/>
      <point x="1459.0" y="960.7" type="line"/>
      <point x="1555.0" y="987.4" type="line"/>
      <point x="1555.0" y="1036.5" type="line"/>
      <point x="1235.8" y="1036.5" type="line"/>
      <point x="1235.8" y="987.4" type="line"/>
      <point x="1352.0" y="960.7" type="line"/>
      <point x="1160.6" y="264.4" type="line"/>
      <point x="1119.7" y="67.0" type="line"/>
      <point x="1082.7" y="242.6" type="line"/>
      <point x="873.5" y="1036.5" type="line"/>
      <point x="715.8" y="1036.5" type="line"/>
      <point x="509.5" y="265.0" type="line"/>
      <point x="472.2" y="67.6" type="line"/>
      <point x="433.7" y="242.0" type="line"/>
      <point x="236.4" y="961.3" type="line"/>
      <point x="350.9" y="987.4" type="line"/>
      <point x="350.9" y="1036.5" type="line"/>
      <point x="-19.6" y="1036.5" type="line"/>
    </contour>
  </outline>
</glyph>
<glyph name="y" format="2">
  <advance width="983.4"/>
  <unicode hex="0079"/>
  <anchor x="789.5" y="0.0" name="bottom"/>
  <anchor x="505.3" y="1110.0" name="top"/>
  <outline>
    <contour>
      <point x="183.89999999999998" y="-504.5" type="curve" smooth="yes"/>
      <point x="343.6" y="-504.5"/>
      <point x="435.4" y="-362.4"/>
      <point x="565.7" y="-35.5" type="curve"/>
      <point x="600.4" y="49.5"/>
      <point x="742.9" y="479.1"/>
      <point x="913.0" y="961.3" type="curve"/>
      <point x="1003.7" y="987.4" type="line"/>
      <point x="1003.7" y="1036.5" type="line"/>
      <point x="700.9" y="1036.5" type="line"/>
      <point x="700.9" y="987.4" type="line"/>
      <point x="805.9" y="961.3" type="line"/>
      <point x="585.7" y="246.29999999999998" type="line"/>
      <point x="533.3" y="57.599999999999994" type="line"/>
      <point x="477.6" y="247.09999999999997" type="line"/>
      <point x="238.2" y="961.3" type="line"/>
      <point x="353.29999999999995" y="986.7" type="line"/>
      <point x="353.29999999999995" y="1036.5" type="line"/>
      <point x="-11.0" y="1036.5" type="line"/>
      <point x="-11.0" y="987.4" type="line"/>
      <point x="78.1" y="960.7" type="line"/>
      <point x="427.2" y="0.0" type="line"/>
      <point x="498.4" y="0.0" type="line"/>
      <point x="438.1" y="-181.29999999999998"/>
      <point x="310.5" y="-380.9"/>
      <point x="177.4" y="-380.9" type="curve" smooth="yes"/>
      <point x="145.6" y="-380.9"/>
      <point x="109.1" y="-376.9"/>
      <point x="93.1" y="-368.9" type="curve"/>
      <point x="93.1" y="-490.5" type="line"/>
      <point x="109.1" y="-498.5"/>
      <point x="141.6" y="-504.5"/>
    </contour>
  </outline>
</glyph>
<glyph name="z" format="2">
  <advance width="957.9"/>
  <unicode hex="007A"/>
  <anchor x="480.4" y="0.0" name="bottom"/>
  <anchor x="490.5" y="1110.0" name="top"/>
  <outline>
    <contour>
      <point x="740.7" y="973.8" type="line"/>
      <point x="609.4" y="831.2" type="line"/>
      <point x="51.5" y="60.599999999999994" type="line"/>
      <point x="84.0" y="0.0" type="line"/>
      <point x="864.1" y="0.0" type="line"/>
      <point x="903.6999999999999" y="316.9" type="line"/>
      <point x="825.5" y="328.9" type="line"/>
      <point x="731.9" y="85.69999999999999" type="line"/>
      <point x="200.7" y="62.8" type="line"/>
      <point x="346.0" y="221.6" type="line"/>
      <point x="892.5" y="976.5" type="line"/>
      <point x="862.0" y="1036.5" type="line"/>
      <point x="112.7" y="1036.5" type="line"/>
      <point x="112.7" y="730.5" type="line"/>
      <point x="191.2" y="730.5" type="line"/>
      <point x="234.6" y="952.8" type="line"/>
    </contour>
  </outline>
</glyph>
<glyph name="braceleft" format="2">
  <advance width="922.2"/>
  <unicode hex="007B"/>
  <outline>
    <contour>
      <point x="587.5" y="-272.0" type="curve" smooth="yes"/>
      <point x="654.7" y="-272.0"/>
      <point x="721.1" y="-258.0"/>
      <point x="786.0" y="-238.0" type="curve"/>
      <point x="786.0" y="-182.5" type="line"/>
      <point x="772.0" y="-186.5"/>
      <point x="682.0" y="-190.5"/>
      <point x="664.0" y="-190.5" type="curve" smooth="yes"/>
      <point x="547.8" y="-190.5"/>
      <point x="418.0" y="-159.2"/>
      <point x="418.0" y="6.0" type="curve" smooth="yes"/>
      <point x="418.0" y="136.0"/>
      <point x="477.8" y="314.0"/>
      <point x="477.8" y="458.0" type="curve" smooth="yes"/>
      <point x="477.8" y="576.9"/>
      <point x="376.8" y="654.0"/>
      <point x="240.5" y="672.0" type="curve"/>
      <point x="376.8" y="692.0"/>
      <point x="477.8" y="756.3"/>
      <point x="477.8" y="878.0" type="curve" smooth="yes"/>
      <point x="477.8" y="1022.0"/>
      <point x="418.0" y="1202.0"/>
      <point x="418.0" y="1332.0" type="curve" smooth="yes"/>
      <point x="418.0" y="1493.2"/>
      <point x="549.8" y="1526.5"/>
      <point x="664.0" y="1526.5" type="curve" smooth="yes"/>
      <point x="678.0" y="1526.5"/>
      <point x="772.0" y="1524.5"/>
      <point x="786.0" y="1520.5" type="curve"/>
      <point x="786.0" y="1576.0" type="line"/>
      <point x="715.5" y="1596.0"/>
      <point x="664.5" y="1608.0"/>
      <point x="594.5" y="1608.0" type="curve" smooth="yes"/>
      <point x="392.0" y="1608.0"/>
      <point x="288.1" y="1522.0"/>
      <point x="288.1" y="1360.0" type="curve" smooth="yes"/>
      <point x="288.1" y="1174.0"/>
      <point x="380.3" y="1040.0"/>
      <point x="380.3" y="888.0" type="curve" smooth="yes"/>
      <point x="380.3" y="772.4"/>
      <point x="312.8" y="718.0"/>
      <point x="85.1" y="720.0" type="curve"/>
      <point x="85.1" y="634.6" type="line"/>
      <point x="312.8" y="636.6"/>
      <point x="380.3" y="568.4"/>
      <point x="380.3" y="450.0" type="curve" smooth="yes"/>
      <point x="380.3" y="298.0"/>
      <point x="288.1" y="164.0"/>
      <point x="288.1" y="-24.0" type="curve" smooth="yes"/>
      <point x="288.1" y="-184.0"/>
      <point x="394.8" y="-272.0"/>
    </contour>
  </outline>
</glyph>
<glyph name="cent" format="2">
  <advance width="1085.0"/>
  <unicode hex="00A2"/>
  <outline>
    <contour>
      <point x="157.8" y="507.7" type="curve" smooth="yes"/>
      <point x="158.4" y="219.7"/>
      <point x="300.4" y="11.500000000000002"/>
      <point x="550.8" y="-18.1" type="curve"/>
      <point x="531.0" y="-252.0" type="line"/>
      <point x="622.0" y="-252.0" type="line"/>
      <point x="641.8" y="-21.3" type="line"/>
      <point x="762.0" y="-14.1"/>
      <point x="883.4" y="40.2"/>
      <point x="947.2" y="104.6" type="curve"/>
      <point x="922.9" y="149.6" type="line"/>
      <point x="867.7" y="108.30000000000001"/>
      <point x="757.2" y="61.1"/>
      <point x="643.6" y="61.1" type="curve" smooth="yes"/>
      <point x="444.4" y="61.1"/>
      <point x="322.8" y="241.3"/>
      <point x="323.4" y="543.1" type="curve" smooth="yes"/>
      <point x="324.0" y="833.9"/>
      <point x="473.4" y="1006.1"/>
      <point x="638.9" y="1006.1" type="curve" smooth="yes"/>
      <point x="758.0" y="1006.1"/>
      <point x="804.4" y="963.3"/>
      <point x="810.2" y="934.9" type="curve" smooth="yes"/>
      <point x="850.8" y="743.6" type="line"/>
      <point x="934.0" y="743.6" type="line"/>
      <point x="941.9" y="1009.3" type="line"/>
      <point x="906.3" y="1020.3"/>
      <point x="816.1" y="1057.3"/>
      <point x="721.5" y="1067.3" type="curve"/>
      <point x="744.4" y="1322.0" type="line"/>
      <point x="655.6" y="1322.0" type="line"/>
      <point x="634.7" y="1068.0" type="line"/>
      <point x="340.8" y="1046.2"/>
      <point x="157.2" y="798.0"/>
    </contour>
  </outline>
</glyph>
<glyph name="currency" format="2">
  <advance width="1391.2"/>
  <unicode hex="00A4"/>
  <outline>
    <contour>
      <point x="369.4" y="470.4" type="curve"/>
      <point x="168.8" y="269.8" type="line"/>
      <point x="234.5" y="200.7" type="line"/>
      <point x="437.0" y="404.7" type="line"/>
      <point x="509.9" y="351.5"/>
      <point x="598.3" y="322.0"/>
      <point x="692.6" y="322.0" type="curve" smooth="yes"/>
      <point x="785.5" y="322.0"/>
      <point x="870.3" y="351.4"/>
      <point x="943.2" y="403.0" type="curve"/>
      <point x="1145.0" y="198.4" type="line"/>
      <point x="1228.2" y="282.2" type="line"/>
      <point x="1026.3" y="484.1" type="line"/>
      <point x="1085.8" y="558.1"/>
      <point x="1122.6" y="652.8"/>
      <point x="1122.6" y="760.5" type="curve" smooth="yes"/>
      <point x="1122.6" y="868.3"/>
      <point x="1085.7" y="964.0"/>
      <point x="1023.9" y="1037.5" type="curve"/>
      <point x="1224.5" y="1238.1" type="line"/>
      <point x="1155.3" y="1307.9" type="line"/>
      <point x="952.9" y="1104.7" type="line"/>
      <point x="882.1" y="1156.4"/>
      <point x="791.8" y="1188.0"/>
      <point x="692.6" y="1188.0" type="curve" smooth="yes"/>
      <point x="600.4" y="1188.0"/>
      <point x="515.5" y="1159.3"/>
      <point x="445.3" y="1106.3" type="curve"/>
      <point x="242.2" y="1312.9" type="line"/>
      <point x="161.8" y="1230.5" type="line"/>
      <point x="364.3" y="1026.0" type="line"/>
      <point x="308.1" y="951.3"/>
      <point x="274.6" y="851.7"/>
      <point x="274.6" y="745.3" type="curve" smooth="yes"/>
      <point x="274.6" y="636.8"/>
      <point x="309.6" y="542.5"/>
    </contour>
    <contour>
      <point x="703.8" y="399.9" type="curve" smooth="yes"/>
      <point x="529.2" y="399.9"/>
      <point x="381.6" y="566.1"/>
      <point x="381.6" y="759.2" type="curve" smooth="yes"/>
      <point x="381.6" y="939.9"/>
      <point x="504.8" y="1105.9"/>
      <point x="683.7" y="1105.9" type="curve" smooth="yes"/>
      <point x="863.9" y="1105.9"/>
      <point x="1016.1" y="926.3"/>
      <point x="1016.1" y="739.4" type="curve" smooth="yes"/>
      <point x="1016.1" y="556.0"/>
      <point x="882.2" y="399.9"/>
    </contour>
  </outline>
</glyph>
<glyph name="yen" format="2">
  <advance width="1435.4"/>
  <unicode hex="00A5"/>
  <outline>
    <contour>
      <point x="617.5" y="772.6" type="line"/>
      <point x="224.8" y="772.6" type="line"/>
      <point x="224.8" y="704.6" type="line"/>
      <point x="655.6" y="704.6" type="line"/>
      <point x="655.6" y="442.0" type="line"/>
      <point x="224.8" y="442.0" type="line"/>
      <point x="224.8" y="374.0" type="line"/>
      <point x="655.6" y="374.0" type="line"/>
      <point x="655.6" y="78.4" type="line"/>
      <point x="436.9" y="48.0" type="line"/>
      <point x="436.9" y="0.0" type="line"/>
      <point x="1023.3" y="0.0" type="line"/>
      <point x="1023.3" y="48.0" type="line"/>
      <point x="802.6" y="78.4" type="line"/>
      <point x="802.6" y="374.0" type="line"/>
      <point x="1235.5" y="374.0" type="line"/>
      <point x="1235.5" y="442.0" type="line"/>
      <point x="802.6" y="442.0" type="line"/>
      <point x="802.6" y="704.6" type="line"/>
      <point x="1235.5" y="704.6" type="line"/>
      <point x="1235.5" y="772.6" type="line"/>
      <point x="827.4" y="772.6" type="line"/>
      <point x="1201.1" y="1418.1" type="line"/>
      <point x="1330.6" y="1439.3" type="line"/>
      <point x="1330.6" y="1486.0" type="line"/>
      <point x="928.2" y="1486.0" type="line"/>
      <point x="928.2" y="1439.3" type="line"/>
      <point x="1084.5" y="1418.6" type="line"/>
      <point x="836.9" y="962.0" type="line"/>
      <point x="750.4" y="797.7" type="line"/>
      <point x="669.6" y="958.0" type="line"/>
      <point x="403.3" y="1418.6" type="line"/>
      <point x="561.8" y="1439.3" type="line"/>
      <point x="561.8" y="1486.0" type="line"/>
      <point x="104.8" y="1486.0" type="line"/>
      <point x="104.8" y="1439.3" type="line"/>
      <point x="224.4" y="1417.4" type="line"/>
    </contour>
  </outline>
</glyph>
<glyph name="brokenbar" format="2">
  <advance width="792.2"/>
  <unicode hex="00A6"/>
  <outline>
    <contour>
      <point x="449.2" y="1738.0" type="line"/>
      <point x="343.0" y="1738.0" type="line"/>
      <point x="343.0" y="928.0" type="line"/>
      <point x="449.2" y="928.0" type="line"/>
    </contour>
    <contour>
      <point x="449.2" y="626.0" type="line"/>
      <point x="343.0" y="626.0" type="line"/>
      <point x="343.0" y="-182.0" type="line"/>
      <point x="449.2" y="-182.0" type="line"/>
    </contour>
  </outline>
</glyph>
<glyph name="copyright" format="2">
  <advance width="1974.3"/>
  <unicode hex="00A9"/>
  <outline>
    <contour>
      <point x="176.0" y="966.0" type="curve" smooth="yes"/>
      <point x="176.0" y="490.0"/>
      <point x="533.2" y="120.0"/>
      <point x="986.8" y="120.0" type="curve" smooth="yes"/>
      <point x="1439.1" y="120.0"/>
      <point x="1798.3" y="490.0"/>
      <point x="1798.3" y="966.0" type="curve" smooth="yes"/>
      <point x="1798.3" y="1440.0"/>
      <point x="1439.1" y="1808.0"/>
      <point x="986.8" y="1808.0" type="curve" smooth="yes"/>
      <point x="533.2" y="1808.0"/>
      <point x="176.0" y="1440.0"/>
    </contour>
    <contour>
      <point x="251.1" y="966.0" type="curve" smooth="yes"/>
      <point x="251.1" y="1396.1"/>
      <point x="570.3" y="1742.0"/>
      <point x="986.8" y="1742.0" type="curve" smooth="yes"/>
      <point x="1402.0" y="1742.0"/>
      <point x="1721.2" y="1396.1"/>
      <point x="1721.2" y="966.0" type="curve" smooth="yes"/>
      <point x="1721.2" y="533.9"/>
      <point x="1402.0" y="188.0"/>
      <point x="986.8" y="188.0" type="curve" smooth="yes"/>
      <point x="571.0" y="188.0"/>
      <point x="251.1" y="533.9"/>
    </contour>
    <contour>
      <point x="981.0" y="490.0" type="curve" smooth="yes"/>
      <point x="1125.9" y="490.0"/>
      <point x="1233.9" y="565.2"/>
      <point x="1293.4" y="633.8" type="curve"/>
      <point x="1266.7" y="679.4" type="line"/>
      <point x="1210.6" y="619.8"/>
      <point x="1122.0" y="578.3"/>
      <point x="1036.3" y="578.3" type="curve" smooth="yes"/>
      <point x="857.4" y="578.3"/>
      <point x="731.1" y="738.3"/>
      <point x="731.1" y="995.7" type="curve" smooth="yes"/>
      <point x="731.1" y="1224.2"/>
      <point x="827.3" y="1379.8"/>
      <point x="1007.0" y="1379.8" type="curve" smooth="yes"/>
      <point x="1088.0" y="1379.8"/>
      <point x="1139.0" y="1357.4"/>
      <point x="1160.6" y="1336.1" type="curve"/>
      <point x="1202.8" y="1178.0" type="line"/>
      <point x="1284.8" y="1178.0" type="line"/>
      <point x="1285.5" y="1388.0" type="line"/>
      <point x="1248.9" y="1426.0"/>
      <point x="1128.5" y="1446.0"/>
      <point x="1045.3" y="1446.0" type="curve" smooth="yes"/>
      <point x="775.3" y="1446.0"/>
      <point x="575.1" y="1234.2"/>
      <point x="575.1" y="946.2" type="curve" smooth="yes"/>
      <point x="575.1" y="678.3"/>
      <point x="731.5" y="490.0"/>
    </contour>
  </outline>
</glyph>
<glyph name="ordfeminine" format="2">
  <advance width="1006.0"/>
  <unicode hex="00AA"/>
  <outline>
    <contour>
      <point x="400.0" y="704.0" type="curve" smooth="yes"/>
      <point x="542.0" y="704.0"/>
      <point x="648.0" y="782.0"/>
      <point x="708.0" y="840.0" type="curve"/>
      <point x="708.0" y="772.0" type="line" smooth="yes"/>
      <point x="708.0" y="710.0"/>
      <point x="744.0" y="706.0"/>
      <point x="802.0" y="706.0" type="curve" smooth="yes"/>
      <point x="858.0" y="706.0"/>
      <point x="922.0" y="720.0"/>
      <point x="962.0" y="730.0" type="curve"/>
      <point x="962.0" y="800.0" type="line"/>
      <point x="850.0" y="800.0" type="line"/>
      <point x="850.0" y="1294.0" type="line" smooth="yes"/>
      <point x="850.0" y="1536.0"/>
      <point x="746.0" y="1618.0"/>
      <point x="518.0" y="1618.0" type="curve" smooth="yes"/>
      <point x="394.0" y="1618.0"/>
      <point x="220.0" y="1556.0"/>
      <point x="144.0" y="1508.0" type="curve"/>
      <point x="192.0" y="1424.0" type="line"/>
      <point x="260.0" y="1458.0"/>
      <point x="374.0" y="1502.0"/>
      <point x="486.0" y="1502.0" type="curve" smooth="yes"/>
      <point x="648.0" y="1502.0"/>
      <point x="700.0" y="1456.0"/>
      <point x="700.0" y="1274.0" type="curve" smooth="yes"/>
      <point x="700.0" y="1246.0" type="line"/>
      <point x="326.0" y="1236.0"/>
      <point x="126.0" y="1146.0"/>
      <point x="126.0" y="950.0" type="curve" smooth="yes"/>
      <point x="126.0" y="804.0"/>
      <point x="242.0" y="704.0"/>
    </contour>
    <contour>
      <point x="464.0" y="810.0" type="curve" smooth="yes"/>
      <point x="352.0" y="810.0"/>
      <point x="290.0" y="874.0"/>
      <point x="290.0" y="962.0" type="curve" smooth="yes"/>
      <point x="290.0" y="1094.0"/>
      <point x="400.0" y="1154.0"/>
      <point x="700.0" y="1162.0" type="curve"/>
      <point x="700.0" y="914.0" type="line"/>
      <point x="670.0" y="880.0"/>
      <point x="556.0" y="810.0"/>
    </contour>
  </outline>
</glyph>
<glyph name="guillemetleft" format="2">
  <advance width="1138.2"/>
  <unicode hex="00AB"/>
  <outline>
    <contour>
      <point x="495.4" y="971.5" type="line"/>
      <point x="95.6" y="580.7" type="line"/>
      <point x="95.6" y="504.7" type="line"/>
      <point x="495.4" y="124.5" type="line"/>
      <point x="549.6999999999999" y="167.8" type="line"/>
      <point x="259.7" y="544.7" type="line"/>
      <point x="549.6999999999999" y="933.5" type="line"/>
    </contour>
    <contour>
      <point x="969.7" y="971.5" type="line"/>
      <point x="546.1" y="580.7" type="line"/>
      <point x="546.1" y="504.7" type="line"/>
      <point x="969.7" y="124.5" type="line"/>
      <point x="1024.0" y="167.8" type="line"/>
      <point x="710.2" y="544.7" type="line"/>
      <point x="1024.0" y="933.5" type="line"/>
    </contour>
  </outline>
</glyph>
<glyph name="micro" format="2">
  <advance width="1078.6"/>
  <unicode hex="00B5"/>
  <outline>
    <contour>
      <point x="145.1" y="-364.0" type="line"/>
      <point x="268.6" y="-364.0" type="line"/>
      <point x="268.6" y="100.10000000000001" type="line"/>
      <point x="311.3" y="30.799999999999997"/>
      <point x="393.5" y="-20.0"/>
      <point x="520.0" y="-20.0" type="curve" smooth="yes"/>
      <point x="626.7" y="-20.0"/>
      <point x="725.5" y="50.2"/>
      <point x="779.0" y="156.8" type="curve"/>
      <point x="779.0" y="63.0" type="line" smooth="yes"/>
      <point x="779.0" y="32.0"/>
      <point x="790.1" y="-16.9"/>
      <point x="876.9" y="-16.9" type="curve" smooth="yes"/>
      <point x="931.9" y="-16.9"/>
      <point x="989.2" y="-0.5999999999999996"/>
      <point x="1030.0" y="13.399999999999999" type="curve"/>
      <point x="1030.0" y="59.300000000000004" type="line"/>
      <point x="917.8" y="59.3" type="line"/>
      <point x="917.5" y="1031.9" type="line"/>
      <point x="894.9" y="1047.2" type="line"/>
      <point x="868.8" y="1047.2" type="line"/>
      <point x="639.5" y="1003.0" type="line"/>
      <point x="639.5" y="961.9" type="line"/>
      <point x="772.9" y="927.2" type="line"/>
      <point x="772.9" y="212.5" type="line"/>
      <point x="712.1" y="130.4"/>
      <point x="620.9" y="83.8"/>
      <point x="526.6" y="83.8" type="curve" smooth="yes"/>
      <point x="319.9" y="83.8"/>
      <point x="289.6" y="254.2"/>
      <point x="289.6" y="320.8" type="curve" smooth="yes"/>
      <point x="289.6" y="1031.6" type="line"/>
      <point x="268.3" y="1047.2" type="line"/>
      <point x="238.0" y="1047.2" type="line"/>
      <point x="21.5" y="1003.0" type="line"/>
      <point x="21.5" y="961.9" type="line"/>
      <point x="144.4" y="927.5" type="line"/>
    </contour>
  </outline>
</glyph>
<glyph name="questiondown" format="2">
  <advance width="827.7"/>
  <unicode hex="00BF"/>
  <outline>
    <contour>
      <point x="554.6" y="1082.3" type="curve"/>
      <point x="471.1" y="1082.3" type="line"/>
      <point x="479.2" y="986.3"/>
      <point x="484.1" y="899.8"/>
      <point x="484.1" y="818.9" type="curve" smooth="yes"/>
      <point x="484.1" y="800.9"/>
      <point x="485.3" y="771.6"/>
      <point x="483.3" y="755.6" type="curve"/>
      <point x="396.6" y="568.4"/>
      <point x="67.4" y="506.1"/>
      <point x="67.4" y="151.0" type="curve" smooth="yes"/>
      <point x="67.4" y="-111.0"/>
      <point x="235.6" y="-308.0"/>
      <point x="593.1" y="-308.0" type="curve" smooth="yes"/>
      <point x="670.5" y="-308.0"/>
      <point x="764.5" y="-290.0"/>
      <point x="803.7" y="-266.0" type="curve"/>
      <point x="782.6" y="-192.8" type="line"/>
      <point x="743.4" y="-210.8"/>
      <point x="676.2" y="-218.8"/>
      <point x="621.4" y="-218.8" type="curve" smooth="yes"/>
      <point x="349.3" y="-218.8"/>
      <point x="177.0" y="-40.5"/>
      <point x="177.0" y="187.4" type="curve" smooth="yes"/>
      <point x="177.0" y="221.2"/>
      <point x="178.4" y="283.0"/>
      <point x="184.7" y="320.3" type="curve"/>
      <point x="298.6" y="520.6"/>
      <point x="609.9" y="564.2"/>
      <point x="609.9" y="784.8" type="curve"/>
      <point x="605.9" y="854.8"/>
      <point x="588.1" y="974.3"/>
    </contour>
    <contour>
      <point x="552.6" y="1496.0" type="curve" smooth="yes"/>
      <point x="494.5" y="1496.0"/>
      <point x="440.3" y="1449.6"/>
      <point x="440.3" y="1382.1" type="curve" smooth="yes"/>
      <point x="440.3" y="1331.8"/>
      <point x="468.7" y="1285.4"/>
      <point x="535.4" y="1285.4" type="curve" smooth="yes"/>
      <point x="592.4" y="1285.4"/>
      <point x="648.5" y="1334.4"/>
      <point x="648.5" y="1399.3" type="curve" smooth="yes"/>
      <point x="648.5" y="1458.2"/>
      <point x="604.3" y="1496.0"/>
    </contour>
  </outline>
</glyph>
<glyph name="Eth" format="2">
  <advance width="1394.4"/>
  <unicode hex="00D0"/>
  <anchor x="711.9" y="0.0" name="bottom"/>
  <anchor x="687.9" y="764.0" name="center"/>
  <anchor x="269.3" y="763.0" name="lstem"/>
  <anchor x="711.9" y="1486.0" name="top"/>
  <outline>
    <contour>
      <point x="650.5" y="808.0" type="line"/>
      <point x="61.300000000000004" y="808.0" type="line"/>
      <point x="61.300000000000004" y="726.0" type="line"/>
      <point x="650.5" y="726.0" type="line"/>
    </contour>
    <component base="D"/>
  </outline>
</glyph>
<glyph name="multiply" format="2">
  <advance width="1167.3"/>
  <unicode hex="00D7"/>
  <outline>
    <contour>
      <point x="519.2" y="653.1" type="line"/>
      <point x="173.0" y="296.5" type="line"/>
      <point x="241.6" y="222.5" type="line"/>
      <point x="581.5" y="588.7" type="line"/>
      <point x="921.5" y="222.5" type="line"/>
      <point x="994.3" y="296.5" type="line"/>
      <point x="648.7" y="651.7" type="line"/>
      <point x="994.3" y="1007.7" type="line"/>
      <point x="921.5" y="1082.3" type="line"/>
      <point x="583.6" y="718.2" type="line"/>
      <point x="241.6" y="1082.3" type="line"/>
      <point x="173.0" y="1008.3" type="line"/>
    </contour>
  </outline>
</glyph>
<glyph name="Thorn" format="2">
  <advance width="1107.6"/>
  <unicode hex="00DE"/>
  <outline>
    <contour>
      <point x="193.7" y="78.1" type="line"/>
      <point x="55.2" y="51.1" type="line"/>
      <point x="55.2" y="0.0" type="line"/>
      <point x="512.8" y="0.0" type="line"/>
      <point x="512.8" y="51.1" type="line"/>
      <point x="351.5" y="78.1" type="line"/>
      <point x="351.5" y="330.4" type="line"/>
      <point x="396.6" y="322.3"/>
      <point x="502.1" y="316.8"/>
      <point x="564.3" y="316.8" type="curve" smooth="yes"/>
      <point x="863.2" y="316.8"/>
      <point x="1055.4" y="489.1"/>
      <point x="1055.4" y="777.2" type="curve" smooth="yes"/>
      <point x="1055.4" y="1029.4"/>
      <point x="898.8" y="1182.5"/>
      <point x="602.3" y="1182.5" type="curve" smooth="yes"/>
      <point x="497.2" y="1182.5"/>
      <point x="416.5" y="1169.1"/>
      <point x="351.5" y="1166.7" type="curve"/>
      <point x="351.5" y="1408.0" type="line"/>
      <point x="502.1" y="1435.6" type="line"/>
      <point x="502.1" y="1486.6" type="line"/>
      <point x="57.1" y="1486.6" type="line"/>
      <point x="57.1" y="1435.6" type="line"/>
      <point x="193.7" y="1408.0" type="line"/>
    </contour>
    <contour>
      <point x="556.2" y="376.0" type="curve" smooth="yes"/>
      <point x="490.6" y="376.0"/>
      <point x="413.0" y="385.9"/>
      <point x="351.5" y="398.0" type="curve"/>
      <point x="351.5" y="1088.9" type="line"/>
      <point x="403.1" y="1105.3"/>
      <point x="496.9" y="1118.1"/>
      <point x="570.1" y="1118.7" type="curve" smooth="yes"/>
      <point x="799.6" y="1120.5"/>
      <point x="884.6" y="995.3"/>
      <point x="884.6" y="774.2" type="curve" smooth="yes"/>
      <point x="884.6" y="512.4"/>
      <point x="756.3" y="376.0"/>
    </contour>
  </outline>
</glyph>
<glyph name="germandbls" format="2">
  <advance width="1036.4"/>
  <unicode hex="00DF"/>
  <outline>
    <contour>
      <point x="131.0" y="86.6" type="line"/>
      <point x="2.999999999999999" y="57.3" type="line"/>
      <point x="2.999999999999999" y="5.6000000000000005" type="line"/>
      <point x="277.5" y="5.6000000000000005" type="line"/>
      <point x="277.5" y="1014.0" type="line" smooth="yes"/>
      <point x="277.5" y="1301.0"/>
      <point x="359.0" y="1485.1"/>
      <point x="564.5" y="1485.1" type="curve" smooth="yes"/>
      <point x="665.3" y="1485.1"/>
      <point x="750.8" y="1409.6"/>
      <point x="750.8" y="1261.8" type="curve" smooth="yes"/>
      <point x="750.8" y="1020.2"/>
      <point x="542.4" y="916.0"/>
      <point x="542.4" y="797.1" type="curve" smooth="yes"/>
      <point x="542.4" y="587.7"/>
      <point x="853.8" y="523.3"/>
      <point x="853.8" y="284.0" type="curve" smooth="yes"/>
      <point x="853.8" y="157.7"/>
      <point x="787.2" y="58.9"/>
      <point x="611.6" y="58.9" type="curve" smooth="yes"/>
      <point x="532.1" y="58.9"/>
      <point x="474.7" y="88.2"/>
      <point x="430.29999999999995" y="111.7" type="curve"/>
      <point x="430.29999999999995" y="5.6000000000000005" type="line"/>
      <point x="462.7" y="-4.3999999999999995"/>
      <point x="526.1" y="-16.4"/>
      <point x="596.9" y="-16.4" type="curve" smooth="yes"/>
      <point x="801.0" y="-16.4"/>
      <point x="1011.0" y="78.9"/>
      <point x="1011.0" y="318.5" type="curve" smooth="yes"/>
      <point x="1011.0" y="616.0"/>
      <point x="651.5" y="702.7"/>
      <point x="651.5" y="846.3" type="curve" smooth="yes"/>
      <point x="651.5" y="968.5"/>
      <point x="899.2" y="1056.7"/>
      <point x="899.2" y="1295.8" type="curve" smooth="yes"/>
      <point x="899.2" y="1466.3"/>
      <point x="748.8" y="1547.8"/>
      <point x="594.4" y="1547.8" type="curve" smooth="yes"/>
      <point x="313.2" y="1547.8"/>
      <point x="131.0" y="1345.3"/>
      <point x="131.0" y="956.8" type="curve" smooth="yes"/>
    </contour>
  </outline>
</glyph>
<glyph name="ae" format="2">
  <advance width="1517.3"/>
  <unicode hex="00E6"/>
  <anchor x="734.5" y="0.0" name="bottom"/>
  <anchor x="774.5" y="1110.0" name="top"/>
  <outline>
    <contour>
      <point x="326.0" y="-16.4" type="curve" smooth="yes"/>
      <point x="494.0" y="-16.4"/>
      <point x="641.7" y="100.8"/>
      <point x="693.9" y="222.5" type="curve"/>
      <point x="760.7" y="78.2"/>
      <point x="894.8" y="-26.2"/>
      <point x="1105.3" y="-23.4" type="curve" smooth="yes"/>
      <point x="1227.2" y="-22.0"/>
      <point x="1362.7" y="36.4"/>
      <point x="1435.9" y="108.8" type="curve"/>
      <point x="1411.6" y="159.0" type="line"/>
      <point x="1352.3" y="108.5"/>
      <point x="1235.7" y="59.099999999999994"/>
      <point x="1121.0" y="59.099999999999994" type="curve" smooth="yes"/>
      <point x="891.4" y="59.099999999999994"/>
      <point x="799.8" y="293.8"/>
      <point x="799.8" y="533.7" type="curve"/>
      <point x="1462.6" y="533.7" type="line"/>
      <point x="1469.8" y="570.0"/>
      <point x="1473.2" y="612.7"/>
      <point x="1473.2" y="690.8" type="curve"/>
      <point x="1470.2" y="936.2"/>
      <point x="1328.7" y="1069.3"/>
      <point x="1099.7" y="1069.3" type="curve" smooth="yes"/>
      <point x="935.1" y="1069.3"/>
      <point x="804.1" y="963.7"/>
      <point x="762.8" y="890.7" type="curve"/>
      <point x="719.6" y="1015.9"/>
      <point x="618.3" y="1065.5"/>
      <point x="479.7" y="1065.5" type="curve" smooth="yes"/>
      <point x="308.1" y="1065.5"/>
      <point x="139.7" y="977.1"/>
      <point x="82.6" y="934.6" type="curve"/>
      <point x="114.1" y="875.1" type="line"/>
      <point x="187.9" y="920.6"/>
      <point x="311.4" y="968.8"/>
      <point x="448.0" y="968.8" type="curve" smooth="yes"/>
      <point x="599.3" y="968.8"/>
      <point x="635.0" y="875.5"/>
      <point x="636.2" y="720.7" type="curve"/>
      <point x="636.5" y="608.6" type="line"/>
      <point x="375.9" y="606.8"/>
      <point x="34.1" y="512.6"/>
      <point x="34.1" y="258.4" type="curve" smooth="yes"/>
      <point x="34.1" y="67.0"/>
      <point x="180.2" y="-16.4"/>
    </contour>
    <contour>
      <point x="801.1" y="592.7" type="line"/>
      <point x="802.3" y="807.5"/>
      <point x="900.4" y="1003.7"/>
      <point x="1091.2" y="1003.7" type="curve" smooth="yes"/>
      <point x="1253.8" y="1003.7"/>
      <point x="1317.5" y="881.1"/>
      <point x="1317.5" y="671.6" type="curve" smooth="yes"/>
      <point x="1317.5" y="650.6"/>
      <point x="1316.2" y="631.2"/>
      <point x="1312.8" y="605.3" type="curve"/>
    </contour>
    <contour>
      <point x="375.6" y="77.8" type="curve" smooth="yes"/>
      <point x="275.9" y="77.8"/>
      <point x="192.5" y="149.2"/>
      <point x="192.5" y="277.0" type="curve" smooth="yes"/>
      <point x="192.5" y="448.0"/>
      <point x="388.7" y="547.9"/>
      <point x="636.5" y="548.5" type="curve"/>
      <point x="636.5" y="427.5"/>
      <point x="646.4" y="348.3"/>
      <point x="675.5" y="264.7" type="curve"/>
      <point x="612.8" y="162.4"/>
      <point x="494.59999999999997" y="77.8"/>
    </contour>
  </outline>
</glyph>
<glyph name="eth" format="2">
  <advance width="1038.3"/>
  <unicode hex="00F0"/>
  <outline>
    <contour>
      <point x="504.8" y="-22.0" type="curve" smooth="yes"/>
      <point x="862.8" y="-22.0"/>
      <point x="979.6" y="350.4"/>
      <point x="979.6" y="608.9" type="curve" smooth="yes"/>
      <point x="979.6" y="1021.7"/>
      <point x="827.0" y="1362.9"/>
      <point x="484.3" y="1570.9" type="curve"/>
      <point x="480.2" y="1506.3" type="line"/>
      <point x="622.3" y="1699.4" type="line"/>
      <point x="554.2" y="1745.3" type="line"/>
      <point x="411.0" y="1547.2" type="line"/>
      <point x="486.3" y="1570.9" type="line"/>
      <point x="372.3" y="1636.3"/>
      <point x="306.3" y="1659.7"/>
      <point x="186.3" y="1695.8" type="curve"/>
      <point x="164.2" y="1633.7" type="line"/>
      <point x="233.2" y="1613.7"/>
      <point x="356.2" y="1562.8"/>
      <point x="418.2" y="1510.8" type="curve"/>
      <point x="426.3" y="1570.9" type="line"/>
      <point x="267.8" y="1362.7" type="line"/>
      <point x="341.8" y="1323.0" type="line"/>
      <point x="493.5" y="1526.0" type="line"/>
      <point x="416.2" y="1508.8" type="line"/>
      <point x="629.4" y="1351.5"/>
      <point x="740.0" y="1166.5"/>
      <point x="775.8" y="994.5" type="curve"/>
      <point x="726.4" y="1029.7"/>
      <point x="648.9" y="1069.3"/>
      <point x="537.9" y="1069.3" type="curve" smooth="yes"/>
      <point x="279.3" y="1069.3"/>
      <point x="60.199999999999996" y="838.2"/>
      <point x="60.199999999999996" y="502.6" type="curve" smooth="yes"/>
      <point x="60.199999999999996" y="232.6"/>
      <point x="182.2" y="-22.0"/>
    </contour>
    <contour>
      <point x="517.2" y="41.8" type="curve" smooth="yes"/>
      <point x="294.3" y="41.8"/>
      <point x="228.9" y="320.1"/>
      <point x="228.9" y="518.1" type="curve" smooth="yes"/>
      <point x="228.9" y="771.7"/>
      <point x="334.1" y="1004.4"/>
      <point x="533.9" y="1004.4" type="curve" smooth="yes"/>
      <point x="672.4" y="1004.4"/>
      <point x="746.4" y="944.6"/>
      <point x="798.2" y="874.7" type="curve"/>
      <point x="810.0" y="803.7"/>
      <point x="816.5" y="675.2"/>
      <point x="816.5" y="559.1" type="curve" smooth="yes"/>
      <point x="816.5" y="256.0"/>
      <point x="735.2" y="41.8"/>
    </contour>
  </outline>
</glyph>
<glyph name="thorn" format="2">
  <advance width="1056.6"/>
  <unicode hex="00FE"/>
  <outline>
    <contour>
      <point x="1.8000000000000007" y="-454.6" type="line"/>
      <point x="450.4" y="-454.6" type="line"/>
      <point x="450.4" y="-406.0" type="line"/>
      <point x="275.7" y="-378.4" type="line"/>
      <point x="275.1" y="-151.6" type="line"/>
      <point x="268.3" y="19.6" type="line"/>
      <point x="312.8" y="-1.5000000000000018"/>
      <point x="401.5" y="-22.0"/>
      <point x="497.6" y="-22.0" type="curve" smooth="yes"/>
      <point x="790.2" y="-22.0"/>
      <point x="1004.6" y="229.5"/>
      <point x="1004.6" y="561.0" type="curve" smooth="yes"/>
      <point x="1004.6" y="893.9"/>
      <point x="841.7" y="1068.6"/>
      <point x="603.0" y="1068.6" type="curve" smooth="yes"/>
      <point x="431.6" y="1068.6"/>
      <point x="320.5" y="961.6"/>
      <point x="277.8" y="906.8" type="curve"/>
      <point x="277.8" y="1620.5" type="line"/>
      <point x="256.6" y="1638.0" type="line"/>
      <point x="224.60000000000002" y="1638.0" type="line"/>
      <point x="-14.900000000000006" y="1605.4" type="line"/>
      <point x="-14.900000000000006" y="1564.3" type="line"/>
      <point x="131.9" y="1545.6" type="line"/>
      <point x="131.89999999999998" y="-377.7" type="line"/>
      <point x="1.8000000000000007" y="-406.0" type="line"/>
    </contour>
    <contour>
      <point x="490.6" y="43.6" type="curve" smooth="yes"/>
      <point x="381.5" y="43.6"/>
      <point x="303.4" y="89.30000000000001"/>
      <point x="277.8" y="126.2" type="curve"/>
      <point x="277.8" y="848.0" type="line"/>
      <point x="323.1" y="898.0"/>
      <point x="424.3" y="984.4"/>
      <point x="556.6" y="984.4" type="curve" smooth="yes"/>
      <point x="712.2" y="984.4"/>
      <point x="836.1" y="845.4"/>
      <point x="834.9" y="542.8" type="curve" smooth="yes"/>
      <point x="833.1" y="213.6"/>
      <point x="705.9" y="43.6"/>
    </contour>
  </outline>
</glyph>
<glyph name="dcroat" format="2">
  <advance width="1058.1"/>
  <unicode hex="0111"/>
  <anchor x="538.4" y="0.0" name="bottom"/>
  <anchor x="536.3" y="570.0" name="center"/>
  <anchor x="333.0" y="1158.0" name="top"/>
  <anchor x="1042.8" y="1110.0" name="topright"/>
  <outline>
    <contour>
      <point x="851.4" y="1312.4" type="line"/>
      <point x="468.5" y="1283.6" type="line"/>
      <point x="645.2" y="1241.6" type="line"/>
      <point x="1028.1" y="1270.4" type="line"/>
    </contour>
    <component base="d"/>
  </outline>
</glyph>
<glyph name="Hbar" format="2">
  <advance width="1459.9"/>
  <unicode hex="0126"/>
  <anchor x="728.9" y="0.0" name="bottom"/>
  <anchor x="1418.4" y="0.0" name="bottomright"/>
  <anchor x="730.3" y="743.0" name="center"/>
  <anchor x="735.1" y="1486.0" name="top"/>
  <anchor x="6.200000000000001" y="1486.0" name="topleft"/>
  <outline>
    <contour>
      <point x="199.0" y="78.1" type="line"/>
      <point x="50.5" y="51.00000000000001" type="line"/>
      <point x="50.5" y="0.0" type="line"/>
      <point x="511.7" y="0.0" type="line"/>
      <point x="511.7" y="51.00000000000001" type="line"/>
      <point x="357.4" y="78.1" type="line"/>
      <point x="357.4" y="640.8" type="line"/>
      <point x="1102.5" y="640.8" type="line"/>
      <point x="1102.5" y="78.1" type="line"/>
      <point x="950.0" y="51.00000000000001" type="line"/>
      <point x="950.0" y="0.0" type="line"/>
      <point x="1409.4" y="0.0" type="line"/>
      <point x="1409.4" y="51.00000000000001" type="line"/>
      <point x="1260.9" y="78.1" type="line"/>
      <point x="1260.9" y="1407.4" type="line"/>
      <point x="1406.3" y="1435.0" type="line"/>
      <point x="1406.3" y="1486.0" type="line"/>
      <point x="950.6" y="1486.0" type="line"/>
      <point x="950.6" y="1435.0" type="line"/>
      <point x="1102.5" y="1407.4" type="line"/>
      <point x="1102.5" y="716.0" type="line"/>
      <point x="357.4" y="716.0" type="line"/>
      <point x="357.4" y="1407.4" type="line"/>
      <point x="511.1" y="1435.0" type="line"/>
      <point x="511.1" y="1486.0" type="line"/>
      <point x="51.800000000000004" y="1486.0" type="line"/>
      <point x="51.800000000000004" y="1435.0" type="line"/>
      <point x="199.0" y="1407.4" type="line"/>
    </contour>
    <contour>
      <point x="1404.3" y="1106.5" type="line"/>
      <point x="52.800000000000004" y="1106.5" type="line"/>
      <point x="52.800000000000004" y="1032.7" type="line"/>
      <point x="1404.3" y="1032.7" type="line"/>
    </contour>
  </outline>
</glyph>
<glyph name="iogonek" format="2">
  <advance width="509.2"/>
  <unicode hex="012F"/>
  <anchor x="322.3" y="0.0" name="bottom"/>
  <anchor x="402.3" y="20.0" name="ogonek"/>
  <anchor x="254.4" y="1408.6" name="top"/>
  <outline>
    <contour>
      <point x="234.70000000000002" y="-479.0" type="curve" smooth="yes"/>
      <point x="362.7" y="-479.0"/>
      <point x="403.8" y="-434.3"/>
      <point x="437.0" y="-406.8" type="curve"/>
      <point x="437.0" y="-334.1" type="line"/>
      <point x="408.6" y="-353.4"/>
      <point x="361.9" y="-389.0"/>
      <point x="286.7" y="-389.0" type="curve" smooth="yes"/>
      <point x="224.60000000000002" y="-389.0"/>
      <point x="166.20000000000002" y="-368.3"/>
      <point x="166.20000000000002" y="-264.7" type="curve" smooth="yes"/>
      <point x="166.20000000000002" y="-181.2"/>
      <point x="235.8" y="-51.6"/>
      <point x="331.8" y="0.7" type="curve"/>
      <point x="281.4" y="40.5" type="line"/>
      <point x="245.0" y="0.7" type="line"/>
      <point x="142.1" y="-63.6"/>
      <point x="62.400000000000006" y="-190.4"/>
      <point x="62.400000000000006" y="-295.0" type="curve" smooth="yes"/>
      <point x="62.400000000000006" y="-415.6"/>
      <point x="148.8" y="-479.0"/>
    </contour>
    <component base="i"/>
  </outline>
</glyph>
<glyph name="idotless" format="2">
  <advance width="509.2"/>
  <unicode hex="0131"/>
  <anchor x="322.3" y="0.0" name="bottom"/>
  <anchor x="402.3" y="20.0" name="ogonek"/>
  <anchor x="254.4" y="1110.6" name="top"/>
  <outline>
    <contour>
      <point x="189.7" y="77.5" type="line"/>
      <point x="54.3" y="50.99999999999999" type="line"/>
      <point x="54.3" y="0.0" type="line"/>
      <point x="471.1" y="0.0" type="line"/>
      <point x="471.1" y="50.99999999999999" type="line"/>
      <point x="337.7" y="76.9" type="line"/>
      <point x="337.7" y="1029.2" type="line"/>
      <point x="315.2" y="1047.2" type="line"/>
      <point x="274.1" y="1047.2" type="line"/>
      <point x="54.7" y="1001.2" type="line"/>
      <point x="54.7" y="955.3" type="line"/>
      <point x="189.7" y="920.6" type="line"/>
    </contour>
  </outline>
</glyph>
<glyph name="kgreenlandic" format="2">
  <advance width="1017.0999999999999"/>
  <unicode hex="0138"/>
  <outline>
    <contour>
      <point x="161.2" y="76.3" type="line"/>
      <point x="29.499999999999993" y="50.4" type="line"/>
      <point x="29.499999999999993" y="0.0" type="line"/>
      <point x="429.09999999999997" y="0.0" type="line"/>
      <point x="429.09999999999997" y="49.8" type="line"/>
      <point x="309.3" y="76.3" type="line"/>
      <point x="309.3" y="226.2" type="line"/>
      <point x="304.6" y="336.7" type="line"/>
      <point x="478.8" y="522.5" type="line"/>
      <point x="769.4" y="76.3" type="line"/>
      <point x="646.3" y="49.8" type="line"/>
      <point x="646.3" y="0.0" type="line"/>
      <point x="1061.1" y="0.0" type="line"/>
      <point x="1061.1" y="51.8" type="line"/>
      <point x="939.0999999999999" y="76.3" type="line"/>
      <point x="570.8" y="606.0" type="line"/>
      <point x="881.8" y="956.9" type="line"/>
      <point x="1004.4" y="984.0" type="line"/>
      <point x="1004.4" y="1035.9" type="line"/>
      <point x="623.4" y="1035.9" type="line"/>
      <point x="623.4" y="984.0" type="line"/>
      <point x="757.3" y="953.8" type="line"/>
      <point x="305.3" y="431.2" type="line"/>
      <point x="309.3" y="596.8" type="line"/>
      <point x="309.3" y="1029.2" type="line"/>
      <point x="286.7" y="1047.2" type="line"/>
      <point x="246.3" y="1047.2" type="line"/>
      <point x="25.599999999999994" y="1001.2" type="line"/>
      <point x="25.599999999999994" y="955.3" type="line"/>
      <point x="161.2" y="920.6" type="line"/>
    </contour>
  </outline>
</glyph>
<glyph name="Lslash" format="2">
  <advance width="1117.0"/>
  <unicode hex="0141"/>
  <anchor x="653.2" y="0.0" name="bottom"/>
  <anchor x="645.4" y="744.0" name="center"/>
  <anchor x="375.4" y="1486.0" name="top"/>
  <anchor x="858.4" y="1110.0" name="topright"/>
  <outline>
    <contour>
      <point x="283.6" y="793.0" type="line"/>
      <point x="50.5" y="693.0" type="line"/>
      <point x="50.5" y="599.5" type="line"/>
      <point x="283.6" y="697.5" type="line"/>
      <point x="315.6" y="709.5" type="line"/>
      <point x="881.5" y="956.5" type="line"/>
      <point x="881.5" y="1056.0" type="line"/>
      <point x="317.6" y="807.0" type="line"/>
    </contour>
    <component base="L" xOffset="21.500000000000004"/>
  </outline>
</glyph>
<glyph name="lslash" format="2">
  <advance width="613.4"/>
  <unicode hex="0142"/>
  <anchor x="303.4" y="0.0" name="bottom"/>
  <anchor x="308.1" y="1634.0" name="top"/>
  <anchor x="551.1" y="1110.0" name="topright"/>
  <outline>
    <contour>
      <point x="254.0" y="890.0" type="line"/>
      <point x="41.3" y="776.7" type="line"/>
      <point x="41.3" y="688.1" type="line"/>
      <point x="254.0" y="800.0" type="line"/>
      <point x="353.1" y="845.0" type="line"/>
      <point x="571.0" y="963.4" type="line"/>
      <point x="571.0" y="1053.3" type="line"/>
      <point x="353.1" y="934.3" type="line"/>
    </contour>
    <contour>
      <point x="233.7" y="77.5" type="line"/>
      <point x="96.2" y="50.99999999999999" type="line"/>
      <point x="96.2" y="0.0" type="line"/>
      <point x="519.3" y="0.0" type="line"/>
      <point x="519.3" y="50.99999999999999" type="line"/>
      <point x="379.0" y="76.9" type="line"/>
      <point x="379.0" y="1621.1" type="line"/>
      <point x="357.8" y="1638.0" type="line"/>
      <point x="327.8" y="1638.0" type="line"/>
      <point x="88.2" y="1605.4" type="line"/>
      <point x="88.2" y="1564.3" type="line"/>
      <point x="233.7" y="1545.6" type="line"/>
    </contour>
  </outline>
</glyph>
<glyph name="Eng" format="2">
  <advance width="1428.7"/>
  <unicode hex="014A"/>
  <outline>
    <contour>
      <point x="191.2" y="78.1" type="line"/>
      <point x="37.499999999999986" y="51.0" type="line"/>
      <point x="37.499999999999986" y="0.0" type="line"/>
      <point x="457.0" y="0.0" type="line"/>
      <point x="457.0" y="51.0" type="line"/>
      <point x="297.4" y="78.1" type="line"/>
      <point x="281.3" y="1335.9" type="line"/>
      <point x="411.0" y="1115.4" type="line"/>
      <point x="1082.0" y="51.099999999999994" type="line"/>
      <point x="1073.6" y="-64.0"/>
      <point x="975.0" y="-222.4"/>
      <point x="816.5" y="-300.1" type="curve"/>
      <point x="847.9" y="-354.0" type="line"/>
      <point x="1086.6" y="-271.5"/>
      <point x="1245.7" y="-58.9"/>
      <point x="1247.2" y="173.39999999999998" type="curve" smooth="yes"/>
      <point x="1256.7" y="1408.8" type="line"/>
      <point x="1406.2" y="1435.6" type="line"/>
      <point x="1406.2" y="1486.0" type="line"/>
      <point x="1000.2" y="1486.0" type="line"/>
      <point x="1000.2" y="1435.6" type="line"/>
      <point x="1152.5" y="1406.7" type="line"/>
      <point x="1166.4" y="173.39999999999998" type="line"/>
      <point x="1032.5" y="419.4" type="line"/>
      <point x="358.4" y="1486.0" type="line"/>
      <point x="50.8" y="1486.0" type="line"/>
      <point x="50.8" y="1436.3" type="line"/>
      <point x="104.5" y="1426.2"/>
      <point x="183.7" y="1398.6"/>
      <point x="202.4" y="1380.1" type="curve"/>
    </contour>
  </outline>
</glyph>
<glyph name="eng" format="2">
  <advance width="1108.9"/>
  <unicode hex="014B"/>
  <outline>
    <contour>
      <point x="157.6" y="77.5" type="line"/>
      <point x="34.800000000000004" y="51.0" type="line"/>
      <point x="34.800000000000004" y="0.0" type="line"/>
      <point x="430.6" y="0.0" type="line"/>
      <point x="430.6" y="51.0" type="line"/>
      <point x="305.6" y="77.5" type="line"/>
      <point x="305.6" y="828.2" type="line"/>
      <point x="399.5" y="904.2"/>
      <point x="496.2" y="955.3"/>
      <point x="623.4" y="955.3" type="curve" smooth="yes"/>
      <point x="795.1" y="955.3"/>
      <point x="818.7" y="831.7"/>
      <point x="818.7" y="631.6" type="curve" smooth="yes"/>
      <point x="818.7" y="62.9" type="line" smooth="yes"/>
      <point x="818.7" y="-235.39999999999998"/>
      <point x="776.8" y="-339.4"/>
      <point x="688.4" y="-392.8" type="curve" smooth="yes"/>
      <point x="651.6" y="-415.5"/>
      <point x="596.5" y="-427.0"/>
      <point x="579.3" y="-424.4" type="curve"/>
      <point x="582.4" y="-478.0" type="line"/>
      <point x="604.9" y="-481.1"/>
      <point x="638.2" y="-481.1"/>
      <point x="656.5" y="-481.1" type="curve" smooth="yes"/>
      <point x="841.2" y="-475.7"/>
      <point x="963.9" y="-300.1"/>
      <point x="963.9" y="-24.799999999999997" type="curve" smooth="yes"/>
      <point x="963.9" y="637.3" type="line" smooth="yes"/>
      <point x="963.9" y="893.5"/>
      <point x="913.7" y="1059.7"/>
      <point x="673.2" y="1059.7" type="curve" smooth="yes"/>
      <point x="511.40000000000003" y="1059.7"/>
      <point x="372.9" y="956.7"/>
      <point x="300.2" y="872.9" type="curve"/>
      <point x="300.8" y="948.5" type="line"/>
      <point x="300.8" y="1029.2" type="line"/>
      <point x="278.2" y="1047.2" type="line"/>
      <point x="238.60000000000002" y="1047.2" type="line"/>
      <point x="23.200000000000003" y="1001.2" type="line"/>
      <point x="23.200000000000003" y="955.3" type="line"/>
      <point x="157.6" y="920.6" type="line"/>
    </contour>
  </outline>
</glyph>
<glyph name="OE" format="2">
  <advance width="1974.6"/>
  <unicode hex="0152"/>
  <outline>
    <contour>
      <point x="983.4" y="59.8" type="curve"/>
      <point x="983.4" y="0.0" type="line"/>
      <point x="1879.7" y="0.0" type="line"/>
      <point x="1941.7" y="337.6" type="line"/>
      <point x="1863.1" y="365.2" type="line"/>
      <point x="1745.7" y="87.2" type="line"/>
      <point x="1140.8" y="65.30000000000001" type="line"/>
      <point x="1140.8" y="729.1" type="line"/>
      <point x="1518.9" y="719.6" type="line"/>
      <point x="1550.8" y="542.0" type="line"/>
      <point x="1619.0" y="542.0" type="line"/>
      <point x="1619.0" y="984.0" type="line"/>
      <point x="1550.8" y="984.0" type="line"/>
      <point x="1518.9" y="810.9" type="line"/>
      <point x="1140.8" y="800.0" type="line"/>
      <point x="1140.8" y="1421.0" type="line"/>
      <point x="1664.8" y="1410.6" type="line"/>
      <point x="1743.3" y="1192.0" type="line"/>
      <point x="1817.7" y="1192.0" type="line"/>
      <point x="1789.7" y="1486.0" type="line"/>
      <point x="983.4" y="1486.0" type="line"/>
      <point x="983.4" y="1451.1" type="line"/>
      <point x="905.4" y="1486.3"/>
      <point x="812.6" y="1505.0"/>
      <point x="712.6" y="1504.4" type="curve" smooth="yes"/>
      <point x="341.2" y="1502.0"/>
      <point x="47.4" y="1224.2"/>
      <point x="47.4" y="734.0" type="curve" smooth="yes"/>
      <point x="47.4" y="286.0"/>
      <point x="274.4" y="-20.2"/>
      <point x="679.8" y="-20.2" type="curve" smooth="yes"/>
      <point x="787.8" y="-17.4"/>
      <point x="893.4" y="9.8"/>
    </contour>
    <contour>
      <point x="690.4" y="43.0" type="curve" smooth="yes"/>
      <point x="383.5" y="43.0"/>
      <point x="220.5" y="313.1"/>
      <point x="220.5" y="727.0" type="curve" smooth="yes"/>
      <point x="220.5" y="1202.7"/>
      <point x="409.8" y="1441.8"/>
      <point x="695.8" y="1441.8" type="curve" smooth="yes"/>
      <point x="841.8" y="1441.8"/>
      <point x="925.6" y="1383.6"/>
      <point x="983.4" y="1324.3" type="curve"/>
      <point x="983.4" y="162.6" type="line"/>
      <point x="913.4" y="97.0"/>
      <point x="824.4" y="43.0"/>
    </contour>
  </outline>
</glyph>
<glyph name="oe" format="2">
  <advance width="1693.5"/>
  <unicode hex="0153"/>
  <outline>
    <contour>
      <point x="499.1" y="-22.0" type="curve" smooth="yes"/>
      <point x="645.4" y="-22.0"/>
      <point x="795.9" y="58.50000000000001"/>
      <point x="880.6" y="205.9" type="curve"/>
      <point x="952.3" y="61.7"/>
      <point x="1085.1" y="-22.0"/>
      <point x="1269.0" y="-22.0" type="curve" smooth="yes"/>
      <point x="1403.4" y="-22.0"/>
      <point x="1539.5" y="36.4"/>
      <point x="1612.7" y="108.8" type="curve"/>
      <point x="1588.4" y="159.0" type="line"/>
      <point x="1528.5" y="108.5"/>
      <point x="1411.9" y="59.099999999999994"/>
      <point x="1297.2" y="59.099999999999994" type="curve" smooth="yes"/>
      <point x="1067.6" y="59.099999999999994"/>
      <point x="977.2" y="293.8"/>
      <point x="977.2" y="533.7" type="curve"/>
      <point x="1638.8" y="533.7" type="line"/>
      <point x="1646.0" y="570.0"/>
      <point x="1650.1" y="612.7"/>
      <point x="1649.4" y="690.8" type="curve" smooth="yes"/>
      <point x="1644.3" y="935.5"/>
      <point x="1502.8" y="1069.3"/>
      <point x="1275.9" y="1069.3" type="curve" smooth="yes"/>
      <point x="1131.2" y="1069.3"/>
      <point x="992.4" y="992.1"/>
      <point x="907.0" y="844.7" type="curve"/>
      <point x="843.9" y="977.7"/>
      <point x="722.8" y="1069.3"/>
      <point x="526.1" y="1069.3" type="curve" smooth="yes"/>
      <point x="293.2" y="1069.3"/>
      <point x="50.6" y="865.8"/>
      <point x="50.6" y="513.7" type="curve" smooth="yes"/>
      <point x="50.6" y="235.4"/>
      <point x="170.5" y="-22.0"/>
    </contour>
    <contour>
      <point x="217.2" y="532.7" type="curve" smooth="yes"/>
      <point x="217.2" y="842.2"/>
      <point x="328.8" y="1003.1"/>
      <point x="513.9" y="1003.1" type="curve" smooth="yes"/>
      <point x="725.5" y="1003.1"/>
      <point x="805.9" y="758.3"/>
      <point x="805.9" y="516.0" type="curve" smooth="yes"/>
      <point x="805.9" y="207.8"/>
      <point x="695.0" y="44.199999999999996"/>
      <point x="511.9" y="44.199999999999996" type="curve" smooth="yes"/>
      <point x="300.9" y="44.199999999999996"/>
      <point x="217.2" y="286.4"/>
    </contour>
    <contour>
      <point x="978.5" y="592.7" type="line"/>
      <point x="983.9" y="814.7"/>
      <point x="1076.6" y="1003.7"/>
      <point x="1267.4" y="1003.7" type="curve" smooth="yes"/>
      <point x="1426.5" y="1003.7"/>
      <point x="1493.7" y="881.1"/>
      <point x="1494.3" y="691.2" type="curve" smooth="yes"/>
      <point x="1494.3" y="668.6"/>
      <point x="1493.7" y="634.7"/>
      <point x="1489.0" y="605.3" type="curve"/>
    </contour>
  </outline>
</glyph>
<glyph name="tbar" format="2">
  <advance width="644.6"/>
  <unicode hex="0167"/>
  <anchor x="370.5" y="0.0" name="bottom"/>
  <anchor x="259.7" y="562.0" name="center"/>
  <anchor x="291.0" y="1353.0" name="top"/>
  <anchor x="569.4" y="1110.0" name="topright"/>
  <outline>
    <contour>
      <point x="583.3" y="601.4" type="line"/>
      <point x="43.900000000000006" y="601.4" type="line"/>
      <point x="43.900000000000006" y="526.4" type="line"/>
      <point x="583.3" y="526.4" type="line"/>
    </contour>
    <component base="t"/>
  </outline>
</glyph>
<glyph name="Schwa" format="2">
  <advance width="1339.7"/>
  <unicode hex="018F"/>
  <anchor x="664.5476" y="0.0" name="bottom"/>
  <anchor x="664.5476" y="1486.0" name="top"/>
  <outline>
    <contour>
      <point x="631.0" y="-22.0" type="curve" smooth="yes"/>
      <point x="1001.6" y="-22.0"/>
      <point x="1292.3" y="267.5"/>
      <point x="1292.3" y="751.3" type="curve" smooth="yes"/>
      <point x="1292.3" y="1215.5"/>
      <point x="1049.6" y="1501.3"/>
      <point x="656.4" y="1502.0" type="curve" smooth="yes"/>
      <point x="377.7" y="1502.7"/>
      <point x="241.5" y="1430.0"/>
      <point x="129.5" y="1424.0" type="curve"/>
      <point x="136.6" y="1119.1" type="line"/>
      <point x="225.1" y="1119.1" type="line"/>
      <point x="268.1" y="1330.4" type="line"/>
      <point x="326.1" y="1395.0"/>
      <point x="503.7" y="1438.1"/>
      <point x="648.2" y="1438.1" type="curve" smooth="yes"/>
      <point x="951.4" y="1438.1"/>
      <point x="1111.7" y="1157.0"/>
      <point x="1116.5" y="764.8" type="curve"/>
      <point x="59.199999999999996" y="764.8" type="line"/>
      <point x="49.199999999999996" y="718.8"/>
      <point x="43.599999999999994" y="655.6"/>
      <point x="43.599999999999994" y="573.6" type="curve"/>
      <point x="46.0" y="197.6"/>
      <point x="288.0" y="-22.0"/>
    </contour>
    <contour>
      <point x="646.3" y="41.2" type="curve" smooth="yes"/>
      <point x="337.3" y="41.2"/>
      <point x="212.4" y="334.0"/>
      <point x="212.4" y="554.0" type="curve" smooth="yes"/>
      <point x="212.4" y="606.0"/>
      <point x="218.6" y="653.2"/>
      <point x="224.6" y="689.2" type="curve"/>
      <point x="1115.1" y="689.2" type="line"/>
      <point x="1112.1" y="268.1"/>
      <point x="921.9" y="41.2"/>
    </contour>
  </outline>
</glyph>
<glyph name="florin" format="2">
  <advance width="921.0"/>
  <unicode hex="0192"/>
  <outline>
    <contour>
      <point x="143.8" y="981.6" type="line"/>
      <point x="312.2" y="981.6" type="line"/>
      <point x="207.9" y="-348.0" type="line"/>
      <point x="360.3" y="-348.0" type="line"/>
      <point x="469.3" y="981.6" type="line"/>
      <point x="752.6" y="981.6" type="line"/>
      <point x="759.9" y="1063.2" type="line"/>
      <point x="476.6" y="1063.2" type="line"/>
      <point x="489.1" y="1176.8" type="line"/>
      <point x="518.3" y="1469.7"/>
      <point x="585.4" y="1543.3"/>
      <point x="678.1" y="1543.3" type="curve" smooth="yes"/>
      <point x="743.5" y="1543.3"/>
      <point x="796.3" y="1521.0"/>
      <point x="829.0" y="1491.5" type="curve"/>
      <point x="844.2" y="1625.9" type="line"/>
      <point x="827.4" y="1638.1"/>
      <point x="796.8" y="1646.0"/>
      <point x="753.9" y="1646.0" type="curve" smooth="yes"/>
      <point x="548.2" y="1646.0"/>
      <point x="356.8" y="1393.7"/>
      <point x="329.3" y="1113.8" type="curve"/>
      <point x="323.5" y="1063.2" type="line"/>
      <point x="147.7" y="1028.4" type="line"/>
    </contour>
  </outline>
</glyph>
<glyph name="Ohorn" format="2">
  <advance width="1379.8"/>
  <unicode hex="01A0"/>
  <anchor x="1294.0" y="20.0" name="ogonek"/>
  <anchor x="689.9" y="0.0" name="bottom"/>
  <anchor x="690.5" y="741.0" name="center"/>
  <anchor x="833.1277" y="0.0" name="qq"/>
  <anchor x="692.7" y="1486.0" name="top"/>
  <anchor x="9.899999999999999" y="1486.0" name="topleft"/>
  <anchor x="1271.5" y="1486.0" name="topright"/>
  <outline>
    <contour>
      <point x="1061.5" y="1337.0" type="line"/>
      <point x="1305.5" y="1337.0"/>
      <point x="1429.5" y="1478.0"/>
      <point x="1429.5" y="1686.0" type="curve" smooth="yes"/>
      <point x="1429.5" y="1700.0"/>
      <point x="1427.5" y="1714.0"/>
      <point x="1425.5" y="1730.0" type="curve"/>
      <point x="1275.5" y="1730.0" type="line"/>
      <point x="1277.5" y="1722.0"/>
      <point x="1277.5" y="1710.0"/>
      <point x="1277.5" y="1696.0" type="curve" smooth="yes"/>
      <point x="1277.5" y="1596.0"/>
      <point x="1219.5" y="1408.0"/>
      <point x="1027.5" y="1408.0" type="curve"/>
    </contour>
    <component base="O"/>
  </outline>
</glyph>
<glyph name="uhorn" format="2">
  <advance width="1079.2"/>
  <unicode hex="01B0"/>
  <anchor x="610.0" y="0.0" name="bottom"/>
  <anchor x="898.7" y="20.0" name="ogonek"/>
  <anchor x="526.1" y="1110.0" name="top"/>
  <anchor x="899.6" y="1040.0" name="topright"/>
  <outline>
    <contour>
      <point x="926.3" y="1288.6" type="line"/>
      <point x="931.4" y="1270.3"/>
      <point x="937.2" y="1239.2"/>
      <point x="937.2" y="1200.4" type="curve" smooth="yes"/>
      <point x="937.2" y="1102.9"/>
      <point x="904.1" y="1047.7"/>
      <point x="847.0" y="1044.4" type="curve"/>
      <point x="817.4" y="1007.9" type="line"/>
      <point x="876.1" y="982.7" type="line"/>
      <point x="970.9" y="986.9"/>
      <point x="1084.0" y="1043.0"/>
      <point x="1084.0" y="1208.8" type="curve" smooth="yes"/>
      <point x="1084.0" y="1240.9"/>
      <point x="1077.5" y="1271.1"/>
      <point x="1072.0" y="1288.6" type="curve"/>
    </contour>
    <component base="u"/>
  </outline>
</glyph>
<glyph name="Ezh" format="2">
  <advance width="1098.7"/>
  <unicode hex="01B7"/>
  <anchor x="539.9" y="1486.0" name="top"/>
  <outline>
    <contour>
      <point x="461.3" y="-19.0" type="curve" smooth="yes"/>
      <point x="826.3" y="-19.0"/>
      <point x="1055.3" y="165.0"/>
      <point x="1055.3" y="473.0" type="curve" smooth="yes"/>
      <point x="1055.3" y="731.0"/>
      <point x="863.0" y="834.6"/>
      <point x="661.0" y="834.6" type="curve" smooth="yes"/>
      <point x="621.0" y="834.6"/>
      <point x="566.3" y="824.9"/>
      <point x="520.9" y="815.4" type="curve"/>
      <point x="998.8" y="1423.0" type="line"/>
      <point x="972.9" y="1486.0" type="line"/>
      <point x="114.9" y="1486.0" type="line"/>
      <point x="90.7" y="1132.4" type="line"/>
      <point x="175.9" y="1132.4" type="line"/>
      <point x="252.8" y="1391.6" type="line"/>
      <point x="821.0" y="1408.1" type="line"/>
      <point x="688.9" y="1252.9" type="line"/>
      <point x="365.7" y="807.9" type="line"/>
      <point x="391.1" y="761.0" type="line"/>
      <point x="435.9" y="774.3"/>
      <point x="456.2" y="775.0"/>
      <point x="484.2" y="775.0" type="curve"/>
      <point x="816.5" y="771.4"/>
      <point x="885.6" y="631.3"/>
      <point x="885.6" y="447.0" type="curve" smooth="yes"/>
      <point x="885.6" y="191.4"/>
      <point x="684.3" y="45.6"/>
      <point x="460.9" y="45.6" type="curve" smooth="yes"/>
      <point x="321.3" y="45.6"/>
      <point x="253.4" y="92.80000000000001"/>
      <point x="233.4" y="100.80000000000001" type="curve"/>
      <point x="187.9" y="376.0" type="line"/>
      <point x="96.0" y="376.0" type="line"/>
      <point x="64.3" y="56.0" type="line"/>
      <point x="116.3" y="44.0"/>
      <point x="235.7" y="-19.0"/>
    </contour>
  </outline>
</glyph>
<glyph name="Gstroke" format="2">
  <advance width="1359.0"/>
  <unicode hex="01E4"/>
  <anchor x="737.3" y="0.0" name="bottom"/>
  <anchor x="797.3" y="1486.0" name="top"/>
  <anchor x="1130.4503" y="349.0" name="rstem"/>
  <outline>
    <contour>
      <point x="1330.9" y="412.7" type="line"/>
      <point x="806.4" y="412.7" type="line"/>
      <point x="806.4" y="331.9" type="line"/>
      <point x="1330.9" y="331.9" type="line"/>
    </contour>
    <component base="G"/>
  </outline>
</glyph>
<glyph name="gstroke" format="2">
  <advance width="1042.5"/>
  <unicode hex="01E5"/>
  <anchor x="504.3" y="0.0" name="bottom"/>
  <anchor x="529.3" y="1110.0" name="top"/>
  <outline>
    <contour>
      <point x="-20.099999999999994" y="-190.6" type="line"/>
      <point x="-20.099999999999994" y="-261.4" type="line"/>
      <point x="1049.6" y="-261.4" type="line"/>
      <point x="1049.6" y="-190.6" type="line"/>
    </contour>
    <component base="g"/>
  </outline>
</glyph>
<glyph name="ezh" format="2">
  <advance width="917.0"/>
  <unicode hex="0292"/>
  <anchor x="438.5" y="1110.0" name="top"/>
  <outline>
    <contour>
      <point x="439.9" y="386.7" type="curve"/>
      <point x="870.8" y="974.1" type="line"/>
      <point x="843.0" y="1035.9" type="line"/>
      <point x="77.7" y="1035.9" type="line"/>
      <point x="76.5" y="741.6" type="line"/>
      <point x="156.10000000000002" y="741.6" type="line"/>
      <point x="204.9" y="958.2" type="line"/>
      <point x="715.3" y="982.0" type="line"/>
      <point x="571.1" y="784.2" type="line"/>
      <point x="283.0" y="390.9" type="line"/>
      <point x="328.5" y="333.2" type="line"/>
      <point x="650.5" y="359.2"/>
      <point x="725.3000000000001" y="151.0"/>
      <point x="725.3000000000001" y="-10.0" type="curve" smooth="yes"/>
      <point x="725.3000000000001" y="-238.0"/>
      <point x="572.4" y="-379.0"/>
      <point x="371.6" y="-379.0" type="curve" smooth="yes"/>
      <point x="273.8" y="-379.0"/>
      <point x="210.8" y="-358.1"/>
      <point x="176.10000000000002" y="-327.7" type="curve"/>
      <point x="113.10000000000001" y="-104.4" type="line"/>
      <point x="39.800000000000004" y="-104.4" type="line"/>
      <point x="45.800000000000004" y="-370.1" type="line"/>
      <point x="85.80000000000001" y="-388.1"/>
      <point x="193.8" y="-444.1"/>
      <point x="387.3" y="-444.1" type="curve" smooth="yes"/>
      <point x="607.4" y="-444.1"/>
      <point x="893.2" y="-293.2"/>
      <point x="893.2" y="8.0" type="curve" smooth="yes"/>
      <point x="893.2" y="229.0"/>
      <point x="738.9" y="404.3"/>
    </contour>
  </outline>
</glyph>
<glyph name="apostrophemod" format="2">
  <advance width="258.8"/>
  <unicode hex="02BC"/>
  <anchor x="86.4" y="1110.0" name="_top"/>
  <anchor x="86.4" y="1714.0" name="top"/>
  <outline>
    <contour>
      <point x="43.4" y="1107.1" type="line"/>
      <point x="141.7" y="1168.4"/>
      <point x="248.8" y="1320.2"/>
      <point x="248.8" y="1491.2" type="curve" smooth="yes"/>
      <point x="248.8" y="1626.1"/>
      <point x="176.3" y="1713.8"/>
      <point x="90.0" y="1713.8" type="curve" smooth="yes"/>
      <point x="45.0" y="1713.8"/>
      <point x="13.9" y="1689.2"/>
      <point x="13.9" y="1637.4" type="curve" smooth="yes"/>
      <point x="13.9" y="1558.1"/>
      <point x="145.1" y="1510.2"/>
      <point x="145.1" y="1451.4" type="curve" smooth="yes"/>
      <point x="145.1" y="1318.5"/>
      <point x="84.1" y="1210.1"/>
      <point x="10.0" y="1142.2" type="curve"/>
      <point x="10.0" y="1132.4" type="line"/>
    </contour>
  </outline>
</glyph>
<glyph name="ringhalfright" format="2">
  <advance width="253.0"/>
  <unicode hex="02BE"/>
  <outline>
    <contour>
      <point x="10.0" y="1201.4" type="line"/>
      <point x="130.6" y="1201.4"/>
      <point x="243.0" y="1290.3"/>
      <point x="243.0" y="1429.8" type="curve" smooth="yes"/>
      <point x="243.0" y="1554.6"/>
      <point x="153.7" y="1641.4"/>
      <point x="10.0" y="1641.4" type="curve"/>
      <point x="10.0" y="1589.4" type="line"/>
      <point x="84.39999999999999" y="1585.2"/>
      <point x="127.6" y="1530.2"/>
      <point x="127.6" y="1421.4" type="curve" smooth="yes"/>
      <point x="127.6" y="1321.7"/>
      <point x="84.39999999999999" y="1257.6"/>
      <point x="10.0" y="1253.4" type="curve"/>
    </contour>
  </outline>
</glyph>
<glyph name="ringhalfleft" format="2">
  <advance width="253.0"/>
  <unicode hex="02BF"/>
  <anchor x="243.0" y="1110.0" name="_top"/>
  <anchor x="243.0" y="1666.0" name="top"/>
  <outline>
    <contour>
      <point x="243.0" y="1201.4" type="curve"/>
      <point x="243.0" y="1253.4" type="line"/>
      <point x="168.6" y="1257.6"/>
      <point x="125.4" y="1312.6"/>
      <point x="125.4" y="1421.4" type="curve" smooth="yes"/>
      <point x="125.4" y="1521.1"/>
      <point x="168.6" y="1585.2"/>
      <point x="243.0" y="1589.4" type="curve"/>
      <point x="243.0" y="1641.4" type="line"/>
      <point x="122.4" y="1641.4"/>
      <point x="10.0" y="1552.5"/>
      <point x="10.0" y="1413.0" type="curve" smooth="yes"/>
      <point x="10.0" y="1288.2"/>
      <point x="99.3" y="1201.4"/>
    </contour>
  </outline>
</glyph>
<glyph name="acutecomb" format="2">
  <unicode hex="0301"/>
  <anchor x="134.5" y="1110.0" name="_top"/>
  <anchor x="136.5" y="1563.0" name="top"/>
  <outline>
    <contour>
      <point x="49.4" y="1191.6" type="line"/>
      <point x="152.4" y="1255.9"/>
      <point x="341.7" y="1429.6"/>
      <point x="399.3" y="1533.5" type="curve"/>
      <point x="270.3" y="1625.3" type="line"/>
      <point x="10.0" y="1221.8" type="line"/>
      <point x="47.4" y="1191.6" type="line"/>
    </contour>
  </outline>
</glyph>
<glyph name="tildecomb" format="2">
  <unicode hex="0303"/>
  <anchor x="296.6" y="1110.0" name="_top"/>
  <anchor x="296.6" y="1449.0" name="top"/>
  <outline>
    <contour>
      <point x="10.0" y="1253.7" type="curve"/>
      <point x="60.2" y="1234.8" type="line"/>
      <point x="81.5" y="1303.8"/>
      <point x="108.6" y="1338.3"/>
      <point x="158.60000000000002" y="1338.3" type="curve" smooth="yes"/>
      <point x="235.2" y="1338.3"/>
      <point x="300.0" y="1211.5"/>
      <point x="407.7" y="1211.5" type="curve" smooth="yes"/>
      <point x="502.1" y="1211.5"/>
      <point x="556.3" y="1281.5"/>
      <point x="583.2" y="1417.7" type="curve"/>
      <point x="533.0" y="1436.6" type="line"/>
      <point x="511.7" y="1367.6"/>
      <point x="484.6" y="1333.1"/>
      <point x="434.6" y="1333.1" type="curve" smooth="yes"/>
      <point x="358.0" y="1333.1"/>
      <point x="293.2" y="1459.9"/>
      <point x="185.5" y="1459.9" type="curve" smooth="yes"/>
      <point x="91.1" y="1459.9"/>
      <point x="36.9" y="1389.9"/>
    </contour>
  </outline>
</glyph>
<glyph name="macroncomb" format="2">
  <unicode hex="0304"/>
  <anchor x="235.3" y="1110.0" name="_top"/>
  <anchor x="235.3" y="1380.6" name="top"/>
  <outline>
    <contour>
      <point x="460.6" y="1348.5" type="line"/>
      <point x="10.0" y="1348.5" type="line"/>
      <point x="10.0" y="1233.5" type="line"/>
      <point x="460.6" y="1233.5" type="line"/>
    </contour>
  </outline>
</glyph>
<glyph name="brevecomb" format="2">
  <unicode hex="0306"/>
  <anchor x="275.2" y="1110.0" name="_top"/>
  <anchor x="275.2" y="1597.8" name="top"/>
  <outline>
    <contour>
      <point x="275.2" y="1206.6" type="curve" smooth="yes"/>
      <point x="420.6" y="1206.6"/>
      <point x="540.4" y="1319.4"/>
      <point x="540.4" y="1487.2" type="curve" smooth="yes"/>
      <point x="540.4" y="1505.4"/>
      <point x="539.4" y="1520.0"/>
      <point x="536.4" y="1539.5" type="curve"/>
      <point x="482.8" y="1539.5" type="line"/>
      <point x="482.8" y="1526.6"/>
      <point x="482.1" y="1513.2"/>
      <point x="480.1" y="1500.6" type="curve" smooth="yes"/>
      <point x="467.4" y="1419.3"/>
      <point x="407.7" y="1340.4"/>
      <point x="275.2" y="1340.4" type="curve" smooth="yes"/>
      <point x="142.7" y="1340.4"/>
      <point x="83.0" y="1419.3"/>
      <point x="70.30000000000001" y="1500.6" type="curve" smooth="yes"/>
      <point x="68.30000000000001" y="1513.2"/>
      <point x="67.6" y="1526.6"/>
      <point x="67.6" y="1539.5" type="curve"/>
      <point x="14.0" y="1539.5" type="line"/>
      <point x="11.0" y="1520.0"/>
      <point x="10.0" y="1505.4"/>
      <point x="10.0" y="1487.2" type="curve" smooth="yes"/>
      <point x="10.0" y="1319.4"/>
      <point x="129.8" y="1206.6"/>
    </contour>
  </outline>
</glyph>
<glyph name="dotaccentcomb" format="2">
  <unicode hex="0307"/>
  <anchor x="117.5" y="1110.0" name="_top"/>
  <anchor x="117.5" y="1408.0" name="top"/>
  <outline>
    <contour>
      <point x="110.5" y="1219.9" type="curve" smooth="yes"/>
      <point x="112.5" y="1219.9" type="line" smooth="yes"/>
      <point x="173.7" y="1219.9"/>
      <point x="225.6" y="1273.3"/>
      <point x="225.6" y="1346.7" type="curve" smooth="yes"/>
      <point x="225.6" y="1420.8"/>
      <point x="181.3" y="1457.5"/>
      <point x="125.1" y="1457.5" type="curve"/>
      <point x="123.1" y="1457.5" type="line" smooth="yes"/>
      <point x="61.9" y="1457.5"/>
      <point x="10.0" y="1404.1"/>
      <point x="10.0" y="1330.7" type="curve" smooth="yes"/>
      <point x="10.0" y="1256.6"/>
      <point x="54.3" y="1219.9"/>
    </contour>
  </outline>
</glyph>
<glyph name="dieresiscomb" format="2">
  <unicode hex="0308"/>
  <anchor x="292.4" y="1110.0" name="_top"/>
  <anchor x="292.4" y="1408.0" name="top"/>
  <outline>
    <contour>
      <point x="101.4" y="1219.9" type="curve" smooth="yes"/>
      <point x="103.4" y="1219.9" type="line" smooth="yes"/>
      <point x="168.8" y="1219.9"/>
      <point x="210.2" y="1281.7"/>
      <point x="210.2" y="1348.1" type="curve" smooth="yes"/>
      <point x="210.2" y="1408.9"/>
      <point x="183.4" y="1457.5"/>
      <point x="118.8" y="1457.5" type="curve" smooth="yes"/>
      <point x="116.8" y="1457.5" type="line" smooth="yes"/>
      <point x="51.4" y="1457.5"/>
      <point x="10.0" y="1395.7"/>
      <point x="10.0" y="1329.3" type="curve" smooth="yes"/>
      <point x="10.0" y="1268.5"/>
      <point x="36.8" y="1219.9"/>
    </contour>
    <contour>
      <point x="466.0" y="1219.9" type="curve" smooth="yes"/>
      <point x="468.0" y="1219.9" type="line" smooth="yes"/>
      <point x="533.4" y="1219.9"/>
      <point x="574.8" y="1281.7"/>
      <point x="574.8" y="1348.1" type="curve" smooth="yes"/>
      <point x="574.8" y="1408.9"/>
      <point x="548.0" y="1457.5"/>
      <point x="483.4" y="1457.5" type="curve" smooth="yes"/>
      <point x="481.4" y="1457.5" type="line" smooth="yes"/>
      <point x="416.0" y="1457.5"/>
      <point x="374.6" y="1395.7"/>
      <point x="374.6" y="1329.3" type="curve" smooth="yes"/>
      <point x="374.6" y="1268.5"/>
      <point x="401.4" y="1219.9"/>
    </contour>
  </outline>
</glyph>
<glyph name="hookabovecomb" format="2">
  <unicode hex="0309"/>
  <anchor x="156.3" y="1110.0" name="_top"/>
  <anchor x="156.3" y="1520.0" name="top"/>
  <outline>
    <contour>
      <point x="126.1" y="1191.1" type="curve"/>
      <point x="184.5" y="1191.1" type="line"/>
      <point x="167.9" y="1250.0"/>
      <point x="176.8" y="1286.5"/>
      <point x="214.1" y="1318.0" type="curve" smooth="yes"/>
      <point x="277.1" y="1370.8"/>
      <point x="335.1" y="1415.5"/>
      <point x="335.1" y="1499.6" type="curve" smooth="yes"/>
      <point x="335.1" y="1593.3"/>
      <point x="253.4" y="1664.3"/>
      <point x="128.3" y="1664.3" type="curve" smooth="yes"/>
      <point x="81.4" y="1664.3"/>
      <point x="46.5" y="1656.0"/>
      <point x="10.0" y="1642.2" type="curve"/>
      <point x="10.0" y="1531.5" type="line"/>
      <point x="31.9" y="1539.6"/>
      <point x="64.6" y="1545.0"/>
      <point x="95.0" y="1545.0" type="curve" smooth="yes"/>
      <point x="172.4" y="1545.0"/>
      <point x="201.9" y="1507.2"/>
      <point x="201.9" y="1468.5" type="curve" smooth="yes"/>
      <point x="201.9" y="1400.8"/>
      <point x="100.8" y="1365.2"/>
      <point x="100.8" y="1280.2" type="curve" smooth="yes"/>
      <point x="100.8" y="1250.0"/>
      <point x="111.4" y="1220.5"/>
    </contour>
  </outline>
</glyph>
<glyph name="ringcomb" format="2">
  <unicode hex="030A"/>
  <anchor x="243.0" y="1110.0" name="_top"/>
  <anchor x="243.0" y="1628.9" name="top"/>
  <outline>
    <contour>
      <point x="240.2" y="1177.6" type="curve" smooth="yes"/>
      <point x="368.5" y="1177.6"/>
      <point x="476.0" y="1266.5"/>
      <point x="476.0" y="1406.0" type="curve" smooth="yes"/>
      <point x="476.0" y="1530.8"/>
      <point x="377.6" y="1617.6"/>
      <point x="247.2" y="1617.6" type="curve" smooth="yes"/>
      <point x="122.4" y="1617.6"/>
      <point x="10.0" y="1528.7"/>
      <point x="10.0" y="1389.2" type="curve" smooth="yes"/>
      <point x="10.0" y="1264.4"/>
      <point x="99.3" y="1177.6"/>
    </contour>
    <contour>
      <point x="243.0" y="1225.4" type="curve" smooth="yes"/>
      <point x="168.6" y="1225.4"/>
      <point x="118.4" y="1288.8"/>
      <point x="118.4" y="1397.6" type="curve" smooth="yes"/>
      <point x="118.4" y="1497.3"/>
      <point x="168.6" y="1569.8"/>
      <point x="243.0" y="1569.8" type="curve" smooth="yes"/>
      <point x="317.4" y="1569.8"/>
      <point x="367.59999999999997" y="1506.4"/>
      <point x="367.59999999999997" y="1397.6" type="curve" smooth="yes"/>
      <point x="367.59999999999997" y="1297.9"/>
      <point x="317.4" y="1225.4"/>
    </contour>
  </outline>
</glyph>
<glyph name="hungarumlautcomb" format="2">
  <unicode hex="030B"/>
  <anchor x="251.4" y="1110.0" name="_top"/>
  <anchor x="251.4" y="1606.0" name="top"/>
  <outline>
    <contour>
      <point x="49.4" y="1191.6" type="line"/>
      <point x="145.8" y="1261.4"/>
      <point x="309.3" y="1433.0"/>
      <point x="369.9" y="1541.4" type="curve"/>
      <point x="252.79999999999998" y="1625.3" type="line"/>
      <point x="10.0" y="1221.8" type="line"/>
      <point x="47.4" y="1191.6" type="line"/>
    </contour>
    <contour>
      <point x="404.0" y="1191.6" type="line"/>
      <point x="500.4" y="1261.4"/>
      <point x="663.9" y="1433.0"/>
      <point x="724.5" y="1541.4" type="curve"/>
      <point x="607.4" y="1625.3" type="line"/>
      <point x="364.59999999999997" y="1221.8" type="line"/>
      <point x="402.0" y="1191.6" type="line"/>
    </contour>
  </outline>
</glyph>
<glyph name="caroncomb" format="2">
  <unicode hex="030C"/>
  <anchor x="309.1" y="1110.0" name="_top"/>
  <anchor x="309.1" y="1509.4" name="top"/>
  <outline>
    <contour>
      <point x="49.400000000000006" y="1592.7" type="line"/>
      <point x="10.0" y="1562.5" type="line"/>
      <point x="243.2" y="1207.3" type="line"/>
      <point x="375.0" y="1207.3" type="line"/>
      <point x="608.2" y="1562.5" type="line"/>
      <point x="568.8" y="1592.7" type="line"/>
      <point x="309.1" y="1355.5" type="line"/>
    </contour>
  </outline>
</glyph>
<glyph name="dblgravecomb" format="2">
  <unicode hex="030F"/>
  <anchor x="473.5" y="1110.0" name="_top"/>
  <anchor x="473.5" y="1606.0" name="top"/>
  <outline>
    <contour>
      <point x="658.7" y="1191.6" type="curve"/>
      <point x="660.7" y="1191.6" type="line"/>
      <point x="702.3" y="1221.8" type="line"/>
      <point x="488.9" y="1625.3" type="line"/>
      <point x="364.6" y="1541.4" type="line"/>
      <point x="417.7" y="1433.0"/>
      <point x="567.1" y="1261.4"/>
    </contour>
    <contour>
      <point x="304.1" y="1191.6" type="curve"/>
      <point x="306.1" y="1191.6" type="line"/>
      <point x="347.7" y="1221.8" type="line"/>
      <point x="134.3" y="1625.3" type="line"/>
      <point x="10.0" y="1541.4" type="line"/>
      <point x="63.1" y="1433.0"/>
      <point x="212.5" y="1261.4"/>
    </contour>
  </outline>
</glyph>
<glyph name="breveinvertedcomb" format="2">
  <unicode hex="0311"/>
  <anchor x="275.2" y="1110.0" name="_top"/>
  <anchor x="275.2" y="1756.0" name="top"/>
  <outline>
    <contour>
      <point x="275.2" y="1544.4" type="curve" smooth="yes"/>
      <point x="129.8" y="1544.4"/>
      <point x="10.0" y="1431.6"/>
      <point x="10.0" y="1263.8" type="curve" smooth="yes"/>
      <point x="10.0" y="1245.6"/>
      <point x="11.0" y="1231.0"/>
      <point x="14.0" y="1211.5" type="curve"/>
      <point x="67.6" y="1211.5" type="line"/>
      <point x="67.6" y="1224.4"/>
      <point x="68.30000000000001" y="1237.8"/>
      <point x="70.30000000000001" y="1250.4" type="curve" smooth="yes"/>
      <point x="83.0" y="1331.7"/>
      <point x="142.7" y="1410.6"/>
      <point x="275.2" y="1410.6" type="curve" smooth="yes"/>
      <point x="407.7" y="1410.6"/>
      <point x="467.40000000000003" y="1331.7"/>
      <point x="480.1" y="1250.4" type="curve" smooth="yes"/>
      <point x="482.1" y="1237.8"/>
      <point x="482.8" y="1224.4"/>
      <point x="482.8" y="1211.5" type="curve"/>
      <point x="536.4" y="1211.5" type="line"/>
      <point x="539.4" y="1231.0"/>
      <point x="540.4" y="1245.6"/>
      <point x="540.4" y="1263.8" type="curve" smooth="yes"/>
      <point x="540.4" y="1431.6"/>
      <point x="420.6" y="1544.4"/>
    </contour>
  </outline>
</glyph>
<glyph name="horncomb" format="2">
  <unicode hex="031B"/>
  <anchor x="44.2" y="1110.7" name="_topright"/>
  <outline>
    <contour>
      <point x="31.6" y="1031.8" type="line"/>
      <point x="218.8" y="1041.1"/>
      <point x="324.6" y="1143.4"/>
      <point x="324.6" y="1297.2" type="curve" smooth="yes"/>
      <point x="324.6" y="1321.7"/>
      <point x="322.6" y="1358.7"/>
      <point x="320.6" y="1374.7" type="curve"/>
      <point x="181.3" y="1374.7" type="line"/>
      <point x="184.0" y="1356.9"/>
      <point x="186.0" y="1337.3"/>
      <point x="186.0" y="1320.5" type="curve" smooth="yes"/>
      <point x="186.0" y="1215.2"/>
      <point x="187.3" y="1105.6"/>
      <point x="10.0" y="1096.3" type="curve"/>
    </contour>
  </outline>
</glyph>
<glyph name="dotbelowcomb" format="2">
  <unicode hex="0323"/>
  <anchor x="117.8" y="0.0" name="_bottom"/>
  <anchor x="117.8" y="-346.0" name="bottom"/>
  <outline>
    <contour>
      <point x="110.5" y="-408.6" type="curve" smooth="yes"/>
      <point x="112.5" y="-408.6" type="line" smooth="yes"/>
      <point x="173.7" y="-408.6"/>
      <point x="225.6" y="-355.2"/>
      <point x="225.6" y="-281.8" type="curve" smooth="yes"/>
      <point x="225.6" y="-207.7"/>
      <point x="181.3" y="-171.0"/>
      <point x="125.1" y="-171.0" type="curve" smooth="yes"/>
      <point x="123.1" y="-171.0" type="line" smooth="yes"/>
      <point x="61.9" y="-171.0"/>
      <point x="10.0" y="-224.4"/>
      <point x="10.0" y="-297.8" type="curve" smooth="yes"/>
      <point x="10.0" y="-371.9"/>
      <point x="54.3" y="-408.6"/>
    </contour>
  </outline>
</glyph>
<glyph name="cedillacomb" format="2">
  <unicode hex="0327"/>
  <anchor x="209.0" y="0.0" name="_bottom"/>
  <anchor x="209.0" y="-470.0" name="bottom"/>
  <outline>
    <contour>
      <point x="140.1" y="-442.0" type="curve" smooth="yes"/>
      <point x="272.1" y="-442.0"/>
      <point x="349.8" y="-376.3"/>
      <point x="349.8" y="-263.4" type="curve" smooth="yes"/>
      <point x="349.8" y="-150.7"/>
      <point x="274.2" y="-47.1"/>
      <point x="223.79999999999998" y="0.0" type="curve"/>
      <point x="199.0" y="12.0" type="line"/>
      <point x="167.0" y="0.0" type="line"/>
      <point x="201.1" y="-43.5"/>
      <point x="239.2" y="-119.5"/>
      <point x="239.2" y="-192.3" type="curve" smooth="yes"/>
      <point x="239.2" y="-286.3"/>
      <point x="178.2" y="-317.5"/>
      <point x="101.9" y="-317.5" type="curve" smooth="yes"/>
      <point x="77.0" y="-317.5"/>
      <point x="38.0" y="-312.9"/>
      <point x="10.0" y="-302.9" type="curve"/>
      <point x="10.0" y="-418.1" type="line"/>
      <point x="41.1" y="-432.1"/>
      <point x="100.4" y="-442.0"/>
    </contour>
  </outline>
</glyph>
<glyph name="ogonekcomb" format="2">
  <unicode hex="0328"/>
  <anchor x="312.1" y="8.0" name="_ogonek"/>
  <outline>
    <contour>
      <point x="209.5" y="-484.7" type="curve" smooth="yes"/>
      <point x="309.0" y="-484.7"/>
      <point x="397.6" y="-445.3"/>
      <point x="458.2" y="-387.5" type="curve"/>
      <point x="433.8" y="-334.5" type="line"/>
      <point x="380.5" y="-370.0"/>
      <point x="323.4" y="-385.6"/>
      <point x="270.5" y="-385.6" type="curve" smooth="yes"/>
      <point x="205.0" y="-385.6"/>
      <point x="155.1" y="-348.2"/>
      <point x="155.1" y="-277.8" type="curve" smooth="yes"/>
      <point x="155.1" y="-180.5"/>
      <point x="227.5" y="-75.4"/>
      <point x="382.0" y="2.0999999999999996" type="curve"/>
      <point x="341.7" y="10.1" type="line"/>
      <point x="304.1" y="2.0999999999999996" type="line"/>
      <point x="121.0" y="-79.6"/>
      <point x="10.0" y="-200.4"/>
      <point x="10.0" y="-313.9" type="curve" smooth="yes"/>
      <point x="10.0" y="-434.6"/>
      <point x="110.5" y="-484.7"/>
    </contour>
  </outline>
</glyph>
<glyph name="Delta" format="2">
  <advance width="1380.8"/>
  <unicode hex="0394"/>
  <outline>
    <contour>
      <point x="113.0" y="0.0" type="line"/>
      <point x="1267.0" y="0.0" type="line"/>
      <point x="1296.8" y="43.5" type="line"/>
      <point x="707.8" y="1500.0" type="line"/>
      <point x="655.0" y="1500.0" type="line"/>
      <point x="84.0" y="40.0" type="line"/>
    </contour>
    <contour>
      <point x="609.4" y="1130.0" type="line"/>
      <point x="640.2" y="1207.6" type="line"/>
      <point x="677.3" y="1105.2" type="line"/>
      <point x="1121.9" y="11.0" type="line"/>
      <point x="1178.0" y="99.3" type="line"/>
      <point x="168.0" y="99.3" type="line"/>
      <point x="179.3" y="19.4" type="line"/>
    </contour>
  </outline>
</glyph>
<glyph name="pi" format="2">
  <advance width="1224.1"/>
  <unicode hex="03C0"/>
  <outline>
    <contour>
      <point x="23.200000000000003" y="70.1" type="curve"/>
      <point x="139.9" y="-16.0" type="line"/>
      <point x="349.29999999999995" y="41.9"/>
      <point x="398.4" y="216.79999999999998"/>
      <point x="420.6" y="379.4" type="curve" smooth="yes"/>
      <point x="489.0" y="887.6" type="line"/>
      <point x="837.2" y="887.6" type="line"/>
      <point x="777.1" y="549.2"/>
      <point x="717.8" y="292.2"/>
      <point x="713.0" y="158.9" type="curve" smooth="yes"/>
      <point x="711.8" y="51.4"/>
      <point x="770.0" y="-16.0"/>
      <point x="881.7" y="-16.0" type="curve" smooth="yes"/>
      <point x="1057.5" y="-16.0"/>
      <point x="1148.7" y="170.7"/>
      <point x="1173.6" y="308.2" type="curve"/>
      <point x="1111.5" y="308.2" type="line"/>
      <point x="1075.4" y="184.6"/>
      <point x="995.6" y="107.2"/>
      <point x="929.2" y="107.2" type="curve" smooth="yes"/>
      <point x="859.5" y="107.2"/>
      <point x="840.2" y="166.6"/>
      <point x="841.4" y="242.4" type="curve" smooth="yes"/>
      <point x="845.0" y="317.5"/>
      <point x="862.8" y="463.1"/>
      <point x="914.2" y="887.6" type="curve"/>
      <point x="950.1" y="887.6" type="line" smooth="yes"/>
      <point x="1099.4" y="887.6"/>
      <point x="1218.2" y="959.8"/>
      <point x="1245.5" y="1130.5" type="curve"/>
      <point x="1179.7" y="1130.5" type="line"/>
      <point x="1145.1" y="1052.5"/>
      <point x="1099.9" y="1035.8"/>
      <point x="1008.8" y="1035.8" type="curve" smooth="yes"/>
      <point x="383.3" y="1035.8" type="line" smooth="yes"/>
      <point x="202.0" y="1035.8"/>
      <point x="93.39999999999999" y="960.8"/>
      <point x="78.7" y="795.8" type="curve"/>
      <point x="143.9" y="783.9" type="line"/>
      <point x="166.10000000000002" y="862.0"/>
      <point x="223.7" y="887.6"/>
      <point x="340.3" y="887.6" type="curve" smooth="yes"/>
      <point x="422.6" y="887.6" type="line"/>
      <point x="328.2" y="490.5" type="line" smooth="yes"/>
      <point x="282.8" y="305.2"/>
      <point x="241.5" y="131.4"/>
    </contour>
  </outline>
</glyph>
<glyph name="Dje-cy" format="2">
  <advance width="1558.1"/>
  <unicode hex="0402"/>
  <outline>
    <contour>
      <point x="1045.5" y="-394.6" type="curve" smooth="yes"/>
      <point x="1352.6" y="-394.6"/>
      <point x="1507.5" y="-75.0"/>
      <point x="1507.5" y="350.0" type="curve" smooth="yes"/>
      <point x="1507.5" y="632.0"/>
      <point x="1436.6" y="854.1"/>
      <point x="1046.2" y="850.6" type="curve" smooth="yes"/>
      <point x="963.4" y="849.9"/>
      <point x="851.8" y="827.5"/>
      <point x="750.2" y="779.0" type="curve"/>
      <point x="750.2" y="1419.1" type="line"/>
      <point x="1170.7" y="1398.9" type="line"/>
      <point x="1222.8" y="1018.0" type="line"/>
      <point x="1323.8" y="1018.0" type="line"/>
      <point x="1329.8" y="1486.0" type="line"/>
      <point x="62.3" y="1486.0" type="line"/>
      <point x="44.0" y="1018.0" type="line"/>
      <point x="132.2" y="1018.0" type="line"/>
      <point x="211.4" y="1398.9" type="line"/>
      <point x="590.0" y="1419.1" type="line"/>
      <point x="590.0" y="79.4" type="line"/>
      <point x="356.1" y="51.0" type="line"/>
      <point x="356.1" y="0.0" type="line"/>
      <point x="956.7" y="0.0" type="line"/>
      <point x="956.7" y="51.0" type="line"/>
      <point x="750.2" y="78.8" type="line"/>
      <point x="750.2" y="715.6" type="line"/>
      <point x="839.5" y="751.2"/>
      <point x="917.8" y="765.8"/>
      <point x="1012.5" y="765.8" type="curve" smooth="yes"/>
      <point x="1261.2" y="765.8"/>
      <point x="1341.5" y="624.9"/>
      <point x="1341.5" y="334.0" type="curve" smooth="yes"/>
      <point x="1341.5" y="-121.10000000000001"/>
      <point x="1247.1" y="-330.0"/>
      <point x="1015.9" y="-330.0" type="curve" smooth="yes"/>
      <point x="983.9" y="-330.0"/>
      <point x="950.7" y="-328.0"/>
      <point x="932.7" y="-324.6" type="curve"/>
      <point x="933.3" y="-380.0" type="line"/>
      <point x="954.7" y="-390.0"/>
      <point x="1014.1" y="-394.6"/>
    </contour>
  </outline>
</glyph>
<glyph name="E-cy" format="2">
  <advance width="1249.7"/>
  <unicode hex="0404"/>
  <outline>
    <contour>
      <point x="693.8" y="-20.6" type="curve" smooth="yes"/>
      <point x="952.7" y="-20.6"/>
      <point x="1012.0" y="50.0"/>
      <point x="1116.0" y="54.0" type="curve"/>
      <point x="1159.7" y="329.0" type="line"/>
      <point x="1075.0" y="345.8" type="line"/>
      <point x="998.5" y="148.0" type="line"/>
      <point x="946.5" y="99.0"/>
      <point x="869.4" y="42.5"/>
      <point x="725.1" y="42.5" type="curve" smooth="yes"/>
      <point x="357.9" y="42.5"/>
      <point x="224.0" y="374.1"/>
      <point x="217.1" y="725.0" type="curve"/>
      <point x="928.6" y="702.0" type="line"/>
      <point x="928.6" y="820.0" type="line"/>
      <point x="217.8" y="797.0" type="line"/>
      <point x="231.1" y="1196.1"/>
      <point x="429.0" y="1436.8"/>
      <point x="744.7" y="1436.8" type="curve" smooth="yes"/>
      <point x="874.7" y="1436.8"/>
      <point x="966.1" y="1404.0"/>
      <point x="1002.1" y="1372.0" type="curve"/>
      <point x="1037.7" y="1109.2" type="line"/>
      <point x="1141.0" y="1109.2" type="line"/>
      <point x="1157.0" y="1438.0" type="line"/>
      <point x="1087.0" y="1442.8"/>
      <point x="967.6" y="1502.0"/>
      <point x="747.6" y="1502.0" type="curve" smooth="yes"/>
      <point x="342.8" y="1502.0"/>
      <point x="42.599999999999994" y="1181.3"/>
      <point x="42.599999999999994" y="728.3" type="curve" smooth="yes"/>
      <point x="42.599999999999994" y="300.0"/>
      <point x="272.5" y="-20.6"/>
    </contour>
  </outline>
</glyph>
<glyph name="Yi-cy" format="2">
  <advance width="548.6"/>
  <unicode hex="0407"/>
  <anchor x="275.09999999999997" y="0.0" name="bottom"/>
  <anchor x="303.7" y="20.0" name="ogonek"/>
  <anchor x="275.09999999999997" y="1486.0" name="top"/>
  <anchor x="6.700000000000001" y="1486.0" name="topleft"/>
  <outline>
    <contour>
      <point x="110.6" y="1615.6" type="curve" smooth="yes"/>
      <point x="112.6" y="1615.6" type="line" smooth="yes"/>
      <point x="178.0" y="1615.6"/>
      <point x="219.4" y="1677.4"/>
      <point x="219.4" y="1743.8" type="curve" smooth="yes"/>
      <point x="219.4" y="1804.6"/>
      <point x="193.3" y="1853.2"/>
      <point x="128.0" y="1853.2" type="curve" smooth="yes"/>
      <point x="126.0" y="1853.2" type="line" smooth="yes"/>
      <point x="60.6" y="1853.2"/>
      <point x="19.200000000000003" y="1791.4"/>
      <point x="19.200000000000003" y="1725.0" type="curve" smooth="yes"/>
      <point x="19.200000000000003" y="1664.2"/>
      <point x="46.0" y="1615.6"/>
    </contour>
    <contour>
      <point x="422.2" y="1615.6" type="curve" smooth="yes"/>
      <point x="424.2" y="1615.6" type="line" smooth="yes"/>
      <point x="489.6" y="1615.6"/>
      <point x="531.0" y="1677.4"/>
      <point x="531.0" y="1743.8" type="curve" smooth="yes"/>
      <point x="531.0" y="1804.6"/>
      <point x="504.2" y="1853.2"/>
      <point x="439.6" y="1853.2" type="curve" smooth="yes"/>
      <point x="437.6" y="1853.2" type="line" smooth="yes"/>
      <point x="372.2" y="1853.2"/>
      <point x="330.8" y="1791.4"/>
      <point x="330.8" y="1725.0" type="curve" smooth="yes"/>
      <point x="330.8" y="1664.2"/>
      <point x="357.6" y="1615.6"/>
    </contour>
    <component base="I"/>
  </outline>
</glyph>
<glyph name="Lje-cy" format="2">
  <advance width="1894.3"/>
  <unicode hex="0409"/>
  <outline>
    <contour>
      <point x="140.0" y="-10.0" type="curve" smooth="yes"/>
      <point x="234.0" y="-10.0"/>
      <point x="303.0" y="34.0"/>
      <point x="360.0" y="133.0" type="curve" smooth="yes"/>
      <point x="473.0" y="329.0"/>
      <point x="528.8" y="725.4"/>
      <point x="529.7" y="1184.0" type="curve" smooth="yes"/>
      <point x="530.0" y="1415.0" type="line"/>
      <point x="952.5" y="1415.0" type="line"/>
      <point x="952.5" y="78.0" type="line"/>
      <point x="753.8" y="51.0" type="line"/>
      <point x="753.8" y="0.0" type="line"/>
      <point x="1036.1" y="0.0" type="line" smooth="yes"/>
      <point x="1120.5" y="0.0"/>
      <point x="1286.8" y="-8.0"/>
      <point x="1351.6" y="-8.0" type="curve" smooth="yes"/>
      <point x="1649.6" y="-8.0"/>
      <point x="1871.3" y="180.8"/>
      <point x="1871.3" y="479.4" type="curve" smooth="yes"/>
      <point x="1871.3" y="744.8"/>
      <point x="1694.1" y="869.4"/>
      <point x="1368.0" y="869.4" type="curve" smooth="yes"/>
      <point x="1282.2" y="869.4"/>
      <point x="1201.1" y="861.0"/>
      <point x="1110.0" y="849.4" type="curve"/>
      <point x="1110.0" y="1407.4" type="line"/>
      <point x="1288.2" y="1435.0" type="line"/>
      <point x="1288.2" y="1486.0" type="line"/>
      <point x="278.1" y="1486.0" type="line"/>
      <point x="278.1" y="1435.0" type="line"/>
      <point x="445.0" y="1407.4" type="line"/>
      <point x="445.0" y="1195.0" type="line" smooth="yes"/>
      <point x="445.0" y="728.0"/>
      <point x="380.9" y="396.1"/>
      <point x="276.0" y="229.0" type="curve" smooth="yes"/>
      <point x="242.3" y="172.9"/>
      <point x="198.6" y="152.0"/>
      <point x="145.0" y="152.0" type="curve" smooth="yes"/>
      <point x="65.0" y="152.0"/>
      <point x="32.0" y="156.0"/>
      <point x="10.0" y="160.0" type="curve"/>
      <point x="17.0" y="0.0" type="line"/>
      <point x="41.0" y="-4.0"/>
      <point x="78.0" y="-10.0"/>
    </contour>
    <contour>
      <point x="1306.0" y="59.0" type="curve" smooth="yes"/>
      <point x="1220.3" y="59.0"/>
      <point x="1144.2" y="64.0"/>
      <point x="1110.0" y="71.3" type="curve"/>
      <point x="1110.0" y="774.1" type="line"/>
      <point x="1182.7" y="784.4"/>
      <point x="1248.8" y="793.4"/>
      <point x="1326.5" y="793.4" type="curve" smooth="yes"/>
      <point x="1567.2" y="793.4"/>
      <point x="1699.3" y="709.9"/>
      <point x="1699.3" y="446.4" type="curve" smooth="yes"/>
      <point x="1699.3" y="189.2"/>
      <point x="1557.8" y="59.0"/>
    </contour>
  </outline>
</glyph>
<glyph name="Nje-cy" format="2">
  <advance width="2015.7"/>
  <unicode hex="040A"/>
  <outline>
    <contour>
      <point x="1472.7" y="-8.0" type="curve" smooth="yes"/>
      <point x="1771.0" y="-8.0"/>
      <point x="1992.7" y="180.5"/>
      <point x="1992.7" y="479.0" type="curve" smooth="yes"/>
      <point x="1992.7" y="743.1"/>
      <point x="1814.6" y="868.0"/>
      <point x="1489.7" y="868.0" type="curve" smooth="yes"/>
      <point x="1403.6" y="868.0"/>
      <point x="1322.8" y="859.0"/>
      <point x="1231.7" y="848.0" type="curve"/>
      <point x="1231.7" y="1408.0" type="line"/>
      <point x="1387.6" y="1436.2" type="line"/>
      <point x="1387.6" y="1486.3" type="line"/>
      <point x="920.8" y="1486.0" type="line"/>
      <point x="920.8" y="1436.2" type="line"/>
      <point x="1073.3" y="1408.0" type="line"/>
      <point x="1073.3" y="800.6" type="line"/>
      <point x="346.8" y="800.6" type="line"/>
      <point x="346.8" y="1407.4" type="line"/>
      <point x="500.5" y="1435.0" type="line"/>
      <point x="500.5" y="1486.0" type="line"/>
      <point x="41.800000000000004" y="1486.0" type="line"/>
      <point x="41.800000000000004" y="1435.0" type="line"/>
      <point x="189.0" y="1407.4" type="line"/>
      <point x="189.0" y="77.4" type="line"/>
      <point x="40.5" y="51.0" type="line"/>
      <point x="40.5" y="0.0" type="line"/>
      <point x="501.4" y="0.0" type="line"/>
      <point x="501.4" y="51.0" type="line"/>
      <point x="346.8" y="77.4" type="line"/>
      <point x="346.8" y="725.4" type="line"/>
      <point x="1073.3" y="725.4" type="line"/>
      <point x="1073.3" y="77.4" type="line"/>
      <point x="923.2" y="51.0" type="line"/>
      <point x="923.2" y="0.0" type="line"/>
      <point x="1145.2" y="0.0" type="line" smooth="yes"/>
      <point x="1228.7" y="0.0"/>
      <point x="1408.5" y="-8.0"/>
    </contour>
    <contour>
      <point x="1427.7" y="59.0" type="curve" smooth="yes"/>
      <point x="1342.0" y="59.0"/>
      <point x="1265.9" y="64.0"/>
      <point x="1231.7" y="71.0" type="curve"/>
      <point x="1231.7" y="773.0" type="line"/>
      <point x="1303.8" y="783.0"/>
      <point x="1369.6" y="792.0"/>
      <point x="1452.7" y="792.0" type="curve" smooth="yes"/>
      <point x="1688.6" y="792.0"/>
      <point x="1820.7" y="707.0"/>
      <point x="1820.7" y="446.0" type="curve" smooth="yes"/>
      <point x="1820.7" y="188.0"/>
      <point x="1678.6" y="59.0"/>
    </contour>
  </outline>
</glyph>
<glyph name="Tshe-cy" format="2">
  <advance width="1658.0"/>
  <unicode hex="040B"/>
  <outline>
    <contour>
      <point x="346.3" y="0.0" type="line"/>
      <point x="952.2" y="0.0" type="line"/>
      <point x="952.2" y="51.0" type="line"/>
      <point x="750.2" y="77.4" type="line"/>
      <point x="750.2" y="701.9" type="line"/>
      <point x="808.2" y="734.3"/>
      <point x="912.9" y="766.8"/>
      <point x="1059.5" y="766.8" type="curve" smooth="yes"/>
      <point x="1321.5" y="766.8"/>
      <point x="1338.9" y="608.5"/>
      <point x="1338.9" y="380.8" type="curve" smooth="yes"/>
      <point x="1338.9" y="77.4" type="line"/>
      <point x="1171.5" y="51.0" type="line"/>
      <point x="1171.5" y="0.0" type="line"/>
      <point x="1629.4" y="0.0" type="line"/>
      <point x="1629.4" y="51.0" type="line"/>
      <point x="1500.2" y="77.4" type="line"/>
      <point x="1500.2" y="436.6" type="line" smooth="yes"/>
      <point x="1500.2" y="655.4"/>
      <point x="1463.9" y="852.0"/>
      <point x="1093.2" y="852.0" type="curve" smooth="yes"/>
      <point x="987.7" y="852.0"/>
      <point x="842.1" y="819.1"/>
      <point x="750.2" y="770.6" type="curve"/>
      <point x="750.2" y="1422.0" type="line"/>
      <point x="1173.1" y="1398.9" type="line"/>
      <point x="1260.8" y="1018.0" type="line"/>
      <point x="1348.4" y="1018.0" type="line"/>
      <point x="1318.2" y="1486.0" type="line"/>
      <point x="82.7" y="1486.0" type="line"/>
      <point x="44.0" y="1018.0" type="line"/>
      <point x="131.6" y="1018.0" type="line"/>
      <point x="225.4" y="1398.9" type="line"/>
      <point x="590.6" y="1422.0" type="line"/>
      <point x="590.6" y="78.0" type="line"/>
      <point x="346.3" y="51.0" type="line"/>
    </contour>
  </outline>
</glyph>
<glyph name="Dzhe-cy" format="2">
  <advance width="1387.5"/>
  <unicode hex="040F"/>
  <outline>
    <contour>
      <point x="743.6999999999999" y="-364.2" type="line"/>
      <point x="757.1999999999999" y="-244.2"/>
      <point x="772.7" y="-120.0"/>
      <point x="786.9" y="0.0" type="curve"/>
      <point x="1347.0" y="0.0" type="line"/>
      <point x="1347.0" y="51.0" type="line"/>
      <point x="1194.3" y="77.4" type="line"/>
      <point x="1194.3" y="1407.4" type="line"/>
      <point x="1340.3" y="1435.0" type="line"/>
      <point x="1340.3" y="1486.0" type="line"/>
      <point x="886.0" y="1486.0" type="line"/>
      <point x="886.0" y="1435.0" type="line"/>
      <point x="1038.5" y="1407.4" type="line"/>
      <point x="1038.5" y="77.4" type="line"/>
      <point x="348.4" y="77.4" type="line"/>
      <point x="348.4" y="1407.4" type="line"/>
      <point x="507.5" y="1435.0" type="line"/>
      <point x="507.5" y="1486.0" type="line"/>
      <point x="43.599999999999994" y="1486.0" type="line"/>
      <point x="43.599999999999994" y="1435.0" type="line"/>
      <point x="192.6" y="1407.4" type="line"/>
      <point x="192.6" y="78.0" type="line"/>
      <point x="40.5" y="51.0" type="line"/>
      <point x="40.5" y="0.0" type="line"/>
      <point x="609.2" y="0.0" type="line"/>
      <point x="622.4" y="-85.30000000000001"/>
      <point x="646.0" y="-279.1"/>
      <point x="655.1" y="-364.2" type="curve"/>
    </contour>
  </outline>
</glyph>
<glyph name="Be-cy" format="2">
  <advance width="1241.8"/>
  <unicode hex="0411"/>
  <outline>
    <contour>
      <point x="658.8" y="-9.8" type="curve" smooth="yes"/>
      <point x="962.2" y="-9.8"/>
      <point x="1184.2" y="184.9"/>
      <point x="1184.2" y="495.2" type="curve" smooth="yes"/>
      <point x="1184.2" y="777.5"/>
      <point x="1004.3" y="904.3"/>
      <point x="679.4" y="904.3" type="curve" smooth="yes"/>
      <point x="589.7" y="904.3"/>
      <point x="497.5" y="893.5"/>
      <point x="420.2" y="882.8" type="curve"/>
      <point x="420.2" y="1427.5" type="line"/>
      <point x="926.2" y="1415.5" type="line"/>
      <point x="991.2" y="1124.0" type="line"/>
      <point x="1093.2" y="1124.0" type="line"/>
      <point x="1072.2" y="1486.0" type="line"/>
      <point x="48.99999999999999" y="1486.0" type="line"/>
      <point x="48.99999999999999" y="1435.0" type="line"/>
      <point x="258.2" y="1407.4" type="line"/>
      <point x="258.2" y="77.4" type="line"/>
      <point x="47.0" y="51.0" type="line"/>
      <point x="47.0" y="0.0" type="line"/>
      <point x="346.9" y="0.0" type="line" smooth="yes"/>
      <point x="430.4" y="0.0"/>
      <point x="599.7" y="-9.8"/>
    </contour>
    <contour>
      <point x="623.1" y="58.099999999999994" type="curve" smooth="yes"/>
      <point x="527.5" y="58.099999999999994"/>
      <point x="462.2" y="64.0"/>
      <point x="420.2" y="71.3" type="curve"/>
      <point x="420.2" y="808.7" type="line"/>
      <point x="481.8" y="818.1"/>
      <point x="557.5" y="826.5"/>
      <point x="640.6" y="826.5" type="curve" smooth="yes"/>
      <point x="873.5" y="826.5"/>
      <point x="1011.6" y="743.1"/>
      <point x="1011.6" y="468.8" type="curve" smooth="yes"/>
      <point x="1011.6" y="200.1"/>
      <point x="877.0" y="58.099999999999994"/>
    </contour>
  </outline>
</glyph>
<glyph name="Ge-cy" format="2">
  <advance width="1139.2"/>
  <unicode hex="0413"/>
  <anchor x="791.8" y="0.0" name="bottomright"/>
  <anchor x="533.2" y="744.0" name="center"/>
  <anchor x="675.2" y="1486.0" name="top"/>
  <outline>
    <contour>
      <point x="47.0" y="0.0" type="line"/>
      <point x="747.4" y="0.0" type="line"/>
      <point x="747.4" y="50.4" type="line"/>
      <point x="427.2" y="78.1" type="line"/>
      <point x="427.2" y="1426.1" type="line"/>
      <point x="933.2" y="1414.1" type="line"/>
      <point x="1006.2" y="984.0" type="line"/>
      <point x="1095.2" y="984.0" type="line"/>
      <point x="1087.2" y="1486.0" type="line"/>
      <point x="55.0" y="1486.0" type="line"/>
      <point x="55.0" y="1435.6" type="line"/>
      <point x="259.2" y="1406.8" type="line"/>
      <point x="259.2" y="78.1" type="line"/>
      <point x="47.0" y="50.4" type="line"/>
    </contour>
  </outline>
</glyph>
